<svg width="1363" height="163" viewBox="0 0 1363 163" fill="none" xmlns="http://www.w3.org/2000/svg">
<path d="M0 15C0 6.71573 6.71573 0 15 0H37V163H15C6.71573 163 0 156.284 0 148V15Z" fill="#424242"/>
<rect width="1097" height="163" transform="translate(37)" fill="#F0F0F0"/>
<path d="M101.906 53.9219L94.3945 51.2383V48.0859L104.602 52.375V54.6367L101.906 53.9219ZM94.3945 56.1719L101.918 53.4297L104.602 52.7852V55.0352L94.3945 59.3242V56.1719ZM121.781 56.5352C121.781 56.2305 121.734 55.957 121.641 55.7148C121.555 55.4648 121.391 55.2383 121.148 55.0352C120.906 54.8242 120.566 54.6172 120.129 54.4141C119.691 54.2109 119.125 54 118.43 53.7812C117.656 53.5312 116.922 53.25 116.227 52.9375C115.539 52.625 114.93 52.2617 114.398 51.8477C113.875 51.4258 113.461 50.9375 113.156 50.3828C112.859 49.8281 112.711 49.1836 112.711 48.4492C112.711 47.7383 112.867 47.0938 113.18 46.5156C113.492 45.9297 113.93 45.4297 114.492 45.0156C115.055 44.5938 115.719 44.2695 116.484 44.043C117.258 43.8164 118.105 43.7031 119.027 43.7031C120.285 43.7031 121.383 43.9297 122.32 44.3828C123.258 44.8359 123.984 45.457 124.5 46.2461C125.023 47.0352 125.285 47.9375 125.285 48.9531H121.793C121.793 48.4531 121.688 48.0156 121.477 47.6406C121.273 47.2578 120.961 46.957 120.539 46.7383C120.125 46.5195 119.602 46.4102 118.969 46.4102C118.359 46.4102 117.852 46.5039 117.445 46.6914C117.039 46.8711 116.734 47.1172 116.531 47.4297C116.328 47.7344 116.227 48.0781 116.227 48.4609C116.227 48.75 116.297 49.0117 116.438 49.2461C116.586 49.4805 116.805 49.6992 117.094 49.9023C117.383 50.1055 117.738 50.2969 118.16 50.4766C118.582 50.6562 119.07 50.832 119.625 51.0039C120.555 51.2852 121.371 51.6016 122.074 51.9531C122.785 52.3047 123.379 52.6992 123.855 53.1367C124.332 53.5742 124.691 54.0703 124.934 54.625C125.176 55.1797 125.297 55.8086 125.297 56.5117C125.297 57.2539 125.152 57.918 124.863 58.5039C124.574 59.0898 124.156 59.5859 123.609 59.9922C123.062 60.3984 122.41 60.707 121.652 60.918C120.895 61.1289 120.047 61.2344 119.109 61.2344C118.266 61.2344 117.434 61.125 116.613 60.9062C115.793 60.6797 115.047 60.3398 114.375 59.8867C113.711 59.4336 113.18 58.8555 112.781 58.1523C112.383 57.4492 112.184 56.6172 112.184 55.6562H115.711C115.711 56.1875 115.793 56.6367 115.957 57.0039C116.121 57.3711 116.352 57.668 116.648 57.8945C116.953 58.1211 117.312 58.2852 117.727 58.3867C118.148 58.4883 118.609 58.5391 119.109 58.5391C119.719 58.5391 120.219 58.4531 120.609 58.2812C121.008 58.1094 121.301 57.8711 121.488 57.5664C121.684 57.2617 121.781 56.918 121.781 56.5352ZM130.77 43V61H127.395V43H130.77ZM130.289 54.2148H129.363C129.371 53.332 129.488 52.5195 129.715 51.7773C129.941 51.0273 130.266 50.3789 130.688 49.832C131.109 49.2773 131.613 48.8477 132.199 48.543C132.793 48.2383 133.449 48.0859 134.168 48.0859C134.793 48.0859 135.359 48.1758 135.867 48.3555C136.383 48.5273 136.824 48.8086 137.191 49.1992C137.566 49.582 137.855 50.0859 138.059 50.7109C138.262 51.3359 138.363 52.0938 138.363 52.9844V61H134.965V52.9609C134.965 52.3984 134.883 51.957 134.719 51.6367C134.562 51.3086 134.332 51.0781 134.027 50.9453C133.73 50.8047 133.363 50.7344 132.926 50.7344C132.441 50.7344 132.027 50.8242 131.684 51.0039C131.348 51.1836 131.078 51.4336 130.875 51.7539C130.672 52.0664 130.523 52.4336 130.43 52.8555C130.336 53.2773 130.289 53.7305 130.289 54.2148ZM146.766 61.2344C145.781 61.2344 144.898 61.0781 144.117 60.7656C143.336 60.4453 142.672 60.0039 142.125 59.4414C141.586 58.8789 141.172 58.2266 140.883 57.4844C140.594 56.7344 140.449 55.9375 140.449 55.0938V54.625C140.449 53.6641 140.586 52.7852 140.859 51.9883C141.133 51.1914 141.523 50.5 142.031 49.9141C142.547 49.3281 143.172 48.8789 143.906 48.5664C144.641 48.2461 145.469 48.0859 146.391 48.0859C147.289 48.0859 148.086 48.2344 148.781 48.5312C149.477 48.8281 150.059 49.25 150.527 49.7969C151.004 50.3438 151.363 51 151.605 51.7656C151.848 52.5234 151.969 53.3672 151.969 54.2969V55.7031H141.891V53.4531H148.652V53.1953C148.652 52.7266 148.566 52.3086 148.395 51.9414C148.23 51.5664 147.98 51.2695 147.645 51.0508C147.309 50.832 146.879 50.7227 146.355 50.7227C145.91 50.7227 145.527 50.8203 145.207 51.0156C144.887 51.2109 144.625 51.4844 144.422 51.8359C144.227 52.1875 144.078 52.6016 143.977 53.0781C143.883 53.5469 143.836 54.0625 143.836 54.625V55.0938C143.836 55.6016 143.906 56.0703 144.047 56.5C144.195 56.9297 144.402 57.3008 144.668 57.6133C144.941 57.9258 145.27 58.168 145.652 58.3398C146.043 58.5117 146.484 58.5977 146.977 58.5977C147.586 58.5977 148.152 58.4805 148.676 58.2461C149.207 58.0039 149.664 57.6406 150.047 57.1562L151.688 58.9375C151.422 59.3203 151.059 59.6875 150.598 60.0391C150.145 60.3906 149.598 60.6797 148.957 60.9062C148.316 61.125 147.586 61.2344 146.766 61.2344ZM157.453 43V61H154.066V43H157.453ZM164.543 61H161.145V47.1953C161.145 46.2344 161.332 45.4258 161.707 44.7695C162.09 44.1055 162.625 43.6055 163.312 43.2695C164.008 42.9258 164.832 42.7539 165.785 42.7539C166.098 42.7539 166.398 42.7773 166.688 42.8242C166.977 42.8633 167.258 42.9141 167.531 42.9766L167.496 45.5195C167.348 45.4805 167.191 45.4531 167.027 45.4375C166.863 45.4219 166.672 45.4141 166.453 45.4141C166.047 45.4141 165.699 45.4844 165.41 45.625C165.129 45.7578 164.914 45.957 164.766 46.2227C164.617 46.4883 164.543 46.8125 164.543 47.1953V61ZM167.074 48.3203V50.7109H159.258V48.3203H167.074ZM176.637 43.9375H179.613L183.996 56.4648L188.379 43.9375H191.355L185.191 61H182.801L176.637 43.9375ZM175.031 43.9375H177.996L178.535 56.1484V61H175.031V43.9375ZM189.996 43.9375H192.973V61H189.457V56.1484L189.996 43.9375ZM202.688 58.1406V52.4922C202.688 52.0859 202.621 51.7383 202.488 51.4492C202.355 51.1523 202.148 50.9219 201.867 50.7578C201.594 50.5938 201.238 50.5117 200.801 50.5117C200.426 50.5117 200.102 50.5781 199.828 50.7109C199.555 50.8359 199.344 51.0195 199.195 51.2617C199.047 51.4961 198.973 51.7734 198.973 52.0938H195.598C195.598 51.5547 195.723 51.043 195.973 50.5586C196.223 50.0742 196.586 49.6484 197.062 49.2812C197.539 48.9062 198.105 48.6133 198.762 48.4023C199.426 48.1914 200.168 48.0859 200.988 48.0859C201.973 48.0859 202.848 48.25 203.613 48.5781C204.379 48.9062 204.98 49.3984 205.418 50.0547C205.863 50.7109 206.086 51.5312 206.086 52.5156V57.9414C206.086 58.6367 206.129 59.207 206.215 59.6523C206.301 60.0898 206.426 60.4727 206.59 60.8008V61H203.18C203.016 60.6562 202.891 60.2266 202.805 59.7109C202.727 59.1875 202.688 58.6641 202.688 58.1406ZM203.133 53.2773L203.156 55.1875H201.27C200.824 55.1875 200.438 55.2383 200.109 55.3398C199.781 55.4414 199.512 55.5859 199.301 55.7734C199.09 55.9531 198.934 56.1641 198.832 56.4062C198.738 56.6484 198.691 56.9141 198.691 57.2031C198.691 57.4922 198.758 57.7539 198.891 57.9883C199.023 58.2148 199.215 58.3945 199.465 58.5273C199.715 58.6523 200.008 58.7148 200.344 58.7148C200.852 58.7148 201.293 58.6133 201.668 58.4102C202.043 58.207 202.332 57.957 202.535 57.6602C202.746 57.3633 202.855 57.082 202.863 56.8164L203.754 58.2461C203.629 58.5664 203.457 58.8984 203.238 59.2422C203.027 59.5859 202.758 59.9102 202.43 60.2148C202.102 60.5117 201.707 60.7578 201.246 60.9531C200.785 61.1406 200.238 61.2344 199.605 61.2344C198.801 61.2344 198.07 61.0742 197.414 60.7539C196.766 60.4258 196.25 59.9766 195.867 59.4062C195.492 58.8281 195.305 58.1719 195.305 57.4375C195.305 56.7734 195.43 56.1836 195.68 55.668C195.93 55.1523 196.297 54.7188 196.781 54.3672C197.273 54.0078 197.887 53.7383 198.621 53.5586C199.355 53.3711 200.207 53.2773 201.176 53.2773H203.133ZM215.543 57.4961C215.543 57.2539 215.473 57.0352 215.332 56.8398C215.191 56.6445 214.93 56.4648 214.547 56.3008C214.172 56.1289 213.629 55.9727 212.918 55.832C212.277 55.6914 211.68 55.5156 211.125 55.3047C210.578 55.0859 210.102 54.8242 209.695 54.5195C209.297 54.2148 208.984 53.8555 208.758 53.4414C208.531 53.0195 208.418 52.5391 208.418 52C208.418 51.4688 208.531 50.9688 208.758 50.5C208.992 50.0312 209.324 49.6172 209.754 49.2578C210.191 48.8906 210.723 48.6055 211.348 48.4023C211.98 48.1914 212.691 48.0859 213.48 48.0859C214.582 48.0859 215.527 48.2617 216.316 48.6133C217.113 48.9648 217.723 49.4492 218.145 50.0664C218.574 50.6758 218.789 51.3711 218.789 52.1523H215.414C215.414 51.8242 215.344 51.5312 215.203 51.2734C215.07 51.0078 214.859 50.8008 214.57 50.6523C214.289 50.4961 213.922 50.418 213.469 50.418C213.094 50.418 212.77 50.4844 212.496 50.6172C212.223 50.7422 212.012 50.9141 211.863 51.1328C211.723 51.3438 211.652 51.5781 211.652 51.8359C211.652 52.0312 211.691 52.207 211.77 52.3633C211.855 52.5117 211.992 52.6484 212.18 52.7734C212.367 52.8984 212.609 53.0156 212.906 53.125C213.211 53.2266 213.586 53.3203 214.031 53.4062C214.945 53.5938 215.762 53.8398 216.48 54.1445C217.199 54.4414 217.77 54.8477 218.191 55.3633C218.613 55.8711 218.824 56.5391 218.824 57.3672C218.824 57.9297 218.699 58.4453 218.449 58.9141C218.199 59.3828 217.84 59.793 217.371 60.1445C216.902 60.4883 216.34 60.7578 215.684 60.9531C215.035 61.1406 214.305 61.2344 213.492 61.2344C212.312 61.2344 211.312 61.0234 210.492 60.6016C209.68 60.1797 209.062 59.6445 208.641 58.9961C208.227 58.3398 208.02 57.668 208.02 56.9805H211.219C211.234 57.4414 211.352 57.8125 211.57 58.0938C211.797 58.375 212.082 58.5781 212.426 58.7031C212.777 58.8281 213.156 58.8906 213.562 58.8906C214 58.8906 214.363 58.832 214.652 58.7148C214.941 58.5898 215.16 58.4258 215.309 58.2227C215.465 58.0117 215.543 57.7695 215.543 57.4961ZM227.227 48.3203V50.7109H219.844V48.3203H227.227ZM221.672 45.1914H225.047V57.1797C225.047 57.5469 225.094 57.8281 225.188 58.0234C225.289 58.2188 225.438 58.3555 225.633 58.4336C225.828 58.5039 226.074 58.5391 226.371 58.5391C226.582 58.5391 226.77 58.5312 226.934 58.5156C227.105 58.4922 227.25 58.4688 227.367 58.4453L227.379 60.9297C227.09 61.0234 226.777 61.0977 226.441 61.1523C226.105 61.207 225.734 61.2344 225.328 61.2344C224.586 61.2344 223.938 61.1133 223.383 60.8711C222.836 60.6211 222.414 60.2227 222.117 59.6758C221.82 59.1289 221.672 58.4102 221.672 57.5195V45.1914ZM234.984 61.2344C234 61.2344 233.117 61.0781 232.336 60.7656C231.555 60.4453 230.891 60.0039 230.344 59.4414C229.805 58.8789 229.391 58.2266 229.102 57.4844C228.812 56.7344 228.668 55.9375 228.668 55.0938V54.625C228.668 53.6641 228.805 52.7852 229.078 51.9883C229.352 51.1914 229.742 50.5 230.25 49.9141C230.766 49.3281 231.391 48.8789 232.125 48.5664C232.859 48.2461 233.688 48.0859 234.609 48.0859C235.508 48.0859 236.305 48.2344 237 48.5312C237.695 48.8281 238.277 49.25 238.746 49.7969C239.223 50.3438 239.582 51 239.824 51.7656C240.066 52.5234 240.188 53.3672 240.188 54.2969V55.7031H230.109V53.4531H236.871V53.1953C236.871 52.7266 236.785 52.3086 236.613 51.9414C236.449 51.5664 236.199 51.2695 235.863 51.0508C235.527 50.832 235.098 50.7227 234.574 50.7227C234.129 50.7227 233.746 50.8203 233.426 51.0156C233.105 51.2109 232.844 51.4844 232.641 51.8359C232.445 52.1875 232.297 52.6016 232.195 53.0781C232.102 53.5469 232.055 54.0625 232.055 54.625V55.0938C232.055 55.6016 232.125 56.0703 232.266 56.5C232.414 56.9297 232.621 57.3008 232.887 57.6133C233.16 57.9258 233.488 58.168 233.871 58.3398C234.262 58.5117 234.703 58.5977 235.195 58.5977C235.805 58.5977 236.371 58.4805 236.895 58.2461C237.426 58.0039 237.883 57.6406 238.266 57.1562L239.906 58.9375C239.641 59.3203 239.277 59.6875 238.816 60.0391C238.363 60.3906 237.816 60.6797 237.176 60.9062C236.535 61.125 235.805 61.2344 234.984 61.2344ZM245.484 51.0859V61H242.109V48.3203H245.285L245.484 51.0859ZM249.305 48.2383L249.246 51.3672C249.082 51.3438 248.883 51.3242 248.648 51.3086C248.422 51.2852 248.215 51.2734 248.027 51.2734C247.551 51.2734 247.137 51.3359 246.785 51.4609C246.441 51.5781 246.152 51.7539 245.918 51.9883C245.691 52.2227 245.52 52.5078 245.402 52.8438C245.293 53.1797 245.23 53.5625 245.215 53.9922L244.535 53.7812C244.535 52.9609 244.617 52.207 244.781 51.5195C244.945 50.8242 245.184 50.2188 245.496 49.7031C245.816 49.1875 246.207 48.7891 246.668 48.5078C247.129 48.2266 247.656 48.0859 248.25 48.0859C248.438 48.0859 248.629 48.1016 248.824 48.1328C249.02 48.1562 249.18 48.1914 249.305 48.2383Z" fill="#888888"/>
<path d="M118.594 98.4219V104.75H101.086V98.4219H118.594ZM103.828 84.875V119H95.6016V84.875H103.828ZM124.125 84.875V119H115.922V84.875H124.125ZM127.992 106.578V106.086C127.992 104.227 128.258 102.516 128.789 100.953C129.32 99.375 130.102 98.0078 131.133 96.8516C132.164 95.6953 133.438 94.7969 134.953 94.1562C136.469 93.5 138.219 93.1719 140.203 93.1719C142.203 93.1719 143.961 93.5 145.477 94.1562C147.008 94.7969 148.289 95.6953 149.32 96.8516C150.352 98.0078 151.133 99.375 151.664 100.953C152.195 102.516 152.461 104.227 152.461 106.086V106.578C152.461 108.422 152.195 110.133 151.664 111.711C151.133 113.273 150.352 114.641 149.32 115.812C148.289 116.969 147.016 117.867 145.5 118.508C143.984 119.148 142.234 119.469 140.25 119.469C138.266 119.469 136.508 119.148 134.977 118.508C133.445 117.867 132.164 116.969 131.133 115.812C130.102 114.641 129.32 113.273 128.789 111.711C128.258 110.133 127.992 108.422 127.992 106.578ZM135.891 106.086V106.578C135.891 107.531 135.961 108.422 136.102 109.25C136.242 110.078 136.477 110.805 136.805 111.43C137.133 112.039 137.578 112.516 138.141 112.859C138.703 113.203 139.406 113.375 140.25 113.375C141.078 113.375 141.766 113.203 142.312 112.859C142.875 112.516 143.32 112.039 143.648 111.43C143.977 110.805 144.211 110.078 144.352 109.25C144.492 108.422 144.562 107.531 144.562 106.578V106.086C144.562 105.164 144.492 104.297 144.352 103.484C144.211 102.656 143.977 101.93 143.648 101.305C143.32 100.664 142.875 100.164 142.312 99.8047C141.75 99.4453 141.047 99.2656 140.203 99.2656C139.375 99.2656 138.68 99.4453 138.117 99.8047C137.57 100.164 137.133 100.664 136.805 101.305C136.477 101.93 136.242 102.656 136.102 103.484C135.961 104.297 135.891 105.164 135.891 106.086ZM163.688 111.453L168.375 93.6406H173.32L171.562 102.57L166.922 119H162.961L163.688 111.453ZM161.836 93.6406L164.742 111.312L165.07 119H160.266L154.266 93.6406H161.836ZM177.492 110.938L180.422 93.6406H187.992L182.039 119H177.234L177.492 110.938ZM173.883 93.6406L178.617 111.406L179.344 119H175.336L170.789 102.617L169.102 93.6406H173.883ZM218.297 84.875V119H210.07V84.875H218.297ZM228.562 84.875V91.2266H200.039V84.875H228.562ZM225.773 106.578V106.086C225.773 104.227 226.039 102.516 226.57 100.953C227.102 99.375 227.883 98.0078 228.914 96.8516C229.945 95.6953 231.219 94.7969 232.734 94.1562C234.25 93.5 236 93.1719 237.984 93.1719C239.984 93.1719 241.742 93.5 243.258 94.1562C244.789 94.7969 246.07 95.6953 247.102 96.8516C248.133 98.0078 248.914 99.375 249.445 100.953C249.977 102.516 250.242 104.227 250.242 106.086V106.578C250.242 108.422 249.977 110.133 249.445 111.711C248.914 113.273 248.133 114.641 247.102 115.812C246.07 116.969 244.797 117.867 243.281 118.508C241.766 119.148 240.016 119.469 238.031 119.469C236.047 119.469 234.289 119.148 232.758 118.508C231.227 117.867 229.945 116.969 228.914 115.812C227.883 114.641 227.102 113.273 226.57 111.711C226.039 110.133 225.773 108.422 225.773 106.578ZM233.672 106.086V106.578C233.672 107.531 233.742 108.422 233.883 109.25C234.023 110.078 234.258 110.805 234.586 111.43C234.914 112.039 235.359 112.516 235.922 112.859C236.484 113.203 237.188 113.375 238.031 113.375C238.859 113.375 239.547 113.203 240.094 112.859C240.656 112.516 241.102 112.039 241.43 111.43C241.758 110.805 241.992 110.078 242.133 109.25C242.273 108.422 242.344 107.531 242.344 106.578V106.086C242.344 105.164 242.273 104.297 242.133 103.484C241.992 102.656 241.758 101.93 241.43 101.305C241.102 100.664 240.656 100.164 240.094 99.8047C239.531 99.4453 238.828 99.2656 237.984 99.2656C237.156 99.2656 236.461 99.4453 235.898 99.8047C235.352 100.164 234.914 100.664 234.586 101.305C234.258 101.93 234.023 102.656 233.883 103.484C233.742 104.297 233.672 105.164 233.672 106.086ZM266.086 84.875H279.516C282.141 84.875 284.422 85.2656 286.359 86.0469C288.297 86.8281 289.789 87.9844 290.836 89.5156C291.898 91.0469 292.43 92.9375 292.43 95.1875C292.43 97.1406 292.125 98.7734 291.516 100.086C290.906 101.398 290.055 102.484 288.961 103.344C287.883 104.188 286.625 104.883 285.188 105.43L282.492 106.953H271.219L271.172 100.602H279.516C280.562 100.602 281.43 100.414 282.117 100.039C282.805 99.6641 283.32 99.1328 283.664 98.4453C284.023 97.7422 284.203 96.9062 284.203 95.9375C284.203 94.9531 284.023 94.1094 283.664 93.4062C283.305 92.7031 282.773 92.1641 282.07 91.7891C281.383 91.4141 280.531 91.2266 279.516 91.2266H274.312V119H266.086V84.875ZM284.766 119L277.219 103.906L285.938 103.859L293.578 118.648V119H284.766ZM311.836 112.836V93.6406H319.758V119H312.352L311.836 112.836ZM312.586 107.68L314.648 107.633C314.648 109.336 314.445 110.914 314.039 112.367C313.633 113.805 313.031 115.055 312.234 116.117C311.453 117.18 310.484 118.008 309.328 118.602C308.188 119.18 306.867 119.469 305.367 119.469C304.117 119.469 302.969 119.297 301.922 118.953C300.891 118.594 300 118.039 299.25 117.289C298.5 116.523 297.914 115.547 297.492 114.359C297.086 113.156 296.883 111.719 296.883 110.047V93.6406H304.781V110.094C304.781 110.656 304.852 111.141 304.992 111.547C305.133 111.953 305.336 112.297 305.602 112.578C305.867 112.844 306.195 113.047 306.586 113.188C306.992 113.312 307.453 113.375 307.969 113.375C309.156 113.375 310.086 113.125 310.758 112.625C311.43 112.125 311.898 111.445 312.164 110.586C312.445 109.727 312.586 108.758 312.586 107.68ZM331.875 99.0547V119H323.977V93.6406H331.383L331.875 99.0547ZM330.938 105.453L329.086 105.5C329.086 103.562 329.32 101.836 329.789 100.32C330.258 98.7891 330.922 97.4922 331.781 96.4297C332.641 95.3672 333.664 94.5625 334.852 94.0156C336.055 93.4531 337.391 93.1719 338.859 93.1719C340.031 93.1719 341.102 93.3438 342.07 93.6875C343.055 94.0312 343.898 94.5859 344.602 95.3516C345.32 96.1172 345.867 97.1328 346.242 98.3984C346.633 99.6484 346.828 101.195 346.828 103.039V119H338.883V103.016C338.883 102 338.742 101.227 338.461 100.695C338.18 100.148 337.773 99.7734 337.242 99.5703C336.711 99.3672 336.062 99.2656 335.297 99.2656C334.484 99.2656 333.797 99.4219 333.234 99.7344C332.672 100.047 332.219 100.484 331.875 101.047C331.547 101.594 331.305 102.242 331.148 102.992C331.008 103.742 330.938 104.562 330.938 105.453ZM363.773 108.195H357.047C357.047 106.82 357.141 105.609 357.328 104.562C357.531 103.5 357.875 102.547 358.359 101.703C358.844 100.859 359.5 100.078 360.328 99.3594C361.062 98.75 361.695 98.1641 362.227 97.6016C362.758 97.0391 363.164 96.4688 363.445 95.8906C363.727 95.3125 363.867 94.6953 363.867 94.0391C363.867 93.2266 363.75 92.5625 363.516 92.0469C363.297 91.5312 362.961 91.1484 362.508 90.8984C362.07 90.6328 361.516 90.5 360.844 90.5C360.297 90.5 359.781 90.6328 359.297 90.8984C358.828 91.1641 358.445 91.5781 358.148 92.1406C357.852 92.6875 357.688 93.4141 357.656 94.3203H349.711C349.758 91.9922 350.273 90.1016 351.258 88.6484C352.258 87.1797 353.586 86.1094 355.242 85.4375C356.914 84.75 358.781 84.4062 360.844 84.4062C363.125 84.4062 365.086 84.7578 366.727 85.4609C368.367 86.1641 369.625 87.2109 370.5 88.6016C371.375 89.9766 371.812 91.6719 371.812 93.6875C371.812 95.0312 371.555 96.2031 371.039 97.2031C370.539 98.1875 369.859 99.1094 369 99.9688C368.156 100.812 367.211 101.719 366.164 102.688C365.258 103.484 364.641 104.297 364.312 105.125C363.984 105.938 363.805 106.961 363.773 108.195ZM356.086 115.32C356.086 114.195 356.492 113.258 357.305 112.508C358.117 111.742 359.172 111.359 360.469 111.359C361.766 111.359 362.82 111.742 363.633 112.508C364.445 113.258 364.852 114.195 364.852 115.32C364.852 116.445 364.445 117.391 363.633 118.156C362.82 118.906 361.766 119.281 360.469 119.281C359.172 119.281 358.117 118.906 357.305 118.156C356.492 117.391 356.086 116.445 356.086 115.32Z" fill="black"/>
<path d="M1134 0H1348C1356.28 0 1363 6.71573 1363 15V148C1363 156.284 1356.28 163 1348 163H1134V0Z" fill="#59656F"/>
<path d="M1260.62 78.8847C1263.81 78.8847 1266.93 79.805 1269.59 81.5293C1272.25 83.2536 1274.32 85.7044 1275.54 88.5718C1276.76 91.4391 1277.08 94.5943 1276.46 97.6383C1275.84 100.682 1274.3 103.478 1272.04 105.673C1269.78 107.868 1266.9 109.362 1263.77 109.968C1260.63 110.573 1257.39 110.262 1254.43 109.075C1251.48 107.887 1248.96 105.876 1247.18 103.295C1245.41 100.714 1244.46 97.6806 1244.46 94.5769C1244.46 90.4151 1246.16 86.4237 1249.19 83.4808C1252.22 80.538 1256.33 78.8847 1260.62 78.8847ZM1260.62 73.6539C1256.36 73.6539 1252.19 74.881 1248.65 77.1801C1245.11 79.4791 1242.35 82.7469 1240.72 86.57C1239.09 90.3932 1238.66 94.6001 1239.49 98.6588C1240.32 102.717 1242.37 106.446 1245.39 109.372C1248.4 112.298 1252.24 114.291 1256.41 115.098C1260.59 115.905 1264.92 115.491 1268.86 113.907C1272.79 112.324 1276.16 109.642 1278.52 106.201C1280.89 102.76 1282.15 98.7151 1282.15 94.5769C1282.15 89.0278 1279.88 83.706 1275.85 79.7821C1271.81 75.8583 1266.33 73.6539 1260.62 73.6539Z" fill="white"/>
<path d="M1274.08 47.5H1220.23C1218.8 47.5 1217.43 48.0511 1216.42 49.0321C1215.41 50.013 1214.85 51.3435 1214.85 52.7307V105.038C1214.85 106.426 1215.41 107.756 1216.42 108.737C1217.43 109.718 1218.8 110.269 1220.23 110.269H1231V105.038H1220.23V68.423H1279.46V52.7307C1279.46 51.3435 1278.89 50.013 1277.88 49.0321C1276.87 48.0511 1275.5 47.5 1274.08 47.5ZM1220.23 63.1922V52.7307H1274.08V63.1922H1220.23Z" fill="white"/>
<path d="M1255.23 86.731V102.423L1268.69 94.5771L1255.23 86.731Z" fill="white"/>
</svg>
