<svg width="1363" height="163" viewBox="0 0 1363 163" fill="none" xmlns="http://www.w3.org/2000/svg">
<path d="M0 15C0 6.71573 6.71573 0 15 0H37V163H15C6.71573 163 0 156.284 0 148V15Z" fill="#424242"/>
<rect width="1097" height="163" transform="translate(37)" fill="#F0F0F0"/>
<path d="M101.906 53.9219L94.3945 51.2383V48.0859L104.602 52.375V54.6367L101.906 53.9219ZM94.3945 56.1719L101.918 53.4297L104.602 52.7852V55.0352L94.3945 59.3242V56.1719ZM121.781 56.5352C121.781 56.2305 121.734 55.957 121.641 55.7148C121.555 55.4648 121.391 55.2383 121.148 55.0352C120.906 54.8242 120.566 54.6172 120.129 54.4141C119.691 54.2109 119.125 54 118.43 53.7812C117.656 53.5312 116.922 53.25 116.227 52.9375C115.539 52.625 114.93 52.2617 114.398 51.8477C113.875 51.4258 113.461 50.9375 113.156 50.3828C112.859 49.8281 112.711 49.1836 112.711 48.4492C112.711 47.7383 112.867 47.0938 113.18 46.5156C113.492 45.9297 113.93 45.4297 114.492 45.0156C115.055 44.5938 115.719 44.2695 116.484 44.043C117.258 43.8164 118.105 43.7031 119.027 43.7031C120.285 43.7031 121.383 43.9297 122.32 44.3828C123.258 44.8359 123.984 45.457 124.5 46.2461C125.023 47.0352 125.285 47.9375 125.285 48.9531H121.793C121.793 48.4531 121.688 48.0156 121.477 47.6406C121.273 47.2578 120.961 46.957 120.539 46.7383C120.125 46.5195 119.602 46.4102 118.969 46.4102C118.359 46.4102 117.852 46.5039 117.445 46.6914C117.039 46.8711 116.734 47.1172 116.531 47.4297C116.328 47.7344 116.227 48.0781 116.227 48.4609C116.227 48.75 116.297 49.0117 116.438 49.2461C116.586 49.4805 116.805 49.6992 117.094 49.9023C117.383 50.1055 117.738 50.2969 118.16 50.4766C118.582 50.6562 119.07 50.832 119.625 51.0039C120.555 51.2852 121.371 51.6016 122.074 51.9531C122.785 52.3047 123.379 52.6992 123.855 53.1367C124.332 53.5742 124.691 54.0703 124.934 54.625C125.176 55.1797 125.297 55.8086 125.297 56.5117C125.297 57.2539 125.152 57.918 124.863 58.5039C124.574 59.0898 124.156 59.5859 123.609 59.9922C123.062 60.3984 122.41 60.707 121.652 60.918C120.895 61.1289 120.047 61.2344 119.109 61.2344C118.266 61.2344 117.434 61.125 116.613 60.9062C115.793 60.6797 115.047 60.3398 114.375 59.8867C113.711 59.4336 113.18 58.8555 112.781 58.1523C112.383 57.4492 112.184 56.6172 112.184 55.6562H115.711C115.711 56.1875 115.793 56.6367 115.957 57.0039C116.121 57.3711 116.352 57.668 116.648 57.8945C116.953 58.1211 117.312 58.2852 117.727 58.3867C118.148 58.4883 118.609 58.5391 119.109 58.5391C119.719 58.5391 120.219 58.4531 120.609 58.2812C121.008 58.1094 121.301 57.8711 121.488 57.5664C121.684 57.2617 121.781 56.918 121.781 56.5352ZM130.77 43V61H127.395V43H130.77ZM130.289 54.2148H129.363C129.371 53.332 129.488 52.5195 129.715 51.7773C129.941 51.0273 130.266 50.3789 130.688 49.832C131.109 49.2773 131.613 48.8477 132.199 48.543C132.793 48.2383 133.449 48.0859 134.168 48.0859C134.793 48.0859 135.359 48.1758 135.867 48.3555C136.383 48.5273 136.824 48.8086 137.191 49.1992C137.566 49.582 137.855 50.0859 138.059 50.7109C138.262 51.3359 138.363 52.0938 138.363 52.9844V61H134.965V52.9609C134.965 52.3984 134.883 51.957 134.719 51.6367C134.562 51.3086 134.332 51.0781 134.027 50.9453C133.73 50.8047 133.363 50.7344 132.926 50.7344C132.441 50.7344 132.027 50.8242 131.684 51.0039C131.348 51.1836 131.078 51.4336 130.875 51.7539C130.672 52.0664 130.523 52.4336 130.43 52.8555C130.336 53.2773 130.289 53.7305 130.289 54.2148ZM146.766 61.2344C145.781 61.2344 144.898 61.0781 144.117 60.7656C143.336 60.4453 142.672 60.0039 142.125 59.4414C141.586 58.8789 141.172 58.2266 140.883 57.4844C140.594 56.7344 140.449 55.9375 140.449 55.0938V54.625C140.449 53.6641 140.586 52.7852 140.859 51.9883C141.133 51.1914 141.523 50.5 142.031 49.9141C142.547 49.3281 143.172 48.8789 143.906 48.5664C144.641 48.2461 145.469 48.0859 146.391 48.0859C147.289 48.0859 148.086 48.2344 148.781 48.5312C149.477 48.8281 150.059 49.25 150.527 49.7969C151.004 50.3438 151.363 51 151.605 51.7656C151.848 52.5234 151.969 53.3672 151.969 54.2969V55.7031H141.891V53.4531H148.652V53.1953C148.652 52.7266 148.566 52.3086 148.395 51.9414C148.23 51.5664 147.98 51.2695 147.645 51.0508C147.309 50.832 146.879 50.7227 146.355 50.7227C145.91 50.7227 145.527 50.8203 145.207 51.0156C144.887 51.2109 144.625 51.4844 144.422 51.8359C144.227 52.1875 144.078 52.6016 143.977 53.0781C143.883 53.5469 143.836 54.0625 143.836 54.625V55.0938C143.836 55.6016 143.906 56.0703 144.047 56.5C144.195 56.9297 144.402 57.3008 144.668 57.6133C144.941 57.9258 145.27 58.168 145.652 58.3398C146.043 58.5117 146.484 58.5977 146.977 58.5977C147.586 58.5977 148.152 58.4805 148.676 58.2461C149.207 58.0039 149.664 57.6406 150.047 57.1562L151.688 58.9375C151.422 59.3203 151.059 59.6875 150.598 60.0391C150.145 60.3906 149.598 60.6797 148.957 60.9062C148.316 61.125 147.586 61.2344 146.766 61.2344ZM157.453 43V61H154.066V43H157.453ZM164.543 61H161.145V47.1953C161.145 46.2344 161.332 45.4258 161.707 44.7695C162.09 44.1055 162.625 43.6055 163.312 43.2695C164.008 42.9258 164.832 42.7539 165.785 42.7539C166.098 42.7539 166.398 42.7773 166.688 42.8242C166.977 42.8633 167.258 42.9141 167.531 42.9766L167.496 45.5195C167.348 45.4805 167.191 45.4531 167.027 45.4375C166.863 45.4219 166.672 45.4141 166.453 45.4141C166.047 45.4141 165.699 45.4844 165.41 45.625C165.129 45.7578 164.914 45.957 164.766 46.2227C164.617 46.4883 164.543 46.8125 164.543 47.1953V61ZM167.074 48.3203V50.7109H159.258V48.3203H167.074ZM176.637 43.9375H179.613L183.996 56.4648L188.379 43.9375H191.355L185.191 61H182.801L176.637 43.9375ZM175.031 43.9375H177.996L178.535 56.1484V61H175.031V43.9375ZM189.996 43.9375H192.973V61H189.457V56.1484L189.996 43.9375ZM202.688 58.1406V52.4922C202.688 52.0859 202.621 51.7383 202.488 51.4492C202.355 51.1523 202.148 50.9219 201.867 50.7578C201.594 50.5938 201.238 50.5117 200.801 50.5117C200.426 50.5117 200.102 50.5781 199.828 50.7109C199.555 50.8359 199.344 51.0195 199.195 51.2617C199.047 51.4961 198.973 51.7734 198.973 52.0938H195.598C195.598 51.5547 195.723 51.043 195.973 50.5586C196.223 50.0742 196.586 49.6484 197.062 49.2812C197.539 48.9062 198.105 48.6133 198.762 48.4023C199.426 48.1914 200.168 48.0859 200.988 48.0859C201.973 48.0859 202.848 48.25 203.613 48.5781C204.379 48.9062 204.98 49.3984 205.418 50.0547C205.863 50.7109 206.086 51.5312 206.086 52.5156V57.9414C206.086 58.6367 206.129 59.207 206.215 59.6523C206.301 60.0898 206.426 60.4727 206.59 60.8008V61H203.18C203.016 60.6562 202.891 60.2266 202.805 59.7109C202.727 59.1875 202.688 58.6641 202.688 58.1406ZM203.133 53.2773L203.156 55.1875H201.27C200.824 55.1875 200.438 55.2383 200.109 55.3398C199.781 55.4414 199.512 55.5859 199.301 55.7734C199.09 55.9531 198.934 56.1641 198.832 56.4062C198.738 56.6484 198.691 56.9141 198.691 57.2031C198.691 57.4922 198.758 57.7539 198.891 57.9883C199.023 58.2148 199.215 58.3945 199.465 58.5273C199.715 58.6523 200.008 58.7148 200.344 58.7148C200.852 58.7148 201.293 58.6133 201.668 58.4102C202.043 58.207 202.332 57.957 202.535 57.6602C202.746 57.3633 202.855 57.082 202.863 56.8164L203.754 58.2461C203.629 58.5664 203.457 58.8984 203.238 59.2422C203.027 59.5859 202.758 59.9102 202.43 60.2148C202.102 60.5117 201.707 60.7578 201.246 60.9531C200.785 61.1406 200.238 61.2344 199.605 61.2344C198.801 61.2344 198.07 61.0742 197.414 60.7539C196.766 60.4258 196.25 59.9766 195.867 59.4062C195.492 58.8281 195.305 58.1719 195.305 57.4375C195.305 56.7734 195.43 56.1836 195.68 55.668C195.93 55.1523 196.297 54.7188 196.781 54.3672C197.273 54.0078 197.887 53.7383 198.621 53.5586C199.355 53.3711 200.207 53.2773 201.176 53.2773H203.133ZM215.543 57.4961C215.543 57.2539 215.473 57.0352 215.332 56.8398C215.191 56.6445 214.93 56.4648 214.547 56.3008C214.172 56.1289 213.629 55.9727 212.918 55.832C212.277 55.6914 211.68 55.5156 211.125 55.3047C210.578 55.0859 210.102 54.8242 209.695 54.5195C209.297 54.2148 208.984 53.8555 208.758 53.4414C208.531 53.0195 208.418 52.5391 208.418 52C208.418 51.4688 208.531 50.9688 208.758 50.5C208.992 50.0312 209.324 49.6172 209.754 49.2578C210.191 48.8906 210.723 48.6055 211.348 48.4023C211.98 48.1914 212.691 48.0859 213.48 48.0859C214.582 48.0859 215.527 48.2617 216.316 48.6133C217.113 48.9648 217.723 49.4492 218.145 50.0664C218.574 50.6758 218.789 51.3711 218.789 52.1523H215.414C215.414 51.8242 215.344 51.5312 215.203 51.2734C215.07 51.0078 214.859 50.8008 214.57 50.6523C214.289 50.4961 213.922 50.418 213.469 50.418C213.094 50.418 212.77 50.4844 212.496 50.6172C212.223 50.7422 212.012 50.9141 211.863 51.1328C211.723 51.3438 211.652 51.5781 211.652 51.8359C211.652 52.0312 211.691 52.207 211.77 52.3633C211.855 52.5117 211.992 52.6484 212.18 52.7734C212.367 52.8984 212.609 53.0156 212.906 53.125C213.211 53.2266 213.586 53.3203 214.031 53.4062C214.945 53.5938 215.762 53.8398 216.48 54.1445C217.199 54.4414 217.77 54.8477 218.191 55.3633C218.613 55.8711 218.824 56.5391 218.824 57.3672C218.824 57.9297 218.699 58.4453 218.449 58.9141C218.199 59.3828 217.84 59.793 217.371 60.1445C216.902 60.4883 216.34 60.7578 215.684 60.9531C215.035 61.1406 214.305 61.2344 213.492 61.2344C212.312 61.2344 211.312 61.0234 210.492 60.6016C209.68 60.1797 209.062 59.6445 208.641 58.9961C208.227 58.3398 208.02 57.668 208.02 56.9805H211.219C211.234 57.4414 211.352 57.8125 211.57 58.0938C211.797 58.375 212.082 58.5781 212.426 58.7031C212.777 58.8281 213.156 58.8906 213.562 58.8906C214 58.8906 214.363 58.832 214.652 58.7148C214.941 58.5898 215.16 58.4258 215.309 58.2227C215.465 58.0117 215.543 57.7695 215.543 57.4961ZM227.227 48.3203V50.7109H219.844V48.3203H227.227ZM221.672 45.1914H225.047V57.1797C225.047 57.5469 225.094 57.8281 225.188 58.0234C225.289 58.2188 225.438 58.3555 225.633 58.4336C225.828 58.5039 226.074 58.5391 226.371 58.5391C226.582 58.5391 226.77 58.5312 226.934 58.5156C227.105 58.4922 227.25 58.4688 227.367 58.4453L227.379 60.9297C227.09 61.0234 226.777 61.0977 226.441 61.1523C226.105 61.207 225.734 61.2344 225.328 61.2344C224.586 61.2344 223.938 61.1133 223.383 60.8711C222.836 60.6211 222.414 60.2227 222.117 59.6758C221.82 59.1289 221.672 58.4102 221.672 57.5195V45.1914ZM234.984 61.2344C234 61.2344 233.117 61.0781 232.336 60.7656C231.555 60.4453 230.891 60.0039 230.344 59.4414C229.805 58.8789 229.391 58.2266 229.102 57.4844C228.812 56.7344 228.668 55.9375 228.668 55.0938V54.625C228.668 53.6641 228.805 52.7852 229.078 51.9883C229.352 51.1914 229.742 50.5 230.25 49.9141C230.766 49.3281 231.391 48.8789 232.125 48.5664C232.859 48.2461 233.688 48.0859 234.609 48.0859C235.508 48.0859 236.305 48.2344 237 48.5312C237.695 48.8281 238.277 49.25 238.746 49.7969C239.223 50.3438 239.582 51 239.824 51.7656C240.066 52.5234 240.188 53.3672 240.188 54.2969V55.7031H230.109V53.4531H236.871V53.1953C236.871 52.7266 236.785 52.3086 236.613 51.9414C236.449 51.5664 236.199 51.2695 235.863 51.0508C235.527 50.832 235.098 50.7227 234.574 50.7227C234.129 50.7227 233.746 50.8203 233.426 51.0156C233.105 51.2109 232.844 51.4844 232.641 51.8359C232.445 52.1875 232.297 52.6016 232.195 53.0781C232.102 53.5469 232.055 54.0625 232.055 54.625V55.0938C232.055 55.6016 232.125 56.0703 232.266 56.5C232.414 56.9297 232.621 57.3008 232.887 57.6133C233.16 57.9258 233.488 58.168 233.871 58.3398C234.262 58.5117 234.703 58.5977 235.195 58.5977C235.805 58.5977 236.371 58.4805 236.895 58.2461C237.426 58.0039 237.883 57.6406 238.266 57.1562L239.906 58.9375C239.641 59.3203 239.277 59.6875 238.816 60.0391C238.363 60.3906 237.816 60.6797 237.176 60.9062C236.535 61.125 235.805 61.2344 234.984 61.2344ZM245.484 51.0859V61H242.109V48.3203H245.285L245.484 51.0859ZM249.305 48.2383L249.246 51.3672C249.082 51.3438 248.883 51.3242 248.648 51.3086C248.422 51.2852 248.215 51.2734 248.027 51.2734C247.551 51.2734 247.137 51.3359 246.785 51.4609C246.441 51.5781 246.152 51.7539 245.918 51.9883C245.691 52.2227 245.52 52.5078 245.402 52.8438C245.293 53.1797 245.23 53.5625 245.215 53.9922L244.535 53.7812C244.535 52.9609 244.617 52.207 244.781 51.5195C244.945 50.8242 245.184 50.2188 245.496 49.7031C245.816 49.1875 246.207 48.7891 246.668 48.5078C247.129 48.2266 247.656 48.0859 248.25 48.0859C248.438 48.0859 248.629 48.1016 248.824 48.1328C249.02 48.1562 249.18 48.1914 249.305 48.2383Z" fill="#888888"/>
<path d="M114.117 84.875H122.344V107.164C122.344 109.82 121.789 112.07 120.68 113.914C119.57 115.742 118.016 117.125 116.016 118.062C114.016 119 111.664 119.469 108.961 119.469C106.289 119.469 103.938 119 101.906 118.062C99.8906 117.125 98.3125 115.742 97.1719 113.914C96.0469 112.07 95.4844 109.82 95.4844 107.164V84.875H103.734V107.164C103.734 108.57 103.938 109.719 104.344 110.609C104.75 111.484 105.344 112.125 106.125 112.531C106.906 112.938 107.852 113.141 108.961 113.141C110.086 113.141 111.031 112.938 111.797 112.531C112.562 112.125 113.141 111.484 113.531 110.609C113.922 109.719 114.117 108.57 114.117 107.164V84.875ZM134.906 99.0547V119H127.008V93.6406H134.414L134.906 99.0547ZM133.969 105.453L132.117 105.5C132.117 103.562 132.352 101.836 132.82 100.32C133.289 98.7891 133.953 97.4922 134.812 96.4297C135.672 95.3672 136.695 94.5625 137.883 94.0156C139.086 93.4531 140.422 93.1719 141.891 93.1719C143.062 93.1719 144.133 93.3438 145.102 93.6875C146.086 94.0312 146.93 94.5859 147.633 95.3516C148.352 96.1172 148.898 97.1328 149.273 98.3984C149.664 99.6484 149.859 101.195 149.859 103.039V119H141.914V103.016C141.914 102 141.773 101.227 141.492 100.695C141.211 100.148 140.805 99.7734 140.273 99.5703C139.742 99.3672 139.094 99.2656 138.328 99.2656C137.516 99.2656 136.828 99.4219 136.266 99.7344C135.703 100.047 135.25 100.484 134.906 101.047C134.578 101.594 134.336 102.242 134.18 102.992C134.039 103.742 133.969 104.562 133.969 105.453ZM162.586 93.6406V119H154.664V93.6406H162.586ZM154.195 87.1016C154.195 85.9766 154.602 85.0547 155.414 84.3359C156.227 83.6172 157.281 83.2578 158.578 83.2578C159.875 83.2578 160.93 83.6172 161.742 84.3359C162.555 85.0547 162.961 85.9766 162.961 87.1016C162.961 88.2266 162.555 89.1484 161.742 89.8672C160.93 90.5859 159.875 90.9453 158.578 90.9453C157.281 90.9453 156.227 90.5859 155.414 89.8672C154.602 89.1484 154.195 88.2266 154.195 87.1016ZM180.82 93.6406V99.125H165.539V93.6406H180.82ZM168.75 87.3359H176.648V110.727C176.648 111.398 176.727 111.922 176.883 112.297C177.039 112.656 177.305 112.914 177.68 113.07C178.07 113.211 178.586 113.281 179.227 113.281C179.68 113.281 180.055 113.273 180.352 113.258C180.648 113.227 180.93 113.188 181.195 113.141V118.789C180.523 119.008 179.82 119.172 179.086 119.281C178.352 119.406 177.57 119.469 176.742 119.469C175.055 119.469 173.609 119.203 172.406 118.672C171.219 118.141 170.312 117.305 169.688 116.164C169.062 115.023 168.75 113.539 168.75 111.711V87.3359ZM211.406 84.875V119H203.18V84.875H211.406ZM221.672 84.875V91.2266H193.148V84.875H221.672ZM234.961 119.469C232.898 119.469 231.055 119.148 229.43 118.508C227.805 117.852 226.43 116.953 225.305 115.812C224.195 114.672 223.344 113.359 222.75 111.875C222.172 110.391 221.883 108.82 221.883 107.164V106.273C221.883 104.414 222.141 102.695 222.656 101.117C223.172 99.5234 223.938 98.1328 224.953 96.9453C225.969 95.7578 227.242 94.8359 228.773 94.1797C230.305 93.5078 232.086 93.1719 234.117 93.1719C235.914 93.1719 237.523 93.4609 238.945 94.0391C240.367 94.6172 241.57 95.4453 242.555 96.5234C243.555 97.6016 244.312 98.9062 244.828 100.438C245.359 101.969 245.625 103.688 245.625 105.594V108.805H224.906V103.859H237.914V103.25C237.93 102.406 237.781 101.688 237.469 101.094C237.172 100.5 236.734 100.047 236.156 99.7344C235.578 99.4219 234.875 99.2656 234.047 99.2656C233.188 99.2656 232.477 99.4531 231.914 99.8281C231.367 100.203 230.938 100.719 230.625 101.375C230.328 102.016 230.117 102.758 229.992 103.602C229.867 104.445 229.805 105.336 229.805 106.273V107.164C229.805 108.102 229.93 108.953 230.18 109.719C230.445 110.484 230.82 111.141 231.305 111.688C231.805 112.219 232.398 112.633 233.086 112.93C233.789 113.227 234.586 113.375 235.477 113.375C236.555 113.375 237.617 113.172 238.664 112.766C239.711 112.359 240.609 111.688 241.359 110.75L244.945 115.016C244.43 115.75 243.695 116.461 242.742 117.148C241.805 117.836 240.68 118.398 239.367 118.836C238.055 119.258 236.586 119.469 234.961 119.469ZM262.125 111.875C262.125 111.438 261.977 111.062 261.68 110.75C261.398 110.422 260.898 110.125 260.18 109.859C259.461 109.578 258.453 109.297 257.156 109.016C255.922 108.75 254.758 108.398 253.664 107.961C252.586 107.523 251.641 106.992 250.828 106.367C250.016 105.742 249.375 105 248.906 104.141C248.453 103.281 248.227 102.297 248.227 101.188C248.227 100.109 248.453 99.0938 248.906 98.1406C249.375 97.1719 250.055 96.3203 250.945 95.5859C251.852 94.8359 252.953 94.25 254.25 93.8281C255.547 93.3906 257.023 93.1719 258.68 93.1719C260.961 93.1719 262.93 93.5234 264.586 94.2266C266.242 94.9141 267.516 95.8828 268.406 97.1328C269.312 98.3672 269.766 99.7969 269.766 101.422H261.867C261.867 100.781 261.758 100.234 261.539 99.7812C261.336 99.3281 261 98.9844 260.531 98.75C260.062 98.5 259.438 98.375 258.656 98.375C258.109 98.375 257.609 98.4766 257.156 98.6797C256.719 98.8828 256.367 99.1641 256.102 99.5234C255.836 99.8828 255.703 100.305 255.703 100.789C255.703 101.133 255.781 101.445 255.938 101.727C256.109 101.992 256.367 102.242 256.711 102.477C257.055 102.695 257.492 102.898 258.023 103.086C258.555 103.258 259.195 103.414 259.945 103.555C261.648 103.867 263.242 104.312 264.727 104.891C266.211 105.469 267.414 106.289 268.336 107.352C269.273 108.414 269.742 109.844 269.742 111.641C269.742 112.766 269.484 113.805 268.969 114.758C268.453 115.695 267.711 116.523 266.742 117.242C265.773 117.945 264.609 118.492 263.25 118.883C261.891 119.273 260.359 119.469 258.656 119.469C256.234 119.469 254.188 119.039 252.516 118.18C250.844 117.305 249.578 116.211 248.719 114.898C247.875 113.57 247.453 112.227 247.453 110.867H254.812C254.844 111.648 255.031 112.289 255.375 112.789C255.734 113.289 256.211 113.656 256.805 113.891C257.398 114.125 258.086 114.242 258.867 114.242C259.586 114.242 260.18 114.141 260.648 113.938C261.133 113.734 261.5 113.461 261.75 113.117C262 112.758 262.125 112.344 262.125 111.875ZM286.805 93.6406V99.125H271.523V93.6406H286.805ZM274.734 87.3359H282.633V110.727C282.633 111.398 282.711 111.922 282.867 112.297C283.023 112.656 283.289 112.914 283.664 113.07C284.055 113.211 284.57 113.281 285.211 113.281C285.664 113.281 286.039 113.273 286.336 113.258C286.633 113.227 286.914 113.188 287.18 113.141V118.789C286.508 119.008 285.805 119.172 285.07 119.281C284.336 119.406 283.555 119.469 282.727 119.469C281.039 119.469 279.594 119.203 278.391 118.672C277.203 118.141 276.297 117.305 275.672 116.164C275.047 115.023 274.734 113.539 274.734 111.711V87.3359ZM298.289 93.6406V119H290.367V93.6406H298.289ZM289.898 87.1016C289.898 85.9766 290.305 85.0547 291.117 84.3359C291.93 83.6172 292.984 83.2578 294.281 83.2578C295.578 83.2578 296.633 83.6172 297.445 84.3359C298.258 85.0547 298.664 85.9766 298.664 87.1016C298.664 88.2266 298.258 89.1484 297.445 89.8672C296.633 90.5859 295.578 90.9453 294.281 90.9453C292.984 90.9453 291.93 90.5859 291.117 89.8672C290.305 89.1484 289.898 88.2266 289.898 87.1016ZM310.922 99.0547V119H303.023V93.6406H310.43L310.922 99.0547ZM309.984 105.453L308.133 105.5C308.133 103.562 308.367 101.836 308.836 100.32C309.305 98.7891 309.969 97.4922 310.828 96.4297C311.688 95.3672 312.711 94.5625 313.898 94.0156C315.102 93.4531 316.438 93.1719 317.906 93.1719C319.078 93.1719 320.148 93.3438 321.117 93.6875C322.102 94.0312 322.945 94.5859 323.648 95.3516C324.367 96.1172 324.914 97.1328 325.289 98.3984C325.68 99.6484 325.875 101.195 325.875 103.039V119H317.93V103.016C317.93 102 317.789 101.227 317.508 100.695C317.227 100.148 316.82 99.7734 316.289 99.5703C315.758 99.3672 315.109 99.2656 314.344 99.2656C313.531 99.2656 312.844 99.4219 312.281 99.7344C311.719 100.047 311.266 100.484 310.922 101.047C310.594 101.594 310.352 102.242 310.195 102.992C310.055 103.742 309.984 104.562 309.984 105.453ZM346.195 93.6406H353.367V118.016C353.367 120.359 352.828 122.344 351.75 123.969C350.672 125.609 349.164 126.852 347.227 127.695C345.305 128.555 343.055 128.984 340.477 128.984C339.336 128.984 338.172 128.836 336.984 128.539C335.797 128.258 334.688 127.836 333.656 127.273C332.625 126.711 331.758 126.016 331.055 125.188L334.359 120.547C335 121.266 335.805 121.875 336.773 122.375C337.742 122.891 338.883 123.148 340.195 123.148C341.336 123.148 342.289 122.945 343.055 122.539C343.836 122.133 344.43 121.539 344.836 120.758C345.242 119.992 345.445 119.062 345.445 117.969V99.6406L346.195 93.6406ZM329.344 106.625V106.133C329.344 104.211 329.578 102.461 330.047 100.883C330.531 99.2891 331.219 97.9219 332.109 96.7812C333.016 95.625 334.109 94.7344 335.391 94.1094C336.672 93.4844 338.117 93.1719 339.727 93.1719C341.461 93.1719 342.883 93.5078 343.992 94.1797C345.117 94.8359 346.016 95.7578 346.688 96.9453C347.375 98.1328 347.906 99.5234 348.281 101.117C348.672 102.695 349 104.398 349.266 106.227V106.812C349 108.531 348.633 110.156 348.164 111.688C347.711 113.203 347.117 114.547 346.383 115.719C345.648 116.891 344.727 117.812 343.617 118.484C342.523 119.141 341.211 119.469 339.68 119.469C338.086 119.469 336.648 119.148 335.367 118.508C334.102 117.867 333.016 116.969 332.109 115.812C331.219 114.656 330.531 113.297 330.047 111.734C329.578 110.172 329.344 108.469 329.344 106.625ZM337.242 106.133V106.625C337.242 107.578 337.328 108.461 337.5 109.273C337.688 110.086 337.969 110.805 338.344 111.43C338.719 112.039 339.18 112.516 339.727 112.859C340.289 113.203 340.945 113.375 341.695 113.375C342.836 113.375 343.758 113.133 344.461 112.648C345.164 112.164 345.672 111.477 345.984 110.586C346.297 109.695 346.43 108.648 346.383 107.445V105.594C346.414 104.562 346.344 103.656 346.172 102.875C346 102.078 345.727 101.414 345.352 100.883C344.992 100.352 344.508 99.9531 343.898 99.6875C343.305 99.4062 342.586 99.2656 341.742 99.2656C341.008 99.2656 340.359 99.4375 339.797 99.7812C339.234 100.125 338.766 100.609 338.391 101.234C338.016 101.844 337.727 102.57 337.523 103.414C337.336 104.242 337.242 105.148 337.242 106.133Z" fill="black"/>
<path d="M1134 0H1348C1356.28 0 1363 6.71573 1363 15V148C1363 156.284 1356.28 163 1348 163H1134V0Z" fill="#59656F"/>
<path d="M1210.62 43.625H1286.38V119.375H1210.62V43.625Z" fill="white" fill-opacity="0.01"/>
<path d="M1276.91 72.0312V105.172C1276.91 107.787 1274.79 109.906 1272.17 109.906H1224.83C1222.21 109.906 1220.09 107.787 1220.09 105.172V57.8281C1220.09 55.2134 1222.21 53.0938 1224.83 53.0938H1261.12" stroke="white" stroke-width="7.24" stroke-linecap="round" stroke-linejoin="round"/>
<path d="M1232.72 75.1875L1248.5 87.8125L1276.91 53.0938" stroke="white" stroke-width="7.24" stroke-linecap="round" stroke-linejoin="round"/>
</svg>
