<svg width="1363" height="163" viewBox="0 0 1363 163" fill="none" xmlns="http://www.w3.org/2000/svg">
<path d="M0 15C0 6.71573 6.71573 0 15 0H37V163H15C6.71573 163 0 156.284 0 148V15Z" fill="#424242"/>
<rect width="1097" height="163" transform="translate(37)" fill="#F0F0F0"/>
<path d="M101.906 53.9219L94.3945 51.2383V48.0859L104.602 52.375V54.6367L101.906 53.9219ZM94.3945 56.1719L101.918 53.4297L104.602 52.7852V55.0352L94.3945 59.3242V56.1719ZM121.781 56.5352C121.781 56.2305 121.734 55.957 121.641 55.7148C121.555 55.4648 121.391 55.2383 121.148 55.0352C120.906 54.8242 120.566 54.6172 120.129 54.4141C119.691 54.2109 119.125 54 118.43 53.7812C117.656 53.5312 116.922 53.25 116.227 52.9375C115.539 52.625 114.93 52.2617 114.398 51.8477C113.875 51.4258 113.461 50.9375 113.156 50.3828C112.859 49.8281 112.711 49.1836 112.711 48.4492C112.711 47.7383 112.867 47.0938 113.18 46.5156C113.492 45.9297 113.93 45.4297 114.492 45.0156C115.055 44.5938 115.719 44.2695 116.484 44.043C117.258 43.8164 118.105 43.7031 119.027 43.7031C120.285 43.7031 121.383 43.9297 122.32 44.3828C123.258 44.8359 123.984 45.457 124.5 46.2461C125.023 47.0352 125.285 47.9375 125.285 48.9531H121.793C121.793 48.4531 121.688 48.0156 121.477 47.6406C121.273 47.2578 120.961 46.957 120.539 46.7383C120.125 46.5195 119.602 46.4102 118.969 46.4102C118.359 46.4102 117.852 46.5039 117.445 46.6914C117.039 46.8711 116.734 47.1172 116.531 47.4297C116.328 47.7344 116.227 48.0781 116.227 48.4609C116.227 48.75 116.297 49.0117 116.438 49.2461C116.586 49.4805 116.805 49.6992 117.094 49.9023C117.383 50.1055 117.738 50.2969 118.16 50.4766C118.582 50.6562 119.07 50.832 119.625 51.0039C120.555 51.2852 121.371 51.6016 122.074 51.9531C122.785 52.3047 123.379 52.6992 123.855 53.1367C124.332 53.5742 124.691 54.0703 124.934 54.625C125.176 55.1797 125.297 55.8086 125.297 56.5117C125.297 57.2539 125.152 57.918 124.863 58.5039C124.574 59.0898 124.156 59.5859 123.609 59.9922C123.062 60.3984 122.41 60.707 121.652 60.918C120.895 61.1289 120.047 61.2344 119.109 61.2344C118.266 61.2344 117.434 61.125 116.613 60.9062C115.793 60.6797 115.047 60.3398 114.375 59.8867C113.711 59.4336 113.18 58.8555 112.781 58.1523C112.383 57.4492 112.184 56.6172 112.184 55.6562H115.711C115.711 56.1875 115.793 56.6367 115.957 57.0039C116.121 57.3711 116.352 57.668 116.648 57.8945C116.953 58.1211 117.312 58.2852 117.727 58.3867C118.148 58.4883 118.609 58.5391 119.109 58.5391C119.719 58.5391 120.219 58.4531 120.609 58.2812C121.008 58.1094 121.301 57.8711 121.488 57.5664C121.684 57.2617 121.781 56.918 121.781 56.5352ZM130.77 43V61H127.395V43H130.77ZM130.289 54.2148H129.363C129.371 53.332 129.488 52.5195 129.715 51.7773C129.941 51.0273 130.266 50.3789 130.688 49.832C131.109 49.2773 131.613 48.8477 132.199 48.543C132.793 48.2383 133.449 48.0859 134.168 48.0859C134.793 48.0859 135.359 48.1758 135.867 48.3555C136.383 48.5273 136.824 48.8086 137.191 49.1992C137.566 49.582 137.855 50.0859 138.059 50.7109C138.262 51.3359 138.363 52.0938 138.363 52.9844V61H134.965V52.9609C134.965 52.3984 134.883 51.957 134.719 51.6367C134.562 51.3086 134.332 51.0781 134.027 50.9453C133.73 50.8047 133.363 50.7344 132.926 50.7344C132.441 50.7344 132.027 50.8242 131.684 51.0039C131.348 51.1836 131.078 51.4336 130.875 51.7539C130.672 52.0664 130.523 52.4336 130.43 52.8555C130.336 53.2773 130.289 53.7305 130.289 54.2148ZM146.766 61.2344C145.781 61.2344 144.898 61.0781 144.117 60.7656C143.336 60.4453 142.672 60.0039 142.125 59.4414C141.586 58.8789 141.172 58.2266 140.883 57.4844C140.594 56.7344 140.449 55.9375 140.449 55.0938V54.625C140.449 53.6641 140.586 52.7852 140.859 51.9883C141.133 51.1914 141.523 50.5 142.031 49.9141C142.547 49.3281 143.172 48.8789 143.906 48.5664C144.641 48.2461 145.469 48.0859 146.391 48.0859C147.289 48.0859 148.086 48.2344 148.781 48.5312C149.477 48.8281 150.059 49.25 150.527 49.7969C151.004 50.3438 151.363 51 151.605 51.7656C151.848 52.5234 151.969 53.3672 151.969 54.2969V55.7031H141.891V53.4531H148.652V53.1953C148.652 52.7266 148.566 52.3086 148.395 51.9414C148.23 51.5664 147.98 51.2695 147.645 51.0508C147.309 50.832 146.879 50.7227 146.355 50.7227C145.91 50.7227 145.527 50.8203 145.207 51.0156C144.887 51.2109 144.625 51.4844 144.422 51.8359C144.227 52.1875 144.078 52.6016 143.977 53.0781C143.883 53.5469 143.836 54.0625 143.836 54.625V55.0938C143.836 55.6016 143.906 56.0703 144.047 56.5C144.195 56.9297 144.402 57.3008 144.668 57.6133C144.941 57.9258 145.27 58.168 145.652 58.3398C146.043 58.5117 146.484 58.5977 146.977 58.5977C147.586 58.5977 148.152 58.4805 148.676 58.2461C149.207 58.0039 149.664 57.6406 150.047 57.1562L151.688 58.9375C151.422 59.3203 151.059 59.6875 150.598 60.0391C150.145 60.3906 149.598 60.6797 148.957 60.9062C148.316 61.125 147.586 61.2344 146.766 61.2344ZM157.453 43V61H154.066V43H157.453ZM164.543 61H161.145V47.1953C161.145 46.2344 161.332 45.4258 161.707 44.7695C162.09 44.1055 162.625 43.6055 163.312 43.2695C164.008 42.9258 164.832 42.7539 165.785 42.7539C166.098 42.7539 166.398 42.7773 166.688 42.8242C166.977 42.8633 167.258 42.9141 167.531 42.9766L167.496 45.5195C167.348 45.4805 167.191 45.4531 167.027 45.4375C166.863 45.4219 166.672 45.4141 166.453 45.4141C166.047 45.4141 165.699 45.4844 165.41 45.625C165.129 45.7578 164.914 45.957 164.766 46.2227C164.617 46.4883 164.543 46.8125 164.543 47.1953V61ZM167.074 48.3203V50.7109H159.258V48.3203H167.074ZM176.637 43.9375H179.613L183.996 56.4648L188.379 43.9375H191.355L185.191 61H182.801L176.637 43.9375ZM175.031 43.9375H177.996L178.535 56.1484V61H175.031V43.9375ZM189.996 43.9375H192.973V61H189.457V56.1484L189.996 43.9375ZM202.688 58.1406V52.4922C202.688 52.0859 202.621 51.7383 202.488 51.4492C202.355 51.1523 202.148 50.9219 201.867 50.7578C201.594 50.5938 201.238 50.5117 200.801 50.5117C200.426 50.5117 200.102 50.5781 199.828 50.7109C199.555 50.8359 199.344 51.0195 199.195 51.2617C199.047 51.4961 198.973 51.7734 198.973 52.0938H195.598C195.598 51.5547 195.723 51.043 195.973 50.5586C196.223 50.0742 196.586 49.6484 197.062 49.2812C197.539 48.9062 198.105 48.6133 198.762 48.4023C199.426 48.1914 200.168 48.0859 200.988 48.0859C201.973 48.0859 202.848 48.25 203.613 48.5781C204.379 48.9062 204.98 49.3984 205.418 50.0547C205.863 50.7109 206.086 51.5312 206.086 52.5156V57.9414C206.086 58.6367 206.129 59.207 206.215 59.6523C206.301 60.0898 206.426 60.4727 206.59 60.8008V61H203.18C203.016 60.6562 202.891 60.2266 202.805 59.7109C202.727 59.1875 202.688 58.6641 202.688 58.1406ZM203.133 53.2773L203.156 55.1875H201.27C200.824 55.1875 200.438 55.2383 200.109 55.3398C199.781 55.4414 199.512 55.5859 199.301 55.7734C199.09 55.9531 198.934 56.1641 198.832 56.4062C198.738 56.6484 198.691 56.9141 198.691 57.2031C198.691 57.4922 198.758 57.7539 198.891 57.9883C199.023 58.2148 199.215 58.3945 199.465 58.5273C199.715 58.6523 200.008 58.7148 200.344 58.7148C200.852 58.7148 201.293 58.6133 201.668 58.4102C202.043 58.207 202.332 57.957 202.535 57.6602C202.746 57.3633 202.855 57.082 202.863 56.8164L203.754 58.2461C203.629 58.5664 203.457 58.8984 203.238 59.2422C203.027 59.5859 202.758 59.9102 202.43 60.2148C202.102 60.5117 201.707 60.7578 201.246 60.9531C200.785 61.1406 200.238 61.2344 199.605 61.2344C198.801 61.2344 198.07 61.0742 197.414 60.7539C196.766 60.4258 196.25 59.9766 195.867 59.4062C195.492 58.8281 195.305 58.1719 195.305 57.4375C195.305 56.7734 195.43 56.1836 195.68 55.668C195.93 55.1523 196.297 54.7188 196.781 54.3672C197.273 54.0078 197.887 53.7383 198.621 53.5586C199.355 53.3711 200.207 53.2773 201.176 53.2773H203.133ZM215.543 57.4961C215.543 57.2539 215.473 57.0352 215.332 56.8398C215.191 56.6445 214.93 56.4648 214.547 56.3008C214.172 56.1289 213.629 55.9727 212.918 55.832C212.277 55.6914 211.68 55.5156 211.125 55.3047C210.578 55.0859 210.102 54.8242 209.695 54.5195C209.297 54.2148 208.984 53.8555 208.758 53.4414C208.531 53.0195 208.418 52.5391 208.418 52C208.418 51.4688 208.531 50.9688 208.758 50.5C208.992 50.0312 209.324 49.6172 209.754 49.2578C210.191 48.8906 210.723 48.6055 211.348 48.4023C211.98 48.1914 212.691 48.0859 213.48 48.0859C214.582 48.0859 215.527 48.2617 216.316 48.6133C217.113 48.9648 217.723 49.4492 218.145 50.0664C218.574 50.6758 218.789 51.3711 218.789 52.1523H215.414C215.414 51.8242 215.344 51.5312 215.203 51.2734C215.07 51.0078 214.859 50.8008 214.57 50.6523C214.289 50.4961 213.922 50.418 213.469 50.418C213.094 50.418 212.77 50.4844 212.496 50.6172C212.223 50.7422 212.012 50.9141 211.863 51.1328C211.723 51.3438 211.652 51.5781 211.652 51.8359C211.652 52.0312 211.691 52.207 211.77 52.3633C211.855 52.5117 211.992 52.6484 212.18 52.7734C212.367 52.8984 212.609 53.0156 212.906 53.125C213.211 53.2266 213.586 53.3203 214.031 53.4062C214.945 53.5938 215.762 53.8398 216.48 54.1445C217.199 54.4414 217.77 54.8477 218.191 55.3633C218.613 55.8711 218.824 56.5391 218.824 57.3672C218.824 57.9297 218.699 58.4453 218.449 58.9141C218.199 59.3828 217.84 59.793 217.371 60.1445C216.902 60.4883 216.34 60.7578 215.684 60.9531C215.035 61.1406 214.305 61.2344 213.492 61.2344C212.312 61.2344 211.312 61.0234 210.492 60.6016C209.68 60.1797 209.062 59.6445 208.641 58.9961C208.227 58.3398 208.02 57.668 208.02 56.9805H211.219C211.234 57.4414 211.352 57.8125 211.57 58.0938C211.797 58.375 212.082 58.5781 212.426 58.7031C212.777 58.8281 213.156 58.8906 213.562 58.8906C214 58.8906 214.363 58.832 214.652 58.7148C214.941 58.5898 215.16 58.4258 215.309 58.2227C215.465 58.0117 215.543 57.7695 215.543 57.4961ZM227.227 48.3203V50.7109H219.844V48.3203H227.227ZM221.672 45.1914H225.047V57.1797C225.047 57.5469 225.094 57.8281 225.188 58.0234C225.289 58.2188 225.438 58.3555 225.633 58.4336C225.828 58.5039 226.074 58.5391 226.371 58.5391C226.582 58.5391 226.77 58.5312 226.934 58.5156C227.105 58.4922 227.25 58.4688 227.367 58.4453L227.379 60.9297C227.09 61.0234 226.777 61.0977 226.441 61.1523C226.105 61.207 225.734 61.2344 225.328 61.2344C224.586 61.2344 223.938 61.1133 223.383 60.8711C222.836 60.6211 222.414 60.2227 222.117 59.6758C221.82 59.1289 221.672 58.4102 221.672 57.5195V45.1914ZM234.984 61.2344C234 61.2344 233.117 61.0781 232.336 60.7656C231.555 60.4453 230.891 60.0039 230.344 59.4414C229.805 58.8789 229.391 58.2266 229.102 57.4844C228.812 56.7344 228.668 55.9375 228.668 55.0938V54.625C228.668 53.6641 228.805 52.7852 229.078 51.9883C229.352 51.1914 229.742 50.5 230.25 49.9141C230.766 49.3281 231.391 48.8789 232.125 48.5664C232.859 48.2461 233.688 48.0859 234.609 48.0859C235.508 48.0859 236.305 48.2344 237 48.5312C237.695 48.8281 238.277 49.25 238.746 49.7969C239.223 50.3438 239.582 51 239.824 51.7656C240.066 52.5234 240.188 53.3672 240.188 54.2969V55.7031H230.109V53.4531H236.871V53.1953C236.871 52.7266 236.785 52.3086 236.613 51.9414C236.449 51.5664 236.199 51.2695 235.863 51.0508C235.527 50.832 235.098 50.7227 234.574 50.7227C234.129 50.7227 233.746 50.8203 233.426 51.0156C233.105 51.2109 232.844 51.4844 232.641 51.8359C232.445 52.1875 232.297 52.6016 232.195 53.0781C232.102 53.5469 232.055 54.0625 232.055 54.625V55.0938C232.055 55.6016 232.125 56.0703 232.266 56.5C232.414 56.9297 232.621 57.3008 232.887 57.6133C233.16 57.9258 233.488 58.168 233.871 58.3398C234.262 58.5117 234.703 58.5977 235.195 58.5977C235.805 58.5977 236.371 58.4805 236.895 58.2461C237.426 58.0039 237.883 57.6406 238.266 57.1562L239.906 58.9375C239.641 59.3203 239.277 59.6875 238.816 60.0391C238.363 60.3906 237.816 60.6797 237.176 60.9062C236.535 61.125 235.805 61.2344 234.984 61.2344ZM245.484 51.0859V61H242.109V48.3203H245.285L245.484 51.0859ZM249.305 48.2383L249.246 51.3672C249.082 51.3438 248.883 51.3242 248.648 51.3086C248.422 51.2852 248.215 51.2734 248.027 51.2734C247.551 51.2734 247.137 51.3359 246.785 51.4609C246.441 51.5781 246.152 51.7539 245.918 51.9883C245.691 52.2227 245.52 52.5078 245.402 52.8438C245.293 53.1797 245.23 53.5625 245.215 53.9922L244.535 53.7812C244.535 52.9609 244.617 52.207 244.781 51.5195C244.945 50.8242 245.184 50.2188 245.496 49.7031C245.816 49.1875 246.207 48.7891 246.668 48.5078C247.129 48.2266 247.656 48.0859 248.25 48.0859C248.438 48.0859 248.629 48.1016 248.824 48.1328C249.02 48.1562 249.18 48.1914 249.305 48.2383Z" fill="#888888"/>
<path d="M112.125 84.875V119H103.898V84.875H112.125ZM122.391 84.875V91.2266H93.8672V84.875H122.391ZM135.68 119.469C133.617 119.469 131.773 119.148 130.148 118.508C128.523 117.852 127.148 116.953 126.023 115.812C124.914 114.672 124.062 113.359 123.469 111.875C122.891 110.391 122.602 108.82 122.602 107.164V106.273C122.602 104.414 122.859 102.695 123.375 101.117C123.891 99.5234 124.656 98.1328 125.672 96.9453C126.688 95.7578 127.961 94.8359 129.492 94.1797C131.023 93.5078 132.805 93.1719 134.836 93.1719C136.633 93.1719 138.242 93.4609 139.664 94.0391C141.086 94.6172 142.289 95.4453 143.273 96.5234C144.273 97.6016 145.031 98.9062 145.547 100.438C146.078 101.969 146.344 103.688 146.344 105.594V108.805H125.625V103.859H138.633V103.25C138.648 102.406 138.5 101.688 138.188 101.094C137.891 100.5 137.453 100.047 136.875 99.7344C136.297 99.4219 135.594 99.2656 134.766 99.2656C133.906 99.2656 133.195 99.4531 132.633 99.8281C132.086 100.203 131.656 100.719 131.344 101.375C131.047 102.016 130.836 102.758 130.711 103.602C130.586 104.445 130.523 105.336 130.523 106.273V107.164C130.523 108.102 130.648 108.953 130.898 109.719C131.164 110.484 131.539 111.141 132.023 111.688C132.523 112.219 133.117 112.633 133.805 112.93C134.508 113.227 135.305 113.375 136.195 113.375C137.273 113.375 138.336 113.172 139.383 112.766C140.43 112.359 141.328 111.688 142.078 110.75L145.664 115.016C145.148 115.75 144.414 116.461 143.461 117.148C142.523 117.836 141.398 118.398 140.086 118.836C138.773 119.258 137.305 119.469 135.68 119.469ZM160.266 113.375C161 113.375 161.625 113.242 162.141 112.977C162.672 112.695 163.07 112.305 163.336 111.805C163.617 111.289 163.75 110.672 163.734 109.953H171.164C171.18 111.859 170.711 113.531 169.758 114.969C168.82 116.391 167.539 117.5 165.914 118.297C164.305 119.078 162.484 119.469 160.453 119.469C158.469 119.469 156.734 119.148 155.25 118.508C153.766 117.852 152.523 116.945 151.523 115.789C150.539 114.617 149.797 113.25 149.297 111.688C148.812 110.125 148.57 108.43 148.57 106.602V106.062C148.57 104.234 148.812 102.539 149.297 100.977C149.797 99.3984 150.539 98.0312 151.523 96.875C152.523 95.7031 153.758 94.7969 155.227 94.1562C156.711 93.5 158.438 93.1719 160.406 93.1719C162.516 93.1719 164.375 93.5703 165.984 94.3672C167.609 95.1641 168.883 96.3203 169.805 97.8359C170.727 99.3516 171.18 101.188 171.164 103.344H163.734C163.75 102.578 163.633 101.891 163.383 101.281C163.133 100.672 162.742 100.188 162.211 99.8281C161.695 99.4531 161.031 99.2656 160.219 99.2656C159.406 99.2656 158.75 99.4453 158.25 99.8047C157.75 100.164 157.367 100.664 157.102 101.305C156.852 101.93 156.68 102.648 156.586 103.461C156.508 104.273 156.469 105.141 156.469 106.062V106.602C156.469 107.539 156.508 108.422 156.586 109.25C156.68 110.062 156.859 110.781 157.125 111.406C157.391 112.016 157.773 112.5 158.273 112.859C158.773 113.203 159.438 113.375 160.266 113.375ZM182.273 83V119H174.375V83H182.273ZM181.336 105.453L179.484 105.5C179.484 103.719 179.703 102.078 180.141 100.578C180.578 99.0781 181.203 97.7734 182.016 96.6641C182.828 95.5547 183.805 94.6953 184.945 94.0859C186.086 93.4766 187.352 93.1719 188.742 93.1719C189.992 93.1719 191.133 93.3516 192.164 93.7109C193.211 94.0703 194.109 94.6484 194.859 95.4453C195.625 96.2422 196.211 97.2812 196.617 98.5625C197.039 99.8438 197.25 101.406 197.25 103.25V119H189.305V103.203C189.305 102.172 189.156 101.375 188.859 100.812C188.578 100.234 188.172 99.8359 187.641 99.6172C187.109 99.3828 186.461 99.2656 185.695 99.2656C184.773 99.2656 184.023 99.4219 183.445 99.7344C182.867 100.047 182.422 100.484 182.109 101.047C181.812 101.594 181.609 102.242 181.5 102.992C181.391 103.742 181.336 104.562 181.336 105.453ZM231.539 109.93C231.539 109.398 231.461 108.922 231.305 108.5C231.148 108.062 230.859 107.656 230.438 107.281C230.016 106.906 229.406 106.531 228.609 106.156C227.828 105.766 226.797 105.359 225.516 104.938C224.016 104.438 222.57 103.875 221.18 103.25C219.789 102.609 218.547 101.867 217.453 101.023C216.359 100.164 215.492 99.1641 214.852 98.0234C214.211 96.8672 213.891 95.5234 213.891 93.9922C213.891 92.5234 214.219 91.2031 214.875 90.0312C215.531 88.8438 216.445 87.8359 217.617 87.0078C218.805 86.1641 220.195 85.5234 221.789 85.0859C223.383 84.6328 225.125 84.4062 227.016 84.4062C229.516 84.4062 231.719 84.8438 233.625 85.7188C235.547 86.5781 237.047 87.8047 238.125 89.3984C239.219 90.9766 239.766 92.8438 239.766 95H231.586C231.586 94.1406 231.406 93.3828 231.047 92.7266C230.703 92.0703 230.18 91.5547 229.477 91.1797C228.773 90.8047 227.891 90.6172 226.828 90.6172C225.797 90.6172 224.93 90.7734 224.227 91.0859C223.523 91.3984 222.992 91.8203 222.633 92.3516C222.273 92.8672 222.094 93.4375 222.094 94.0625C222.094 94.5781 222.234 95.0469 222.516 95.4688C222.812 95.875 223.227 96.2578 223.758 96.6172C224.305 96.9766 224.961 97.3203 225.727 97.6484C226.508 97.9766 227.383 98.2969 228.352 98.6094C230.164 99.1875 231.773 99.8359 233.18 100.555C234.602 101.258 235.797 102.062 236.766 102.969C237.75 103.859 238.492 104.875 238.992 106.016C239.508 107.156 239.766 108.445 239.766 109.883C239.766 111.414 239.469 112.773 238.875 113.961C238.281 115.148 237.43 116.156 236.32 116.984C235.211 117.797 233.883 118.414 232.336 118.836C230.789 119.258 229.062 119.469 227.156 119.469C225.406 119.469 223.68 119.25 221.977 118.812C220.289 118.359 218.758 117.672 217.383 116.75C216.008 115.812 214.906 114.617 214.078 113.164C213.266 111.695 212.859 109.953 212.859 107.938H221.109C221.109 108.938 221.242 109.781 221.508 110.469C221.773 111.156 222.164 111.711 222.68 112.133C223.195 112.539 223.828 112.836 224.578 113.023C225.328 113.195 226.188 113.281 227.156 113.281C228.203 113.281 229.047 113.133 229.688 112.836C230.328 112.523 230.797 112.117 231.094 111.617C231.391 111.102 231.539 110.539 231.539 109.93ZM256.992 93.6406V99.125H241.711V93.6406H256.992ZM244.922 87.3359H252.82V110.727C252.82 111.398 252.898 111.922 253.055 112.297C253.211 112.656 253.477 112.914 253.852 113.07C254.242 113.211 254.758 113.281 255.398 113.281C255.852 113.281 256.227 113.273 256.523 113.258C256.82 113.227 257.102 113.188 257.367 113.141V118.789C256.695 119.008 255.992 119.172 255.258 119.281C254.523 119.406 253.742 119.469 252.914 119.469C251.227 119.469 249.781 119.203 248.578 118.672C247.391 118.141 246.484 117.305 245.859 116.164C245.234 115.023 244.922 113.539 244.922 111.711V87.3359ZM273.305 112.625V102.172C273.305 101.453 273.203 100.836 273 100.32C272.797 99.8047 272.477 99.4062 272.039 99.125C271.602 98.8281 271.016 98.6797 270.281 98.6797C269.688 98.6797 269.18 98.7812 268.758 98.9844C268.336 99.1875 268.016 99.4922 267.797 99.8984C267.578 100.305 267.469 100.82 267.469 101.445H259.57C259.57 100.273 259.828 99.1875 260.344 98.1875C260.875 97.1719 261.625 96.2891 262.594 95.5391C263.578 94.7891 264.75 94.2109 266.109 93.8047C267.484 93.3828 269.016 93.1719 270.703 93.1719C272.719 93.1719 274.516 93.5078 276.094 94.1797C277.688 94.8516 278.945 95.8594 279.867 97.2031C280.789 98.5312 281.25 100.203 281.25 102.219V112.602C281.25 114.258 281.344 115.516 281.531 116.375C281.719 117.219 281.984 117.961 282.328 118.602V119H274.406C274.031 118.219 273.75 117.266 273.562 116.141C273.391 115 273.305 113.828 273.305 112.625ZM274.266 103.508L274.312 107.727H270.82C270.086 107.727 269.461 107.828 268.945 108.031C268.445 108.234 268.039 108.516 267.727 108.875C267.43 109.219 267.211 109.609 267.07 110.047C266.945 110.484 266.883 110.945 266.883 111.43C266.883 111.898 266.992 112.32 267.211 112.695C267.445 113.055 267.758 113.336 268.148 113.539C268.539 113.742 268.977 113.844 269.461 113.844C270.336 113.844 271.078 113.68 271.688 113.352C272.312 113.008 272.789 112.594 273.117 112.109C273.445 111.625 273.609 111.172 273.609 110.75L275.344 113.984C275.031 114.609 274.672 115.242 274.266 115.883C273.875 116.523 273.383 117.117 272.789 117.664C272.211 118.195 271.5 118.633 270.656 118.977C269.812 119.305 268.789 119.469 267.586 119.469C266.023 119.469 264.586 119.148 263.273 118.508C261.977 117.867 260.938 116.977 260.156 115.836C259.375 114.68 258.984 113.352 258.984 111.852C258.984 110.539 259.219 109.367 259.688 108.336C260.172 107.305 260.898 106.43 261.867 105.711C262.836 104.992 264.07 104.445 265.57 104.07C267.07 103.695 268.836 103.508 270.867 103.508H274.266ZM296.344 113.375C297.078 113.375 297.703 113.242 298.219 112.977C298.75 112.695 299.148 112.305 299.414 111.805C299.695 111.289 299.828 110.672 299.812 109.953H307.242C307.258 111.859 306.789 113.531 305.836 114.969C304.898 116.391 303.617 117.5 301.992 118.297C300.383 119.078 298.562 119.469 296.531 119.469C294.547 119.469 292.812 119.148 291.328 118.508C289.844 117.852 288.602 116.945 287.602 115.789C286.617 114.617 285.875 113.25 285.375 111.688C284.891 110.125 284.648 108.43 284.648 106.602V106.062C284.648 104.234 284.891 102.539 285.375 100.977C285.875 99.3984 286.617 98.0312 287.602 96.875C288.602 95.7031 289.836 94.7969 291.305 94.1562C292.789 93.5 294.516 93.1719 296.484 93.1719C298.594 93.1719 300.453 93.5703 302.062 94.3672C303.688 95.1641 304.961 96.3203 305.883 97.8359C306.805 99.3516 307.258 101.188 307.242 103.344H299.812C299.828 102.578 299.711 101.891 299.461 101.281C299.211 100.672 298.82 100.188 298.289 99.8281C297.773 99.4531 297.109 99.2656 296.297 99.2656C295.484 99.2656 294.828 99.4453 294.328 99.8047C293.828 100.164 293.445 100.664 293.18 101.305C292.93 101.93 292.758 102.648 292.664 103.461C292.586 104.273 292.547 105.141 292.547 106.062V106.602C292.547 107.539 292.586 108.422 292.664 109.25C292.758 110.062 292.938 110.781 293.203 111.406C293.469 112.016 293.852 112.5 294.352 112.859C294.852 113.203 295.516 113.375 296.344 113.375ZM318.586 82.9766V119H310.688V82.9766H318.586ZM334.805 93.6406L323.789 106.555L318.023 112.32L314.578 107.305L319.383 101.047L325.336 93.6406H334.805ZM326.344 119L319.57 107.445L325.406 103.297L335.391 119H326.344ZM350.156 111.875C350.156 111.438 350.008 111.062 349.711 110.75C349.43 110.422 348.93 110.125 348.211 109.859C347.492 109.578 346.484 109.297 345.188 109.016C343.953 108.75 342.789 108.398 341.695 107.961C340.617 107.523 339.672 106.992 338.859 106.367C338.047 105.742 337.406 105 336.938 104.141C336.484 103.281 336.258 102.297 336.258 101.188C336.258 100.109 336.484 99.0938 336.938 98.1406C337.406 97.1719 338.086 96.3203 338.977 95.5859C339.883 94.8359 340.984 94.25 342.281 93.8281C343.578 93.3906 345.055 93.1719 346.711 93.1719C348.992 93.1719 350.961 93.5234 352.617 94.2266C354.273 94.9141 355.547 95.8828 356.438 97.1328C357.344 98.3672 357.797 99.7969 357.797 101.422H349.898C349.898 100.781 349.789 100.234 349.57 99.7812C349.367 99.3281 349.031 98.9844 348.562 98.75C348.094 98.5 347.469 98.375 346.688 98.375C346.141 98.375 345.641 98.4766 345.188 98.6797C344.75 98.8828 344.398 99.1641 344.133 99.5234C343.867 99.8828 343.734 100.305 343.734 100.789C343.734 101.133 343.812 101.445 343.969 101.727C344.141 101.992 344.398 102.242 344.742 102.477C345.086 102.695 345.523 102.898 346.055 103.086C346.586 103.258 347.227 103.414 347.977 103.555C349.68 103.867 351.273 104.312 352.758 104.891C354.242 105.469 355.445 106.289 356.367 107.352C357.305 108.414 357.773 109.844 357.773 111.641C357.773 112.766 357.516 113.805 357 114.758C356.484 115.695 355.742 116.523 354.773 117.242C353.805 117.945 352.641 118.492 351.281 118.883C349.922 119.273 348.391 119.469 346.688 119.469C344.266 119.469 342.219 119.039 340.547 118.18C338.875 117.305 337.609 116.211 336.75 114.898C335.906 113.57 335.484 112.227 335.484 110.867H342.844C342.875 111.648 343.062 112.289 343.406 112.789C343.766 113.289 344.242 113.656 344.836 113.891C345.43 114.125 346.117 114.242 346.898 114.242C347.617 114.242 348.211 114.141 348.68 113.938C349.164 113.734 349.531 113.461 349.781 113.117C350.031 112.758 350.156 112.344 350.156 111.875Z" fill="black"/>
<path d="M1134 0H1348C1356.28 0 1363 6.71573 1363 15V148C1363 156.284 1356.28 163 1348 163H1134V0Z" fill="#59656F"/>
<path fill-rule="evenodd" clip-rule="evenodd" d="M1219.98 53C1219.85 53 1219.73 53.0527 1219.64 53.1464C1219.55 53.2402 1219.5 53.3674 1219.5 53.5V109.5C1219.5 109.633 1219.55 109.76 1219.64 109.854C1219.73 109.947 1219.85 110 1219.98 110H1277.02C1277.15 110 1277.27 109.947 1277.36 109.854C1277.45 109.76 1277.5 109.633 1277.5 109.5V64C1277.5 63.8674 1277.45 63.7402 1277.36 63.6464C1277.27 63.5527 1277.15 63.5 1277.02 63.5H1248.5C1247.65 63.5 1246.84 63.1045 1246.29 62.4206L1238.77 53H1219.98ZM1215.58 48.9038C1216.74 47.6848 1218.33 47 1219.98 47H1240.11C1240.97 47 1241.77 47.3955 1242.32 48.0794L1249.85 57.5H1277.02C1278.67 57.5 1280.26 58.1848 1281.42 59.4038C1282.59 60.6228 1283.25 62.2761 1283.25 64V109.5C1283.25 111.224 1282.59 112.877 1281.42 114.096C1280.26 115.315 1278.67 116 1277.02 116H1219.98C1218.33 116 1216.74 115.315 1215.58 114.096C1214.41 112.877 1213.75 111.224 1213.75 109.5V53.5C1213.75 51.7761 1214.41 50.1228 1215.58 48.9038Z" fill="white"/>
<path fill-rule="evenodd" clip-rule="evenodd" d="M1244.16 75.5251C1245.47 76.892 1245.47 79.108 1244.16 80.4749L1238.15 86.75L1244.16 93.0251C1245.47 94.392 1245.47 96.608 1244.16 97.9749C1242.85 99.3417 1240.73 99.3417 1239.42 97.9749L1231.03 89.2249C1229.72 87.858 1229.72 85.642 1231.03 84.2751L1239.42 75.5251C1240.73 74.1583 1242.85 74.1583 1244.16 75.5251Z" fill="white"/>
<path fill-rule="evenodd" clip-rule="evenodd" d="M1252.12 97.9749C1250.81 96.608 1250.81 94.392 1252.12 93.0251L1258.13 86.75L1252.12 80.4749C1250.81 79.108 1250.81 76.892 1252.12 75.5251C1253.43 74.1583 1255.55 74.1583 1256.86 75.5251L1265.25 84.2751C1266.56 85.642 1266.56 87.858 1265.25 89.2249L1256.86 97.9749C1255.55 99.3417 1253.43 99.3417 1252.12 97.9749Z" fill="white"/>
</svg>
