<svg width="1363" height="297" viewBox="0 0 1363 297" fill="none" xmlns="http://www.w3.org/2000/svg">
<path d="M0 15C0 6.71573 6.71573 0 15 0H37V297H15C6.71573 297 0 290.284 0 282V15Z" fill="#59656F"/>
<path d="M37 0H1066V297H37V0Z" fill="#F0F0F0"/>
<path d="M97.6934 49.4062H102.158L108.732 68.1973L115.307 49.4062H119.771L110.525 75H106.939L97.6934 49.4062ZM95.2852 49.4062H99.7324L100.541 67.7227V75H95.2852V49.4062ZM117.732 49.4062H122.197V75H116.924V67.7227L117.732 49.4062ZM125.695 65.6836V65.3145C125.695 63.9199 125.895 62.6367 126.293 61.4648C126.691 60.2812 127.271 59.2559 128.033 58.3887C128.795 57.5215 129.732 56.8477 130.846 56.3672C131.959 55.875 133.236 55.6289 134.678 55.6289C136.119 55.6289 137.402 55.875 138.527 56.3672C139.652 56.8477 140.596 57.5215 141.357 58.3887C142.131 59.2559 142.717 60.2812 143.115 61.4648C143.514 62.6367 143.713 63.9199 143.713 65.3145V65.6836C143.713 67.0664 143.514 68.3496 143.115 69.5332C142.717 70.7051 142.131 71.7305 141.357 72.6094C140.596 73.4766 139.658 74.1504 138.545 74.6309C137.432 75.1113 136.154 75.3516 134.713 75.3516C133.271 75.3516 131.988 75.1113 130.863 74.6309C129.75 74.1504 128.807 73.4766 128.033 72.6094C127.271 71.7305 126.691 70.7051 126.293 69.5332C125.895 68.3496 125.695 67.0664 125.695 65.6836ZM130.758 65.3145V65.6836C130.758 66.4805 130.828 67.2246 130.969 67.916C131.109 68.6074 131.332 69.2168 131.637 69.7441C131.953 70.2598 132.363 70.6641 132.867 70.957C133.371 71.25 133.986 71.3965 134.713 71.3965C135.416 71.3965 136.02 71.25 136.523 70.957C137.027 70.6641 137.432 70.2598 137.736 69.7441C138.041 69.2168 138.264 68.6074 138.404 67.916C138.557 67.2246 138.633 66.4805 138.633 65.6836V65.3145C138.633 64.541 138.557 63.8145 138.404 63.1348C138.264 62.4434 138.035 61.834 137.719 61.3066C137.414 60.7676 137.01 60.3457 136.506 60.041C136.002 59.7363 135.393 59.584 134.678 59.584C133.963 59.584 133.354 59.7363 132.85 60.041C132.357 60.3457 131.953 60.7676 131.637 61.3066C131.332 61.834 131.109 62.4434 130.969 63.1348C130.828 63.8145 130.758 64.541 130.758 65.3145ZM151.764 48V75H146.701V48H151.764ZM151.043 64.8223H149.654C149.666 63.498 149.842 62.2793 150.182 61.166C150.521 60.041 151.008 59.0684 151.641 58.248C152.273 57.416 153.029 56.7715 153.908 56.3145C154.799 55.8574 155.783 55.6289 156.861 55.6289C157.799 55.6289 158.648 55.7637 159.41 56.0332C160.184 56.291 160.846 56.7129 161.396 57.2988C161.959 57.873 162.393 58.6289 162.697 59.5664C163.002 60.5039 163.154 61.6406 163.154 62.9766V75H158.057V62.9414C158.057 62.0977 157.934 61.4355 157.688 60.9551C157.453 60.4629 157.107 60.1172 156.65 59.918C156.205 59.707 155.654 59.6016 154.998 59.6016C154.271 59.6016 153.65 59.7363 153.135 60.0059C152.631 60.2754 152.227 60.6504 151.922 61.1309C151.617 61.5996 151.395 62.1504 151.254 62.7832C151.113 63.416 151.043 64.0957 151.043 64.8223ZM177.27 70.7109V62.2383C177.27 61.6289 177.17 61.1074 176.971 60.6738C176.771 60.2285 176.461 59.8828 176.039 59.6367C175.629 59.3906 175.096 59.2676 174.439 59.2676C173.877 59.2676 173.391 59.3672 172.98 59.5664C172.57 59.7539 172.254 60.0293 172.031 60.3926C171.809 60.7441 171.697 61.1602 171.697 61.6406H166.635C166.635 60.832 166.822 60.0645 167.197 59.3379C167.572 58.6113 168.117 57.9727 168.832 57.4219C169.547 56.8594 170.396 56.4199 171.381 56.1035C172.377 55.7871 173.49 55.6289 174.721 55.6289C176.197 55.6289 177.51 55.875 178.658 56.3672C179.807 56.8594 180.709 57.5977 181.365 58.582C182.033 59.5664 182.367 60.7969 182.367 62.2734V70.4121C182.367 71.4551 182.432 72.3105 182.561 72.9785C182.689 73.6348 182.877 74.209 183.123 74.7012V75H178.008C177.762 74.4844 177.574 73.8398 177.445 73.0664C177.328 72.2812 177.27 71.4961 177.27 70.7109ZM177.938 63.416L177.973 66.2812H175.143C174.475 66.2812 173.895 66.3574 173.402 66.5098C172.91 66.6621 172.506 66.8789 172.189 67.1602C171.873 67.4297 171.639 67.7461 171.486 68.1094C171.346 68.4727 171.275 68.8711 171.275 69.3047C171.275 69.7383 171.375 70.1309 171.574 70.4824C171.773 70.8223 172.061 71.0918 172.436 71.291C172.811 71.4785 173.25 71.5723 173.754 71.5723C174.516 71.5723 175.178 71.4199 175.74 71.1152C176.303 70.8105 176.736 70.4355 177.041 69.9902C177.357 69.5449 177.521 69.123 177.533 68.7246L178.869 70.8691C178.682 71.3496 178.424 71.8477 178.096 72.3633C177.779 72.8789 177.375 73.3652 176.883 73.8223C176.391 74.2676 175.799 74.6367 175.107 74.9297C174.416 75.2109 173.596 75.3516 172.646 75.3516C171.439 75.3516 170.344 75.1113 169.359 74.6309C168.387 74.1387 167.613 73.4648 167.039 72.6094C166.477 71.7422 166.195 70.7578 166.195 69.6562C166.195 68.6602 166.383 67.7754 166.758 67.002C167.133 66.2285 167.684 65.5781 168.41 65.0508C169.148 64.5117 170.068 64.1074 171.17 63.8379C172.271 63.5566 173.549 63.416 175.002 63.416H177.938ZM191.332 59.918V75H186.252V55.9805H191.016L191.332 59.918ZM190.629 64.8223H189.223C189.223 63.498 189.381 62.2793 189.697 61.166C190.025 60.041 190.5 59.0684 191.121 58.248C191.754 57.416 192.533 56.7715 193.459 56.3145C194.385 55.8574 195.457 55.6289 196.676 55.6289C197.52 55.6289 198.293 55.7578 198.996 56.0156C199.699 56.2617 200.303 56.6543 200.807 57.1934C201.322 57.7207 201.721 58.4121 202.002 59.2676C202.283 60.1113 202.424 61.125 202.424 62.3086V75H197.361V62.8711C197.361 62.0039 197.244 61.3359 197.01 60.8672C196.775 60.3984 196.441 60.0703 196.008 59.8828C195.586 59.6953 195.076 59.6016 194.479 59.6016C193.822 59.6016 193.248 59.7363 192.756 60.0059C192.275 60.2754 191.877 60.6504 191.561 61.1309C191.244 61.5996 191.01 62.1504 190.857 62.7832C190.705 63.416 190.629 64.0957 190.629 64.8223ZM201.949 64.2422L200.139 64.4707C200.139 63.2285 200.291 62.0742 200.596 61.0078C200.912 59.9414 201.375 59.0039 201.984 58.1953C202.605 57.3867 203.373 56.7598 204.287 56.3145C205.201 55.8574 206.256 55.6289 207.451 55.6289C208.365 55.6289 209.197 55.7637 209.947 56.0332C210.697 56.291 211.336 56.707 211.863 57.2812C212.402 57.8438 212.812 58.582 213.094 59.4961C213.387 60.4102 213.533 61.5293 213.533 62.8535V75H208.453V62.8535C208.453 61.9746 208.336 61.3066 208.102 60.8496C207.879 60.3809 207.551 60.0586 207.117 59.8828C206.695 59.6953 206.191 59.6016 205.605 59.6016C204.996 59.6016 204.463 59.7246 204.006 59.9707C203.549 60.2051 203.168 60.5332 202.863 60.9551C202.559 61.377 202.33 61.8691 202.178 62.4316C202.025 62.9824 201.949 63.5859 201.949 64.2422ZM222.516 59.918V75H217.436V55.9805H222.199L222.516 59.918ZM221.812 64.8223H220.406C220.406 63.498 220.564 62.2793 220.881 61.166C221.209 60.041 221.684 59.0684 222.305 58.248C222.938 57.416 223.717 56.7715 224.643 56.3145C225.568 55.8574 226.641 55.6289 227.859 55.6289C228.703 55.6289 229.477 55.7578 230.18 56.0156C230.883 56.2617 231.486 56.6543 231.99 57.1934C232.506 57.7207 232.904 58.4121 233.186 59.2676C233.467 60.1113 233.607 61.125 233.607 62.3086V75H228.545V62.8711C228.545 62.0039 228.428 61.3359 228.193 60.8672C227.959 60.3984 227.625 60.0703 227.191 59.8828C226.77 59.6953 226.26 59.6016 225.662 59.6016C225.006 59.6016 224.432 59.7363 223.939 60.0059C223.459 60.2754 223.061 60.6504 222.744 61.1309C222.428 61.5996 222.193 62.1504 222.041 62.7832C221.889 63.416 221.812 64.0957 221.812 64.8223ZM233.133 64.2422L231.322 64.4707C231.322 63.2285 231.475 62.0742 231.779 61.0078C232.096 59.9414 232.559 59.0039 233.168 58.1953C233.789 57.3867 234.557 56.7598 235.471 56.3145C236.385 55.8574 237.439 55.6289 238.635 55.6289C239.549 55.6289 240.381 55.7637 241.131 56.0332C241.881 56.291 242.52 56.707 243.047 57.2812C243.586 57.8438 243.996 58.582 244.277 59.4961C244.57 60.4102 244.717 61.5293 244.717 62.8535V75H239.637V62.8535C239.637 61.9746 239.52 61.3066 239.285 60.8496C239.062 60.3809 238.734 60.0586 238.301 59.8828C237.879 59.6953 237.375 59.6016 236.789 59.6016C236.18 59.6016 235.646 59.7246 235.189 59.9707C234.732 60.2051 234.352 60.5332 234.047 60.9551C233.742 61.377 233.514 61.8691 233.361 62.4316C233.209 62.9824 233.133 63.5859 233.133 64.2422ZM258.902 70.7109V62.2383C258.902 61.6289 258.803 61.1074 258.604 60.6738C258.404 60.2285 258.094 59.8828 257.672 59.6367C257.262 59.3906 256.729 59.2676 256.072 59.2676C255.51 59.2676 255.023 59.3672 254.613 59.5664C254.203 59.7539 253.887 60.0293 253.664 60.3926C253.441 60.7441 253.33 61.1602 253.33 61.6406H248.268C248.268 60.832 248.455 60.0645 248.83 59.3379C249.205 58.6113 249.75 57.9727 250.465 57.4219C251.18 56.8594 252.029 56.4199 253.014 56.1035C254.01 55.7871 255.123 55.6289 256.354 55.6289C257.83 55.6289 259.143 55.875 260.291 56.3672C261.439 56.8594 262.342 57.5977 262.998 58.582C263.666 59.5664 264 60.7969 264 62.2734V70.4121C264 71.4551 264.064 72.3105 264.193 72.9785C264.322 73.6348 264.51 74.209 264.756 74.7012V75H259.641C259.395 74.4844 259.207 73.8398 259.078 73.0664C258.961 72.2812 258.902 71.4961 258.902 70.7109ZM259.57 63.416L259.605 66.2812H256.775C256.107 66.2812 255.527 66.3574 255.035 66.5098C254.543 66.6621 254.139 66.8789 253.822 67.1602C253.506 67.4297 253.271 67.7461 253.119 68.1094C252.979 68.4727 252.908 68.8711 252.908 69.3047C252.908 69.7383 253.008 70.1309 253.207 70.4824C253.406 70.8223 253.693 71.0918 254.068 71.291C254.443 71.4785 254.883 71.5723 255.387 71.5723C256.148 71.5723 256.811 71.4199 257.373 71.1152C257.936 70.8105 258.369 70.4355 258.674 69.9902C258.99 69.5449 259.154 69.123 259.166 68.7246L260.502 70.8691C260.314 71.3496 260.057 71.8477 259.729 72.3633C259.412 72.8789 259.008 73.3652 258.516 73.8223C258.023 74.2676 257.432 74.6367 256.74 74.9297C256.049 75.2109 255.229 75.3516 254.279 75.3516C253.072 75.3516 251.977 75.1113 250.992 74.6309C250.02 74.1387 249.246 73.4648 248.672 72.6094C248.109 71.7422 247.828 70.7578 247.828 69.6562C247.828 68.6602 248.016 67.7754 248.391 67.002C248.766 66.2285 249.316 65.5781 250.043 65.0508C250.781 64.5117 251.701 64.1074 252.803 63.8379C253.904 63.5566 255.182 63.416 256.635 63.416H259.57ZM279.135 70.8516V48H284.232V75H279.645L279.135 70.8516ZM267.111 65.7188V65.3496C267.111 63.8965 267.275 62.5781 267.604 61.3945C267.932 60.1992 268.412 59.1738 269.045 58.3184C269.678 57.4629 270.457 56.8008 271.383 56.332C272.309 55.8633 273.363 55.6289 274.547 55.6289C275.66 55.6289 276.633 55.8633 277.465 56.332C278.309 56.8008 279.023 57.4688 279.609 58.3359C280.207 59.1914 280.688 60.2051 281.051 61.377C281.414 62.5371 281.678 63.8086 281.842 65.1914V66C281.678 67.3242 281.414 68.5547 281.051 69.6914C280.688 70.8281 280.207 71.8242 279.609 72.6797C279.023 73.5234 278.309 74.1797 277.465 74.6484C276.621 75.1172 275.637 75.3516 274.512 75.3516C273.328 75.3516 272.273 75.1113 271.348 74.6309C270.434 74.1504 269.66 73.4766 269.027 72.6094C268.406 71.7422 267.932 70.7227 267.604 69.5508C267.275 68.3789 267.111 67.1016 267.111 65.7188ZM272.174 65.3496V65.7188C272.174 66.5039 272.232 67.2363 272.35 67.916C272.479 68.5957 272.684 69.1992 272.965 69.7266C273.258 70.2422 273.633 70.6465 274.09 70.9395C274.559 71.2207 275.127 71.3613 275.795 71.3613C276.662 71.3613 277.377 71.168 277.939 70.7812C278.502 70.3828 278.93 69.8379 279.223 69.1465C279.527 68.4551 279.703 67.6582 279.75 66.7559V64.4531C279.715 63.7148 279.609 63.0527 279.434 62.4668C279.27 61.8691 279.023 61.3594 278.695 60.9375C278.379 60.5156 277.98 60.1875 277.5 59.9531C277.031 59.7188 276.475 59.6016 275.83 59.6016C275.174 59.6016 274.611 59.7539 274.143 60.0586C273.674 60.3516 273.293 60.7559 273 61.2715C272.719 61.7871 272.508 62.3965 272.367 63.0996C272.238 63.791 272.174 64.541 272.174 65.3496ZM315.979 70.8867V75H297.838V70.8867H315.979ZM315.715 52.3418L300.176 75H296.467V71.9766L312.129 49.4062H315.715V52.3418ZM313.904 49.4062V53.5371H296.484V49.4062H313.904ZM329.285 70.7109V62.2383C329.285 61.6289 329.186 61.1074 328.986 60.6738C328.787 60.2285 328.477 59.8828 328.055 59.6367C327.645 59.3906 327.111 59.2676 326.455 59.2676C325.893 59.2676 325.406 59.3672 324.996 59.5664C324.586 59.7539 324.27 60.0293 324.047 60.3926C323.824 60.7441 323.713 61.1602 323.713 61.6406H318.65C318.65 60.832 318.838 60.0645 319.213 59.3379C319.588 58.6113 320.133 57.9727 320.848 57.4219C321.562 56.8594 322.412 56.4199 323.396 56.1035C324.393 55.7871 325.506 55.6289 326.736 55.6289C328.213 55.6289 329.525 55.875 330.674 56.3672C331.822 56.8594 332.725 57.5977 333.381 58.582C334.049 59.5664 334.383 60.7969 334.383 62.2734V70.4121C334.383 71.4551 334.447 72.3105 334.576 72.9785C334.705 73.6348 334.893 74.209 335.139 74.7012V75H330.023C329.777 74.4844 329.59 73.8398 329.461 73.0664C329.344 72.2812 329.285 71.4961 329.285 70.7109ZM329.953 63.416L329.988 66.2812H327.158C326.49 66.2812 325.91 66.3574 325.418 66.5098C324.926 66.6621 324.521 66.8789 324.205 67.1602C323.889 67.4297 323.654 67.7461 323.502 68.1094C323.361 68.4727 323.291 68.8711 323.291 69.3047C323.291 69.7383 323.391 70.1309 323.59 70.4824C323.789 70.8223 324.076 71.0918 324.451 71.291C324.826 71.4785 325.266 71.5723 325.77 71.5723C326.531 71.5723 327.193 71.4199 327.756 71.1152C328.318 70.8105 328.752 70.4355 329.057 69.9902C329.373 69.5449 329.537 69.123 329.549 68.7246L330.885 70.8691C330.697 71.3496 330.439 71.8477 330.111 72.3633C329.795 72.8789 329.391 73.3652 328.898 73.8223C328.406 74.2676 327.814 74.6367 327.123 74.9297C326.432 75.2109 325.611 75.3516 324.662 75.3516C323.455 75.3516 322.359 75.1113 321.375 74.6309C320.402 74.1387 319.629 73.4648 319.055 72.6094C318.492 71.7422 318.211 70.7578 318.211 69.6562C318.211 68.6602 318.398 67.7754 318.773 67.002C319.148 66.2285 319.699 65.5781 320.426 65.0508C321.164 64.5117 322.084 64.1074 323.186 63.8379C324.287 63.5566 325.564 63.416 327.018 63.416H329.953ZM343.225 48V75H338.162V48H343.225ZM342.504 64.8223H341.115C341.127 63.498 341.303 62.2793 341.643 61.166C341.982 60.041 342.469 59.0684 343.102 58.248C343.734 57.416 344.49 56.7715 345.369 56.3145C346.26 55.8574 347.244 55.6289 348.322 55.6289C349.26 55.6289 350.109 55.7637 350.871 56.0332C351.645 56.291 352.307 56.7129 352.857 57.2988C353.42 57.873 353.854 58.6289 354.158 59.5664C354.463 60.5039 354.615 61.6406 354.615 62.9766V75H349.518V62.9414C349.518 62.0977 349.395 61.4355 349.148 60.9551C348.914 60.4629 348.568 60.1172 348.111 59.918C347.666 59.707 347.115 59.6016 346.459 59.6016C345.732 59.6016 345.111 59.7363 344.596 60.0059C344.092 60.2754 343.688 60.6504 343.383 61.1309C343.078 61.5996 342.855 62.1504 342.715 62.7832C342.574 63.416 342.504 64.0957 342.504 64.8223ZM363.527 60.1289V75H358.465V55.9805H363.229L363.527 60.1289ZM369.258 55.8574L369.17 60.5508C368.924 60.5156 368.625 60.4863 368.273 60.4629C367.934 60.4277 367.623 60.4102 367.342 60.4102C366.627 60.4102 366.006 60.5039 365.479 60.6914C364.963 60.8672 364.529 61.1309 364.178 61.4824C363.838 61.834 363.58 62.2617 363.404 62.7656C363.24 63.2695 363.146 63.8438 363.123 64.4883L362.104 64.1719C362.104 62.9414 362.227 61.8105 362.473 60.7793C362.719 59.7363 363.076 58.8281 363.545 58.0547C364.025 57.2812 364.611 56.6836 365.303 56.2617C365.994 55.8398 366.785 55.6289 367.676 55.6289C367.957 55.6289 368.244 55.6523 368.537 55.6992C368.83 55.7344 369.07 55.7871 369.258 55.8574ZM381.316 70.7109V62.2383C381.316 61.6289 381.217 61.1074 381.018 60.6738C380.818 60.2285 380.508 59.8828 380.086 59.6367C379.676 59.3906 379.143 59.2676 378.486 59.2676C377.924 59.2676 377.438 59.3672 377.027 59.5664C376.617 59.7539 376.301 60.0293 376.078 60.3926C375.855 60.7441 375.744 61.1602 375.744 61.6406H370.682C370.682 60.832 370.869 60.0645 371.244 59.3379C371.619 58.6113 372.164 57.9727 372.879 57.4219C373.594 56.8594 374.443 56.4199 375.428 56.1035C376.424 55.7871 377.537 55.6289 378.768 55.6289C380.244 55.6289 381.557 55.875 382.705 56.3672C383.854 56.8594 384.756 57.5977 385.412 58.582C386.08 59.5664 386.414 60.7969 386.414 62.2734V70.4121C386.414 71.4551 386.479 72.3105 386.607 72.9785C386.736 73.6348 386.924 74.209 387.17 74.7012V75H382.055C381.809 74.4844 381.621 73.8398 381.492 73.0664C381.375 72.2812 381.316 71.4961 381.316 70.7109ZM381.984 63.416L382.02 66.2812H379.189C378.521 66.2812 377.941 66.3574 377.449 66.5098C376.957 66.6621 376.553 66.8789 376.236 67.1602C375.92 67.4297 375.686 67.7461 375.533 68.1094C375.393 68.4727 375.322 68.8711 375.322 69.3047C375.322 69.7383 375.422 70.1309 375.621 70.4824C375.82 70.8223 376.107 71.0918 376.482 71.291C376.857 71.4785 377.297 71.5723 377.801 71.5723C378.562 71.5723 379.225 71.4199 379.787 71.1152C380.35 70.8105 380.783 70.4355 381.088 69.9902C381.404 69.5449 381.568 69.123 381.58 68.7246L382.916 70.8691C382.729 71.3496 382.471 71.8477 382.143 72.3633C381.826 72.8789 381.422 73.3652 380.93 73.8223C380.438 74.2676 379.846 74.6367 379.154 74.9297C378.463 75.2109 377.643 75.3516 376.693 75.3516C375.486 75.3516 374.391 75.1113 373.406 74.6309C372.434 74.1387 371.66 73.4648 371.086 72.6094C370.523 71.7422 370.242 70.7578 370.242 69.6562C370.242 68.6602 370.43 67.7754 370.805 67.002C371.18 66.2285 371.73 65.5781 372.457 65.0508C373.195 64.5117 374.115 64.1074 375.217 63.8379C376.318 63.5566 377.596 63.416 379.049 63.416H381.984ZM395.273 60.041V75H390.211V55.9805H394.957L395.273 60.041ZM394.535 64.8223H393.164C393.164 63.416 393.346 62.1504 393.709 61.0254C394.072 59.8887 394.582 58.9219 395.238 58.125C395.895 57.3164 396.674 56.7012 397.576 56.2793C398.49 55.8457 399.51 55.6289 400.635 55.6289C401.525 55.6289 402.34 55.7578 403.078 56.0156C403.816 56.2734 404.449 56.6836 404.977 57.2461C405.516 57.8086 405.926 58.5527 406.207 59.4785C406.5 60.4043 406.646 61.5352 406.646 62.8711V75H401.549V62.8535C401.549 62.0098 401.432 61.3535 401.197 60.8848C400.963 60.416 400.617 60.0879 400.16 59.9004C399.715 59.7012 399.164 59.6016 398.508 59.6016C397.828 59.6016 397.236 59.7363 396.732 60.0059C396.24 60.2754 395.83 60.6504 395.502 61.1309C395.186 61.5996 394.945 62.1504 394.781 62.7832C394.617 63.416 394.535 64.0957 394.535 64.8223Z" fill="#888888"/>
<path d="M116.543 129.418C116.543 128.798 116.452 128.242 116.27 127.75C116.087 127.24 115.75 126.766 115.258 126.328C114.766 125.891 114.055 125.453 113.125 125.016C112.214 124.56 111.01 124.086 109.516 123.594C107.766 123.01 106.079 122.354 104.457 121.625C102.835 120.878 101.385 120.012 100.109 119.027C98.8333 118.025 97.8216 116.858 97.0742 115.527C96.3268 114.178 95.9531 112.611 95.9531 110.824C95.9531 109.111 96.3359 107.57 97.1016 106.203C97.8672 104.818 98.9336 103.642 100.301 102.676C101.686 101.691 103.309 100.944 105.168 100.434C107.027 99.9049 109.06 99.6406 111.266 99.6406C114.182 99.6406 116.753 100.151 118.977 101.172C121.219 102.174 122.969 103.605 124.227 105.465C125.503 107.306 126.141 109.484 126.141 112H116.598C116.598 110.997 116.388 110.113 115.969 109.348C115.568 108.582 114.957 107.98 114.137 107.543C113.316 107.105 112.286 106.887 111.047 106.887C109.844 106.887 108.832 107.069 108.012 107.434C107.191 107.798 106.572 108.29 106.152 108.91C105.733 109.512 105.523 110.177 105.523 110.906C105.523 111.508 105.688 112.055 106.016 112.547C106.362 113.021 106.845 113.467 107.465 113.887C108.103 114.306 108.868 114.707 109.762 115.09C110.673 115.473 111.694 115.846 112.824 116.211C114.939 116.885 116.816 117.642 118.457 118.48C120.116 119.301 121.51 120.24 122.641 121.297C123.789 122.336 124.655 123.521 125.238 124.852C125.84 126.182 126.141 127.686 126.141 129.363C126.141 131.15 125.794 132.736 125.102 134.121C124.409 135.507 123.415 136.682 122.121 137.648C120.827 138.596 119.277 139.316 117.473 139.809C115.668 140.301 113.654 140.547 111.43 140.547C109.388 140.547 107.374 140.292 105.387 139.781C103.418 139.253 101.632 138.451 100.027 137.375C98.4232 136.281 97.138 134.887 96.1719 133.191C95.224 131.478 94.75 129.445 94.75 127.094H104.375C104.375 128.26 104.53 129.245 104.84 130.047C105.15 130.849 105.605 131.496 106.207 131.988C106.809 132.462 107.547 132.809 108.422 133.027C109.297 133.228 110.299 133.328 111.43 133.328C112.651 133.328 113.635 133.155 114.383 132.809C115.13 132.444 115.677 131.97 116.023 131.387C116.37 130.785 116.543 130.129 116.543 129.418ZM139.676 98V140H130.461V98H139.676ZM138.582 124.195L136.422 124.25C136.422 122.172 136.677 120.258 137.188 118.508C137.698 116.758 138.427 115.236 139.375 113.941C140.323 112.647 141.462 111.645 142.793 110.934C144.124 110.223 145.6 109.867 147.223 109.867C148.681 109.867 150.012 110.077 151.215 110.496C152.436 110.915 153.484 111.59 154.359 112.52C155.253 113.449 155.936 114.661 156.41 116.156C156.902 117.651 157.148 119.474 157.148 121.625V140H147.879V121.57C147.879 120.367 147.706 119.438 147.359 118.781C147.031 118.107 146.557 117.642 145.938 117.387C145.318 117.113 144.561 116.977 143.668 116.977C142.592 116.977 141.717 117.159 141.043 117.523C140.368 117.888 139.849 118.398 139.484 119.055C139.138 119.693 138.901 120.449 138.773 121.324C138.646 122.199 138.582 123.156 138.582 124.195ZM176.59 140.547C174.184 140.547 172.033 140.173 170.137 139.426C168.241 138.66 166.637 137.612 165.324 136.281C164.03 134.951 163.036 133.419 162.344 131.688C161.669 129.956 161.332 128.124 161.332 126.191V125.152C161.332 122.983 161.633 120.978 162.234 119.137C162.836 117.277 163.729 115.655 164.914 114.27C166.099 112.884 167.585 111.809 169.371 111.043C171.158 110.259 173.236 109.867 175.605 109.867C177.702 109.867 179.579 110.204 181.238 110.879C182.897 111.553 184.301 112.52 185.449 113.777C186.616 115.035 187.5 116.557 188.102 118.344C188.721 120.13 189.031 122.135 189.031 124.359V128.105H164.859V122.336H180.035V121.625C180.053 120.641 179.88 119.802 179.516 119.109C179.169 118.417 178.659 117.888 177.984 117.523C177.31 117.159 176.49 116.977 175.523 116.977C174.521 116.977 173.691 117.195 173.035 117.633C172.397 118.07 171.896 118.672 171.531 119.438C171.185 120.185 170.939 121.051 170.793 122.035C170.647 123.02 170.574 124.059 170.574 125.152V126.191C170.574 127.285 170.72 128.279 171.012 129.172C171.322 130.065 171.759 130.831 172.324 131.469C172.908 132.089 173.6 132.572 174.402 132.918C175.223 133.264 176.152 133.438 177.191 133.438C178.449 133.438 179.689 133.201 180.91 132.727C182.132 132.253 183.18 131.469 184.055 130.375L188.238 135.352C187.637 136.208 186.78 137.038 185.668 137.84C184.574 138.642 183.262 139.298 181.73 139.809C180.199 140.301 178.486 140.547 176.59 140.547ZM202.512 98V140H193.27V98H202.512ZM219.492 140H210.223V108.008C210.223 105.711 210.688 103.779 211.617 102.211C212.547 100.643 213.859 99.4583 215.555 98.6562C217.25 97.8359 219.255 97.4258 221.57 97.4258C222.372 97.4258 223.129 97.4805 223.84 97.5898C224.551 97.6992 225.243 97.8359 225.918 98L225.945 104.781C225.617 104.69 225.28 104.626 224.934 104.59C224.587 104.553 224.159 104.535 223.648 104.535C222.755 104.535 221.999 104.672 221.379 104.945C220.759 105.201 220.285 105.592 219.957 106.121C219.647 106.632 219.492 107.26 219.492 108.008V140ZM225.234 110.414V116.812H205.957V110.414H225.234ZM247.684 100.188H255.504L264.391 127.887L273.277 100.188H281.098L267.562 140H261.219L247.684 100.188ZM242.926 100.188H251.02L252.523 130.703V140H242.926V100.188ZM277.762 100.188H285.883V140H276.258V130.703L277.762 100.188ZM306.965 132.562V120.367C306.965 119.529 306.846 118.809 306.609 118.207C306.372 117.605 305.999 117.141 305.488 116.812C304.978 116.466 304.294 116.293 303.438 116.293C302.745 116.293 302.152 116.411 301.66 116.648C301.168 116.885 300.794 117.241 300.539 117.715C300.284 118.189 300.156 118.79 300.156 119.52H290.941C290.941 118.152 291.242 116.885 291.844 115.719C292.464 114.534 293.339 113.504 294.469 112.629C295.617 111.754 296.984 111.079 298.57 110.605C300.174 110.113 301.961 109.867 303.93 109.867C306.281 109.867 308.378 110.259 310.219 111.043C312.078 111.827 313.546 113.003 314.621 114.57C315.697 116.12 316.234 118.07 316.234 120.422V132.535C316.234 134.467 316.344 135.935 316.562 136.938C316.781 137.922 317.091 138.788 317.492 139.535V140H308.25C307.812 139.089 307.484 137.977 307.266 136.664C307.065 135.333 306.965 133.966 306.965 132.562ZM308.086 121.926L308.141 126.848H304.066C303.21 126.848 302.48 126.966 301.879 127.203C301.296 127.44 300.822 127.768 300.457 128.188C300.111 128.589 299.855 129.044 299.691 129.555C299.546 130.065 299.473 130.603 299.473 131.168C299.473 131.715 299.6 132.207 299.855 132.645C300.129 133.064 300.493 133.392 300.949 133.629C301.405 133.866 301.915 133.984 302.48 133.984C303.501 133.984 304.367 133.793 305.078 133.41C305.807 133.009 306.363 132.526 306.746 131.961C307.129 131.396 307.32 130.867 307.32 130.375L309.344 134.148C308.979 134.878 308.56 135.616 308.086 136.363C307.63 137.111 307.056 137.803 306.363 138.441C305.689 139.061 304.859 139.572 303.875 139.973C302.891 140.355 301.697 140.547 300.293 140.547C298.47 140.547 296.793 140.173 295.262 139.426C293.749 138.678 292.536 137.639 291.625 136.309C290.714 134.96 290.258 133.41 290.258 131.66C290.258 130.129 290.531 128.762 291.078 127.559C291.643 126.355 292.491 125.335 293.621 124.496C294.751 123.658 296.191 123.02 297.941 122.582C299.691 122.145 301.751 121.926 304.121 121.926H308.086ZM336.852 131.688C336.852 131.177 336.678 130.74 336.332 130.375C336.004 129.992 335.421 129.646 334.582 129.336C333.743 129.008 332.568 128.68 331.055 128.352C329.615 128.042 328.257 127.632 326.98 127.121C325.723 126.611 324.62 125.991 323.672 125.262C322.724 124.533 321.977 123.667 321.43 122.664C320.901 121.661 320.637 120.513 320.637 119.219C320.637 117.961 320.901 116.776 321.43 115.664C321.977 114.534 322.77 113.54 323.809 112.684C324.866 111.809 326.151 111.125 327.664 110.633C329.177 110.122 330.9 109.867 332.832 109.867C335.493 109.867 337.79 110.277 339.723 111.098C341.655 111.9 343.141 113.03 344.18 114.488C345.237 115.928 345.766 117.596 345.766 119.492H336.551C336.551 118.745 336.423 118.107 336.168 117.578C335.931 117.049 335.539 116.648 334.992 116.375C334.445 116.083 333.716 115.938 332.805 115.938C332.167 115.938 331.583 116.056 331.055 116.293C330.544 116.53 330.134 116.858 329.824 117.277C329.514 117.697 329.359 118.189 329.359 118.754C329.359 119.155 329.451 119.52 329.633 119.848C329.833 120.158 330.134 120.449 330.535 120.723C330.936 120.978 331.447 121.215 332.066 121.434C332.686 121.634 333.434 121.816 334.309 121.98C336.296 122.345 338.155 122.865 339.887 123.539C341.618 124.214 343.022 125.171 344.098 126.41C345.191 127.65 345.738 129.318 345.738 131.414C345.738 132.727 345.438 133.939 344.836 135.051C344.234 136.145 343.368 137.111 342.238 137.949C341.108 138.77 339.75 139.408 338.164 139.863C336.578 140.319 334.792 140.547 332.805 140.547C329.979 140.547 327.591 140.046 325.641 139.043C323.69 138.022 322.214 136.746 321.211 135.215C320.227 133.665 319.734 132.098 319.734 130.512H328.32C328.357 131.423 328.576 132.171 328.977 132.754C329.396 133.337 329.952 133.766 330.645 134.039C331.337 134.312 332.139 134.449 333.051 134.449C333.889 134.449 334.582 134.331 335.129 134.094C335.694 133.857 336.122 133.538 336.414 133.137C336.706 132.717 336.852 132.234 336.852 131.688ZM365.645 110.414V116.812H347.816V110.414H365.645ZM351.562 103.059H360.777V130.348C360.777 131.132 360.868 131.742 361.051 132.18C361.233 132.599 361.543 132.9 361.98 133.082C362.436 133.246 363.038 133.328 363.785 133.328C364.314 133.328 364.751 133.319 365.098 133.301C365.444 133.264 365.772 133.219 366.082 133.164V139.754C365.298 140.009 364.478 140.201 363.621 140.328C362.764 140.474 361.853 140.547 360.887 140.547C358.918 140.547 357.232 140.237 355.828 139.617C354.443 138.997 353.385 138.022 352.656 136.691C351.927 135.361 351.562 133.629 351.562 131.496V103.059ZM383.637 140.547C381.23 140.547 379.079 140.173 377.184 139.426C375.288 138.66 373.684 137.612 372.371 136.281C371.077 134.951 370.083 133.419 369.391 131.688C368.716 129.956 368.379 128.124 368.379 126.191V125.152C368.379 122.983 368.68 120.978 369.281 119.137C369.883 117.277 370.776 115.655 371.961 114.27C373.146 112.884 374.632 111.809 376.418 111.043C378.204 110.259 380.283 109.867 382.652 109.867C384.749 109.867 386.626 110.204 388.285 110.879C389.944 111.553 391.348 112.52 392.496 113.777C393.663 115.035 394.547 116.557 395.148 118.344C395.768 120.13 396.078 122.135 396.078 124.359V128.105H371.906V122.336H387.082V121.625C387.1 120.641 386.927 119.802 386.562 119.109C386.216 118.417 385.706 117.888 385.031 117.523C384.357 117.159 383.536 116.977 382.57 116.977C381.568 116.977 380.738 117.195 380.082 117.633C379.444 118.07 378.943 118.672 378.578 119.438C378.232 120.185 377.986 121.051 377.84 122.035C377.694 123.02 377.621 124.059 377.621 125.152V126.191C377.621 127.285 377.767 128.279 378.059 129.172C378.368 130.065 378.806 130.831 379.371 131.469C379.954 132.089 380.647 132.572 381.449 132.918C382.27 133.264 383.199 133.438 384.238 133.438C385.496 133.438 386.736 133.201 387.957 132.727C389.178 132.253 390.227 131.469 391.102 130.375L395.285 135.352C394.684 136.208 393.827 137.038 392.715 137.84C391.621 138.642 390.309 139.298 388.777 139.809C387.246 140.301 385.533 140.547 383.637 140.547ZM409.121 117.742V140H399.906V110.414H408.52L409.121 117.742ZM417.871 110.195L417.707 118.754C417.342 118.717 416.85 118.672 416.23 118.617C415.611 118.562 415.091 118.535 414.672 118.535C413.596 118.535 412.667 118.663 411.883 118.918C411.117 119.155 410.479 119.52 409.969 120.012C409.477 120.486 409.112 121.087 408.875 121.816C408.656 122.546 408.556 123.393 408.574 124.359L406.906 123.266C406.906 121.279 407.098 119.474 407.48 117.852C407.882 116.211 408.447 114.798 409.176 113.613C409.905 112.41 410.789 111.49 411.828 110.852C412.867 110.195 414.034 109.867 415.328 109.867C415.784 109.867 416.23 109.895 416.668 109.949C417.124 110.004 417.525 110.086 417.871 110.195Z" fill="black"/>
<rect x="93" y="178" width="917" height="77" rx="10" fill="#D3D3D3"/>
<rect x="111" y="196" width="91" height="41" rx="3" fill="#424242"/>
<rect x="111" y="196" width="91" height="41" rx="3" stroke="#424242" stroke-width="4"/>
<path d="M134.141 210.203H139.177C140.161 210.203 141.017 210.35 141.743 210.643C142.47 210.936 143.029 211.369 143.422 211.943C143.82 212.518 144.02 213.227 144.02 214.07C144.02 214.803 143.905 215.415 143.677 215.907C143.448 216.399 143.129 216.807 142.719 217.129C142.314 217.445 141.843 217.706 141.304 217.911L140.293 218.482H136.065L136.048 216.101H139.177C139.569 216.101 139.895 216.03 140.152 215.89C140.41 215.749 140.604 215.55 140.732 215.292C140.867 215.028 140.935 214.715 140.935 214.352C140.935 213.982 140.867 213.666 140.732 213.402C140.598 213.139 140.398 212.937 140.135 212.796C139.877 212.655 139.558 212.585 139.177 212.585H137.226V223H134.141V210.203ZM141.146 223L138.315 217.34L141.585 217.322L144.45 222.868V223H141.146ZM150.348 223.176C149.574 223.176 148.883 223.056 148.273 222.815C147.664 222.569 147.148 222.232 146.727 221.805C146.311 221.377 145.991 220.885 145.769 220.328C145.552 219.771 145.443 219.183 145.443 218.562V218.228C145.443 217.53 145.54 216.886 145.733 216.294C145.927 215.696 146.214 215.175 146.595 214.729C146.976 214.284 147.453 213.938 148.027 213.692C148.602 213.44 149.27 213.314 150.031 213.314C150.705 213.314 151.309 213.423 151.842 213.64C152.375 213.856 152.826 214.167 153.195 214.571C153.57 214.976 153.854 215.465 154.048 216.039C154.247 216.613 154.347 217.258 154.347 217.973V219.177H146.577V217.322H151.455V217.094C151.461 216.777 151.405 216.508 151.288 216.285C151.177 216.062 151.013 215.893 150.796 215.775C150.579 215.658 150.315 215.6 150.005 215.6C149.683 215.6 149.416 215.67 149.205 215.811C149 215.951 148.839 216.145 148.722 216.391C148.61 216.631 148.531 216.909 148.484 217.226C148.438 217.542 148.414 217.876 148.414 218.228V218.562C148.414 218.913 148.461 219.232 148.555 219.52C148.654 219.807 148.795 220.053 148.977 220.258C149.164 220.457 149.387 220.612 149.645 220.724C149.908 220.835 150.207 220.891 150.541 220.891C150.945 220.891 151.344 220.814 151.736 220.662C152.129 220.51 152.466 220.258 152.747 219.906L154.092 221.506C153.898 221.781 153.623 222.048 153.266 222.306C152.914 222.563 152.492 222.774 152 222.938C151.508 223.097 150.957 223.176 150.348 223.176ZM160.49 220.609V216.689C160.49 216.42 160.452 216.188 160.376 215.995C160.3 215.802 160.18 215.652 160.016 215.547C159.852 215.436 159.632 215.38 159.356 215.38C159.134 215.38 158.943 215.418 158.785 215.494C158.627 215.57 158.507 215.685 158.425 215.837C158.343 215.989 158.302 216.183 158.302 216.417H155.34C155.34 215.978 155.437 215.57 155.63 215.195C155.829 214.814 156.11 214.483 156.474 214.202C156.843 213.921 157.282 213.704 157.792 213.552C158.308 213.394 158.882 213.314 159.515 213.314C160.271 213.314 160.944 213.44 161.536 213.692C162.134 213.944 162.605 214.322 162.951 214.826C163.297 215.324 163.47 215.951 163.47 216.707V220.601C163.47 221.222 163.505 221.693 163.575 222.016C163.646 222.332 163.745 222.61 163.874 222.851V223H160.903C160.763 222.707 160.657 222.35 160.587 221.928C160.522 221.5 160.49 221.061 160.49 220.609ZM160.851 217.19L160.868 218.772H159.559C159.283 218.772 159.049 218.811 158.855 218.887C158.668 218.963 158.516 219.068 158.398 219.203C158.287 219.332 158.205 219.479 158.152 219.643C158.105 219.807 158.082 219.979 158.082 220.161C158.082 220.337 158.123 220.495 158.205 220.636C158.293 220.771 158.41 220.876 158.557 220.952C158.703 221.028 158.867 221.066 159.049 221.066C159.377 221.066 159.655 221.005 159.884 220.882C160.118 220.753 160.297 220.598 160.42 220.416C160.543 220.234 160.604 220.064 160.604 219.906L161.255 221.119C161.138 221.354 161.003 221.591 160.851 221.831C160.704 222.071 160.52 222.294 160.297 222.499C160.08 222.698 159.813 222.862 159.497 222.991C159.181 223.114 158.797 223.176 158.346 223.176C157.76 223.176 157.221 223.056 156.729 222.815C156.242 222.575 155.853 222.241 155.56 221.813C155.267 221.38 155.12 220.882 155.12 220.319C155.12 219.827 155.208 219.388 155.384 219.001C155.565 218.614 155.838 218.286 156.201 218.017C156.564 217.747 157.027 217.542 157.59 217.401C158.152 217.261 158.814 217.19 159.576 217.19H160.851ZM169.13 220.891C169.405 220.891 169.64 220.841 169.833 220.741C170.032 220.636 170.182 220.489 170.281 220.302C170.387 220.108 170.437 219.877 170.431 219.607H173.217C173.223 220.322 173.047 220.949 172.689 221.488C172.338 222.021 171.857 222.438 171.248 222.736C170.645 223.029 169.962 223.176 169.2 223.176C168.456 223.176 167.806 223.056 167.249 222.815C166.692 222.569 166.227 222.229 165.852 221.796C165.482 221.356 165.204 220.844 165.017 220.258C164.835 219.672 164.744 219.036 164.744 218.351V218.148C164.744 217.463 164.835 216.827 165.017 216.241C165.204 215.649 165.482 215.137 165.852 214.703C166.227 214.264 166.689 213.924 167.24 213.684C167.797 213.438 168.444 213.314 169.183 213.314C169.974 213.314 170.671 213.464 171.274 213.763C171.884 214.062 172.361 214.495 172.707 215.063C173.053 215.632 173.223 216.32 173.217 217.129H170.431C170.437 216.842 170.393 216.584 170.299 216.355C170.205 216.127 170.059 215.945 169.859 215.811C169.666 215.67 169.417 215.6 169.112 215.6C168.808 215.6 168.562 215.667 168.374 215.802C168.187 215.937 168.043 216.124 167.943 216.364C167.85 216.599 167.785 216.868 167.75 217.173C167.721 217.478 167.706 217.803 167.706 218.148V218.351C167.706 218.702 167.721 219.033 167.75 219.344C167.785 219.648 167.853 219.918 167.952 220.152C168.052 220.381 168.195 220.562 168.383 220.697C168.57 220.826 168.819 220.891 169.13 220.891ZM179.492 213.49V215.547H173.762V213.49H179.492ZM174.966 211.126H177.928V219.897C177.928 220.149 177.957 220.346 178.016 220.486C178.074 220.621 178.174 220.718 178.314 220.776C178.461 220.829 178.654 220.855 178.895 220.855C179.064 220.855 179.205 220.853 179.316 220.847C179.428 220.835 179.533 220.82 179.633 220.803V222.921C179.381 223.003 179.117 223.064 178.842 223.105C178.566 223.152 178.273 223.176 177.963 223.176C177.33 223.176 176.788 223.076 176.337 222.877C175.892 222.678 175.552 222.364 175.317 221.937C175.083 221.509 174.966 220.952 174.966 220.267V211.126Z" fill="white"/>
<rect x="222" y="196" width="130" height="41" rx="3" fill="#424242"/>
<rect x="222" y="196" width="130" height="41" rx="3" stroke="#424242" stroke-width="4"/>
<path d="M253.883 220.627V223H247.062V220.627H253.883ZM248.161 210.203V223H245.076V210.203H248.161ZM253.004 215.283V217.577H247.062V215.283H253.004ZM253.909 210.203V212.585H247.062V210.203H253.909ZM257.521 213.49L258.857 216.109L260.237 213.49H263.313L260.817 218.122L263.445 223H260.343L258.857 220.188L257.381 223H254.278L256.906 218.122L254.419 213.49H257.521ZM267.277 215.318V226.656H264.315V213.49H267.075L267.277 215.318ZM273.113 218.131V218.315C273.113 219.007 273.034 219.648 272.876 220.24C272.718 220.832 272.483 221.348 272.173 221.787C271.862 222.227 271.476 222.569 271.013 222.815C270.556 223.056 270.025 223.176 269.422 223.176C268.854 223.176 268.364 223.05 267.954 222.798C267.544 222.546 267.201 222.197 266.926 221.752C266.65 221.307 266.428 220.797 266.258 220.223C266.088 219.648 265.953 219.042 265.854 218.403V218.166C265.953 217.48 266.088 216.845 266.258 216.259C266.428 215.667 266.65 215.151 266.926 214.712C267.201 214.272 267.541 213.93 267.945 213.684C268.355 213.438 268.845 213.314 269.413 213.314C270.017 213.314 270.547 213.429 271.004 213.657C271.467 213.886 271.854 214.214 272.164 214.642C272.48 215.063 272.718 215.57 272.876 216.162C273.034 216.754 273.113 217.41 273.113 218.131ZM270.151 218.315V218.131C270.151 217.762 270.125 217.425 270.072 217.12C270.02 216.81 269.935 216.54 269.817 216.312C269.706 216.083 269.557 215.907 269.369 215.784C269.182 215.661 268.95 215.6 268.675 215.6C268.358 215.6 268.092 215.649 267.875 215.749C267.664 215.843 267.494 215.989 267.365 216.188C267.242 216.382 267.154 216.625 267.102 216.918C267.055 217.205 267.034 217.542 267.04 217.929V218.649C267.028 219.095 267.072 219.487 267.172 219.827C267.271 220.161 267.444 220.422 267.69 220.609C267.937 220.797 268.271 220.891 268.692 220.891C268.974 220.891 269.208 220.826 269.396 220.697C269.583 220.562 269.732 220.378 269.844 220.144C269.955 219.903 270.034 219.628 270.081 219.317C270.128 219.007 270.151 218.673 270.151 218.315ZM277.42 215.846V223H274.458V213.49H277.227L277.42 215.846ZM280.232 213.42L280.18 216.171C280.062 216.159 279.904 216.145 279.705 216.127C279.506 216.109 279.339 216.101 279.204 216.101C278.858 216.101 278.56 216.142 278.308 216.224C278.062 216.3 277.856 216.417 277.692 216.575C277.534 216.728 277.417 216.921 277.341 217.155C277.271 217.39 277.238 217.662 277.244 217.973L276.708 217.621C276.708 216.982 276.77 216.402 276.893 215.881C277.021 215.354 277.203 214.899 277.438 214.519C277.672 214.132 277.956 213.836 278.29 213.631C278.624 213.42 278.999 213.314 279.415 213.314C279.562 213.314 279.705 213.323 279.846 213.341C279.992 213.358 280.121 213.385 280.232 213.42ZM285.682 223.176C284.908 223.176 284.217 223.056 283.607 222.815C282.998 222.569 282.482 222.232 282.061 221.805C281.645 221.377 281.325 220.885 281.103 220.328C280.886 219.771 280.777 219.183 280.777 218.562V218.228C280.777 217.53 280.874 216.886 281.067 216.294C281.261 215.696 281.548 215.175 281.929 214.729C282.31 214.284 282.787 213.938 283.361 213.692C283.936 213.44 284.604 213.314 285.365 213.314C286.039 213.314 286.643 213.423 287.176 213.64C287.709 213.856 288.16 214.167 288.529 214.571C288.904 214.976 289.188 215.465 289.382 216.039C289.581 216.613 289.681 217.258 289.681 217.973V219.177H281.911V217.322H286.789V217.094C286.795 216.777 286.739 216.508 286.622 216.285C286.511 216.062 286.347 215.893 286.13 215.775C285.913 215.658 285.649 215.6 285.339 215.6C285.017 215.6 284.75 215.67 284.539 215.811C284.334 215.951 284.173 216.145 284.056 216.391C283.944 216.631 283.865 216.909 283.818 217.226C283.771 217.542 283.748 217.876 283.748 218.228V218.562C283.748 218.913 283.795 219.232 283.889 219.52C283.988 219.807 284.129 220.053 284.311 220.258C284.498 220.457 284.721 220.612 284.979 220.724C285.242 220.835 285.541 220.891 285.875 220.891C286.279 220.891 286.678 220.814 287.07 220.662C287.463 220.51 287.8 220.258 288.081 219.906L289.426 221.506C289.232 221.781 288.957 222.048 288.6 222.306C288.248 222.563 287.826 222.774 287.334 222.938C286.842 223.097 286.291 223.176 285.682 223.176ZM295.868 220.328C295.868 220.164 295.812 220.023 295.701 219.906C295.596 219.783 295.408 219.672 295.139 219.572C294.869 219.467 294.491 219.361 294.005 219.256C293.542 219.156 293.105 219.024 292.695 218.86C292.291 218.696 291.937 218.497 291.632 218.263C291.327 218.028 291.087 217.75 290.911 217.428C290.741 217.105 290.656 216.736 290.656 216.32C290.656 215.916 290.741 215.535 290.911 215.178C291.087 214.814 291.342 214.495 291.676 214.22C292.016 213.938 292.429 213.719 292.915 213.561C293.401 213.396 293.955 213.314 294.576 213.314C295.432 213.314 296.17 213.446 296.791 213.71C297.412 213.968 297.89 214.331 298.224 214.8C298.563 215.263 298.733 215.799 298.733 216.408H295.771C295.771 216.168 295.73 215.963 295.648 215.793C295.572 215.623 295.446 215.494 295.271 215.406C295.095 215.312 294.86 215.266 294.567 215.266C294.362 215.266 294.175 215.304 294.005 215.38C293.841 215.456 293.709 215.562 293.609 215.696C293.51 215.831 293.46 215.989 293.46 216.171C293.46 216.3 293.489 216.417 293.548 216.522C293.612 216.622 293.709 216.716 293.838 216.804C293.967 216.886 294.131 216.962 294.33 217.032C294.529 217.097 294.77 217.155 295.051 217.208C295.689 217.325 296.287 217.492 296.844 217.709C297.4 217.926 297.852 218.233 298.197 218.632C298.549 219.03 298.725 219.566 298.725 220.24C298.725 220.662 298.628 221.052 298.435 221.409C298.241 221.761 297.963 222.071 297.6 222.341C297.236 222.604 296.8 222.81 296.29 222.956C295.78 223.103 295.206 223.176 294.567 223.176C293.659 223.176 292.892 223.015 292.265 222.692C291.638 222.364 291.163 221.954 290.841 221.462C290.524 220.964 290.366 220.46 290.366 219.95H293.126C293.138 220.243 293.208 220.483 293.337 220.671C293.472 220.858 293.65 220.996 293.873 221.084C294.096 221.172 294.354 221.216 294.646 221.216C294.916 221.216 295.139 221.178 295.314 221.102C295.496 221.025 295.634 220.923 295.728 220.794C295.821 220.659 295.868 220.504 295.868 220.328ZM305.097 220.328C305.097 220.164 305.041 220.023 304.93 219.906C304.824 219.783 304.637 219.672 304.367 219.572C304.098 219.467 303.72 219.361 303.233 219.256C302.771 219.156 302.334 219.024 301.924 218.86C301.52 218.696 301.165 218.497 300.86 218.263C300.556 218.028 300.315 217.75 300.14 217.428C299.97 217.105 299.885 216.736 299.885 216.32C299.885 215.916 299.97 215.535 300.14 215.178C300.315 214.814 300.57 214.495 300.904 214.22C301.244 213.938 301.657 213.719 302.144 213.561C302.63 213.396 303.184 213.314 303.805 213.314C304.66 213.314 305.398 213.446 306.02 213.71C306.641 213.968 307.118 214.331 307.452 214.8C307.792 215.263 307.962 215.799 307.962 216.408H305C305 216.168 304.959 215.963 304.877 215.793C304.801 215.623 304.675 215.494 304.499 215.406C304.323 215.312 304.089 215.266 303.796 215.266C303.591 215.266 303.403 215.304 303.233 215.38C303.069 215.456 302.938 215.562 302.838 215.696C302.738 215.831 302.688 215.989 302.688 216.171C302.688 216.3 302.718 216.417 302.776 216.522C302.841 216.622 302.938 216.716 303.066 216.804C303.195 216.886 303.359 216.962 303.559 217.032C303.758 217.097 303.998 217.155 304.279 217.208C304.918 217.325 305.516 217.492 306.072 217.709C306.629 217.926 307.08 218.233 307.426 218.632C307.777 219.03 307.953 219.566 307.953 220.24C307.953 220.662 307.856 221.052 307.663 221.409C307.47 221.761 307.191 222.071 306.828 222.341C306.465 222.604 306.028 222.81 305.519 222.956C305.009 223.103 304.435 223.176 303.796 223.176C302.888 223.176 302.12 223.015 301.493 222.692C300.866 222.364 300.392 221.954 300.069 221.462C299.753 220.964 299.595 220.46 299.595 219.95H302.354C302.366 220.243 302.437 220.483 302.565 220.671C302.7 220.858 302.879 220.996 303.102 221.084C303.324 221.172 303.582 221.216 303.875 221.216C304.145 221.216 304.367 221.178 304.543 221.102C304.725 221.025 304.862 220.923 304.956 220.794C305.05 220.659 305.097 220.504 305.097 220.328ZM314.571 218.983V210.203H317.647V218.983C317.647 219.839 317.451 220.58 317.059 221.207C316.672 221.834 316.145 222.32 315.477 222.666C314.814 223.006 314.07 223.176 313.244 223.176C312.389 223.176 311.627 223.032 310.959 222.745C310.297 222.458 309.775 222.016 309.395 221.418C309.02 220.82 308.832 220.059 308.832 219.133H311.926C311.926 219.566 311.976 219.906 312.075 220.152C312.175 220.393 312.321 220.562 312.515 220.662C312.714 220.756 312.957 220.803 313.244 220.803C313.525 220.803 313.763 220.732 313.956 220.592C314.155 220.445 314.308 220.237 314.413 219.968C314.519 219.692 314.571 219.364 314.571 218.983ZM326.199 219.599C326.199 219.399 326.17 219.221 326.111 219.062C326.053 218.898 325.944 218.746 325.786 218.605C325.628 218.465 325.399 218.324 325.101 218.184C324.808 218.037 324.421 217.885 323.94 217.727C323.378 217.539 322.836 217.328 322.314 217.094C321.793 216.854 321.327 216.575 320.917 216.259C320.507 215.937 320.182 215.562 319.941 215.134C319.701 214.7 319.581 214.196 319.581 213.622C319.581 213.071 319.704 212.576 319.95 212.137C320.196 211.691 320.539 211.313 320.979 211.003C321.424 210.687 321.945 210.446 322.543 210.282C323.141 210.112 323.794 210.027 324.503 210.027C325.44 210.027 326.267 210.191 326.981 210.52C327.702 210.842 328.265 211.302 328.669 211.899C329.079 212.491 329.284 213.191 329.284 214H326.217C326.217 213.678 326.149 213.394 326.015 213.147C325.886 212.901 325.689 212.708 325.426 212.567C325.162 212.427 324.831 212.356 324.433 212.356C324.046 212.356 323.721 212.415 323.457 212.532C323.193 212.649 322.994 212.808 322.859 213.007C322.725 213.2 322.657 213.414 322.657 213.648C322.657 213.842 322.71 214.018 322.815 214.176C322.927 214.328 323.082 214.472 323.281 214.606C323.486 214.741 323.732 214.87 324.02 214.993C324.312 215.116 324.641 215.236 325.004 215.354C325.684 215.57 326.287 215.813 326.814 216.083C327.348 216.347 327.796 216.648 328.159 216.988C328.528 217.322 328.807 217.703 328.994 218.131C329.188 218.559 329.284 219.042 329.284 219.581C329.284 220.155 329.173 220.665 328.95 221.11C328.728 221.556 328.408 221.934 327.992 222.244C327.576 222.549 327.078 222.78 326.498 222.938C325.918 223.097 325.271 223.176 324.556 223.176C323.899 223.176 323.252 223.094 322.613 222.93C321.98 222.76 321.406 222.502 320.891 222.156C320.375 221.805 319.962 221.356 319.651 220.812C319.347 220.261 319.194 219.607 319.194 218.852H322.288C322.288 219.227 322.338 219.543 322.438 219.801C322.537 220.059 322.684 220.267 322.877 220.425C323.07 220.577 323.308 220.688 323.589 220.759C323.87 220.823 324.192 220.855 324.556 220.855C324.948 220.855 325.265 220.8 325.505 220.688C325.745 220.571 325.921 220.419 326.032 220.231C326.144 220.038 326.199 219.827 326.199 219.599Z" fill="white"/>
<rect x="372" y="196" width="109" height="41" rx="3" fill="#424242"/>
<rect x="372" y="196" width="109" height="41" rx="3" stroke="#424242" stroke-width="4"/>
<path d="M406.118 210.203V223H403.042L398.516 215.037V223H395.431V210.203H398.516L403.042 218.166V210.203H406.118ZM407.56 218.342V218.157C407.56 217.46 407.659 216.818 407.858 216.232C408.058 215.641 408.351 215.128 408.737 214.694C409.124 214.261 409.602 213.924 410.17 213.684C410.738 213.438 411.395 213.314 412.139 213.314C412.889 213.314 413.548 213.438 414.116 213.684C414.69 213.924 415.171 214.261 415.558 214.694C415.944 215.128 416.237 215.641 416.437 216.232C416.636 216.818 416.735 217.46 416.735 218.157V218.342C416.735 219.033 416.636 219.675 416.437 220.267C416.237 220.853 415.944 221.365 415.558 221.805C415.171 222.238 414.693 222.575 414.125 222.815C413.557 223.056 412.9 223.176 412.156 223.176C411.412 223.176 410.753 223.056 410.179 222.815C409.604 222.575 409.124 222.238 408.737 221.805C408.351 221.365 408.058 220.853 407.858 220.267C407.659 219.675 407.56 219.033 407.56 218.342ZM410.521 218.157V218.342C410.521 218.699 410.548 219.033 410.601 219.344C410.653 219.654 410.741 219.927 410.864 220.161C410.987 220.39 411.154 220.568 411.365 220.697C411.576 220.826 411.84 220.891 412.156 220.891C412.467 220.891 412.725 220.826 412.93 220.697C413.141 220.568 413.308 220.39 413.431 220.161C413.554 219.927 413.642 219.654 413.694 219.344C413.747 219.033 413.773 218.699 413.773 218.342V218.157C413.773 217.812 413.747 217.486 413.694 217.182C413.642 216.871 413.554 216.599 413.431 216.364C413.308 216.124 413.141 215.937 412.93 215.802C412.719 215.667 412.455 215.6 412.139 215.6C411.828 215.6 411.567 215.667 411.356 215.802C411.151 215.937 410.987 216.124 410.864 216.364C410.741 216.599 410.653 216.871 410.601 217.182C410.548 217.486 410.521 217.812 410.521 218.157ZM423.521 220.82V209.5H426.5V223H423.828L423.521 220.82ZM417.685 218.359V218.175C417.685 217.454 417.764 216.798 417.922 216.206C418.08 215.608 418.314 215.096 418.625 214.668C418.936 214.234 419.322 213.9 419.785 213.666C420.248 213.432 420.781 213.314 421.385 213.314C421.924 213.314 422.396 213.44 422.8 213.692C423.204 213.938 423.55 214.284 423.837 214.729C424.124 215.175 424.358 215.696 424.54 216.294C424.722 216.886 424.859 217.524 424.953 218.21V218.43C424.859 219.074 424.722 219.684 424.54 220.258C424.358 220.826 424.124 221.33 423.837 221.77C423.55 222.209 423.201 222.555 422.791 222.807C422.387 223.053 421.912 223.176 421.367 223.176C420.764 223.176 420.23 223.056 419.768 222.815C419.311 222.575 418.927 222.238 418.616 221.805C418.312 221.371 418.08 220.861 417.922 220.275C417.764 219.689 417.685 219.051 417.685 218.359ZM420.646 218.175V218.359C420.646 218.717 420.67 219.048 420.717 219.353C420.764 219.657 420.843 219.927 420.954 220.161C421.071 220.39 421.224 220.568 421.411 220.697C421.604 220.826 421.842 220.891 422.123 220.891C422.504 220.891 422.817 220.8 423.063 220.618C423.315 220.437 423.5 220.179 423.617 219.845C423.74 219.511 423.793 219.118 423.775 218.667V217.973C423.787 217.586 423.761 217.246 423.696 216.953C423.632 216.654 423.529 216.405 423.389 216.206C423.254 216.007 423.081 215.857 422.87 215.758C422.665 215.652 422.422 215.6 422.141 215.6C421.865 215.6 421.631 215.664 421.438 215.793C421.25 215.922 421.098 216.104 420.98 216.338C420.863 216.566 420.778 216.839 420.726 217.155C420.673 217.466 420.646 217.806 420.646 218.175ZM432.784 223.176C432.011 223.176 431.319 223.056 430.71 222.815C430.101 222.569 429.585 222.232 429.163 221.805C428.747 221.377 428.428 220.885 428.205 220.328C427.988 219.771 427.88 219.183 427.88 218.562V218.228C427.88 217.53 427.977 216.886 428.17 216.294C428.363 215.696 428.65 215.175 429.031 214.729C429.412 214.284 429.89 213.938 430.464 213.692C431.038 213.44 431.706 213.314 432.468 213.314C433.142 213.314 433.745 213.423 434.278 213.64C434.812 213.856 435.263 214.167 435.632 214.571C436.007 214.976 436.291 215.465 436.484 216.039C436.684 216.613 436.783 217.258 436.783 217.973V219.177H429.014V217.322H433.892V217.094C433.897 216.777 433.842 216.508 433.725 216.285C433.613 216.062 433.449 215.893 433.232 215.775C433.016 215.658 432.752 215.6 432.441 215.6C432.119 215.6 431.853 215.67 431.642 215.811C431.437 215.951 431.275 216.145 431.158 216.391C431.047 216.631 430.968 216.909 430.921 217.226C430.874 217.542 430.851 217.876 430.851 218.228V218.562C430.851 218.913 430.897 219.232 430.991 219.52C431.091 219.807 431.231 220.053 431.413 220.258C431.601 220.457 431.823 220.612 432.081 220.724C432.345 220.835 432.644 220.891 432.978 220.891C433.382 220.891 433.78 220.814 434.173 220.662C434.565 220.51 434.902 220.258 435.184 219.906L436.528 221.506C436.335 221.781 436.06 222.048 435.702 222.306C435.351 222.563 434.929 222.774 434.437 222.938C433.944 223.097 433.394 223.176 432.784 223.176ZM443.217 218.983V210.203H446.293V218.983C446.293 219.839 446.097 220.58 445.704 221.207C445.317 221.834 444.79 222.32 444.122 222.666C443.46 223.006 442.716 223.176 441.89 223.176C441.034 223.176 440.272 223.032 439.604 222.745C438.942 222.458 438.421 222.016 438.04 221.418C437.665 220.82 437.478 220.059 437.478 219.133H440.571C440.571 219.566 440.621 219.906 440.721 220.152C440.82 220.393 440.967 220.562 441.16 220.662C441.359 220.756 441.603 220.803 441.89 220.803C442.171 220.803 442.408 220.732 442.602 220.592C442.801 220.445 442.953 220.237 443.059 219.968C443.164 219.692 443.217 219.364 443.217 218.983ZM454.845 219.599C454.845 219.399 454.815 219.221 454.757 219.062C454.698 218.898 454.59 218.746 454.432 218.605C454.273 218.465 454.045 218.324 453.746 218.184C453.453 218.037 453.066 217.885 452.586 217.727C452.023 217.539 451.481 217.328 450.96 217.094C450.438 216.854 449.973 216.575 449.562 216.259C449.152 215.937 448.827 215.562 448.587 215.134C448.347 214.7 448.227 214.196 448.227 213.622C448.227 213.071 448.35 212.576 448.596 212.137C448.842 211.691 449.185 211.313 449.624 211.003C450.069 210.687 450.591 210.446 451.188 210.282C451.786 210.112 452.439 210.027 453.148 210.027C454.086 210.027 454.912 210.191 455.627 210.52C456.348 210.842 456.91 211.302 457.314 211.899C457.725 212.491 457.93 213.191 457.93 214H454.862C454.862 213.678 454.795 213.394 454.66 213.147C454.531 212.901 454.335 212.708 454.071 212.567C453.808 212.427 453.477 212.356 453.078 212.356C452.691 212.356 452.366 212.415 452.103 212.532C451.839 212.649 451.64 212.808 451.505 213.007C451.37 213.2 451.303 213.414 451.303 213.648C451.303 213.842 451.355 214.018 451.461 214.176C451.572 214.328 451.728 214.472 451.927 214.606C452.132 214.741 452.378 214.87 452.665 214.993C452.958 215.116 453.286 215.236 453.649 215.354C454.329 215.57 454.933 215.813 455.46 216.083C455.993 216.347 456.441 216.648 456.805 216.988C457.174 217.322 457.452 217.703 457.64 218.131C457.833 218.559 457.93 219.042 457.93 219.581C457.93 220.155 457.818 220.665 457.596 221.11C457.373 221.556 457.054 221.934 456.638 222.244C456.222 222.549 455.724 222.78 455.144 222.938C454.563 223.097 453.916 223.176 453.201 223.176C452.545 223.176 451.897 223.094 451.259 222.93C450.626 222.76 450.052 222.502 449.536 222.156C449.021 221.805 448.607 221.356 448.297 220.812C447.992 220.261 447.84 219.607 447.84 218.852H450.934C450.934 219.227 450.983 219.543 451.083 219.801C451.183 220.059 451.329 220.267 451.522 220.425C451.716 220.577 451.953 220.688 452.234 220.759C452.516 220.823 452.838 220.855 453.201 220.855C453.594 220.855 453.91 220.8 454.15 220.688C454.391 220.571 454.566 220.419 454.678 220.231C454.789 220.038 454.845 219.827 454.845 219.599Z" fill="white"/>
<rect x="501" y="196" width="124" height="41" rx="3" fill="#424242"/>
<rect x="501" y="196" width="124" height="41" rx="3" stroke="#424242" stroke-width="4"/>
<path d="M525.585 210.203H528.099L530.955 219.106L533.812 210.203H536.325L531.975 223H529.936L525.585 210.203ZM524.056 210.203H526.657L527.141 220.012V223H524.056V210.203ZM535.253 210.203H537.863V223H534.77V220.012L535.253 210.203ZM539.331 218.342V218.157C539.331 217.46 539.431 216.818 539.63 216.232C539.829 215.641 540.122 215.128 540.509 214.694C540.896 214.261 541.373 213.924 541.941 213.684C542.51 213.438 543.166 213.314 543.91 213.314C544.66 213.314 545.319 213.438 545.888 213.684C546.462 213.924 546.942 214.261 547.329 214.694C547.716 215.128 548.009 215.641 548.208 216.232C548.407 216.818 548.507 217.46 548.507 218.157V218.342C548.507 219.033 548.407 219.675 548.208 220.267C548.009 220.853 547.716 221.365 547.329 221.805C546.942 222.238 546.465 222.575 545.896 222.815C545.328 223.056 544.672 223.176 543.928 223.176C543.184 223.176 542.524 223.056 541.95 222.815C541.376 222.575 540.896 222.238 540.509 221.805C540.122 221.365 539.829 220.853 539.63 220.267C539.431 219.675 539.331 219.033 539.331 218.342ZM542.293 218.157V218.342C542.293 218.699 542.319 219.033 542.372 219.344C542.425 219.654 542.513 219.927 542.636 220.161C542.759 220.39 542.926 220.568 543.137 220.697C543.348 220.826 543.611 220.891 543.928 220.891C544.238 220.891 544.496 220.826 544.701 220.697C544.912 220.568 545.079 220.39 545.202 220.161C545.325 219.927 545.413 219.654 545.466 219.344C545.519 219.033 545.545 218.699 545.545 218.342V218.157C545.545 217.812 545.519 217.486 545.466 217.182C545.413 216.871 545.325 216.599 545.202 216.364C545.079 216.124 544.912 215.937 544.701 215.802C544.49 215.667 544.227 215.6 543.91 215.6C543.6 215.6 543.339 215.667 543.128 215.802C542.923 215.937 542.759 216.124 542.636 216.364C542.513 216.599 542.425 216.871 542.372 217.182C542.319 217.486 542.293 217.812 542.293 218.157ZM552.734 215.521V223H549.772V213.49H552.55L552.734 215.521ZM552.383 217.92L551.688 217.938C551.688 217.211 551.776 216.563 551.952 215.995C552.128 215.421 552.377 214.935 552.699 214.536C553.021 214.138 553.405 213.836 553.851 213.631C554.302 213.42 554.803 213.314 555.354 213.314C555.793 213.314 556.194 213.379 556.558 213.508C556.927 213.637 557.243 213.845 557.507 214.132C557.776 214.419 557.981 214.8 558.122 215.274C558.269 215.743 558.342 216.323 558.342 217.015V223H555.362V217.006C555.362 216.625 555.31 216.335 555.204 216.136C555.099 215.931 554.946 215.79 554.747 215.714C554.548 215.638 554.305 215.6 554.018 215.6C553.713 215.6 553.455 215.658 553.244 215.775C553.033 215.893 552.863 216.057 552.734 216.268C552.611 216.473 552.521 216.716 552.462 216.997C552.409 217.278 552.383 217.586 552.383 217.92ZM565.962 213.49H568.651V222.631C568.651 223.51 568.449 224.254 568.045 224.863C567.641 225.479 567.075 225.944 566.349 226.261C565.628 226.583 564.784 226.744 563.817 226.744C563.39 226.744 562.953 226.688 562.508 226.577C562.062 226.472 561.646 226.313 561.26 226.103C560.873 225.892 560.548 225.631 560.284 225.32L561.523 223.58C561.764 223.85 562.065 224.078 562.429 224.266C562.792 224.459 563.22 224.556 563.712 224.556C564.14 224.556 564.497 224.479 564.784 224.327C565.077 224.175 565.3 223.952 565.452 223.659C565.604 223.372 565.681 223.023 565.681 222.613V215.74L565.962 213.49ZM559.643 218.359V218.175C559.643 217.454 559.73 216.798 559.906 216.206C560.088 215.608 560.346 215.096 560.68 214.668C561.02 214.234 561.43 213.9 561.91 213.666C562.391 213.432 562.933 213.314 563.536 213.314C564.187 213.314 564.72 213.44 565.136 213.692C565.558 213.938 565.895 214.284 566.146 214.729C566.404 215.175 566.604 215.696 566.744 216.294C566.891 216.886 567.014 217.524 567.113 218.21V218.43C567.014 219.074 566.876 219.684 566.7 220.258C566.53 220.826 566.308 221.33 566.032 221.77C565.757 222.209 565.411 222.555 564.995 222.807C564.585 223.053 564.093 223.176 563.519 223.176C562.921 223.176 562.382 223.056 561.901 222.815C561.427 222.575 561.02 222.238 560.68 221.805C560.346 221.371 560.088 220.861 559.906 220.275C559.73 219.689 559.643 219.051 559.643 218.359ZM562.604 218.175V218.359C562.604 218.717 562.637 219.048 562.701 219.353C562.771 219.657 562.877 219.927 563.018 220.161C563.158 220.39 563.331 220.568 563.536 220.697C563.747 220.826 563.993 220.891 564.274 220.891C564.702 220.891 565.048 220.8 565.312 220.618C565.575 220.437 565.766 220.179 565.883 219.845C566 219.511 566.05 219.118 566.032 218.667V217.973C566.044 217.586 566.018 217.246 565.953 216.953C565.889 216.654 565.786 216.405 565.646 216.206C565.511 216.007 565.329 215.857 565.101 215.758C564.878 215.652 564.608 215.6 564.292 215.6C564.017 215.6 563.773 215.664 563.562 215.793C563.352 215.922 563.176 216.104 563.035 216.338C562.895 216.566 562.786 216.839 562.71 217.155C562.64 217.466 562.604 217.806 562.604 218.175ZM569.987 218.342V218.157C569.987 217.46 570.087 216.818 570.286 216.232C570.485 215.641 570.778 215.128 571.165 214.694C571.552 214.261 572.029 213.924 572.598 213.684C573.166 213.438 573.822 213.314 574.566 213.314C575.316 213.314 575.976 213.438 576.544 213.684C577.118 213.924 577.599 214.261 577.985 214.694C578.372 215.128 578.665 215.641 578.864 216.232C579.063 216.818 579.163 217.46 579.163 218.157V218.342C579.163 219.033 579.063 219.675 578.864 220.267C578.665 220.853 578.372 221.365 577.985 221.805C577.599 222.238 577.121 222.575 576.553 222.815C575.984 223.056 575.328 223.176 574.584 223.176C573.84 223.176 573.181 223.056 572.606 222.815C572.032 222.575 571.552 222.238 571.165 221.805C570.778 221.365 570.485 220.853 570.286 220.267C570.087 219.675 569.987 219.033 569.987 218.342ZM572.949 218.157V218.342C572.949 218.699 572.976 219.033 573.028 219.344C573.081 219.654 573.169 219.927 573.292 220.161C573.415 220.39 573.582 220.568 573.793 220.697C574.004 220.826 574.268 220.891 574.584 220.891C574.895 220.891 575.152 220.826 575.357 220.697C575.568 220.568 575.735 220.39 575.858 220.161C575.981 219.927 576.069 219.654 576.122 219.344C576.175 219.033 576.201 218.699 576.201 218.342V218.157C576.201 217.812 576.175 217.486 576.122 217.182C576.069 216.871 575.981 216.599 575.858 216.364C575.735 216.124 575.568 215.937 575.357 215.802C575.146 215.667 574.883 215.6 574.566 215.6C574.256 215.6 573.995 215.667 573.784 215.802C573.579 215.937 573.415 216.124 573.292 216.364C573.169 216.599 573.081 216.871 573.028 217.182C572.976 217.486 572.949 217.812 572.949 218.157ZM584.779 223H581.94L581.958 220.627H584.779C585.365 220.627 585.86 220.486 586.265 220.205C586.675 219.924 586.985 219.505 587.196 218.948C587.413 218.386 587.521 217.694 587.521 216.874V216.32C587.521 215.705 587.46 215.166 587.337 214.703C587.22 214.234 587.044 213.845 586.81 213.534C586.575 213.218 586.282 212.98 585.931 212.822C585.585 212.664 585.187 212.585 584.735 212.585H581.888V210.203H584.735C585.603 210.203 586.396 210.353 587.117 210.651C587.844 210.944 588.471 211.366 588.998 211.917C589.531 212.462 589.941 213.109 590.229 213.859C590.521 214.604 590.668 215.43 590.668 216.338V216.874C590.668 217.776 590.521 218.603 590.229 219.353C589.941 220.103 589.534 220.75 589.007 221.295C588.479 221.84 587.855 222.262 587.135 222.561C586.42 222.854 585.635 223 584.779 223ZM583.707 210.203V223H580.622V210.203H583.707ZM597.497 217.56H594.201L594.184 215.538H596.855C597.336 215.538 597.72 215.485 598.007 215.38C598.294 215.269 598.502 215.107 598.631 214.896C598.766 214.686 598.833 214.422 598.833 214.105C598.833 213.742 598.766 213.449 598.631 213.227C598.496 213.004 598.282 212.843 597.989 212.743C597.702 212.638 597.33 212.585 596.873 212.585H595.361V223H592.276V210.203H596.873C597.664 210.203 598.37 210.276 598.991 210.423C599.612 210.563 600.14 210.78 600.573 211.073C601.013 211.366 601.347 211.735 601.575 212.181C601.804 212.62 601.918 213.139 601.918 213.736C601.918 214.258 601.807 214.747 601.584 215.204C601.361 215.661 600.989 216.033 600.468 216.32C599.952 216.602 599.246 216.748 598.35 216.76L597.497 217.56ZM597.374 223H593.454L594.509 220.627H597.374C597.796 220.627 598.133 220.562 598.385 220.434C598.643 220.299 598.827 220.123 598.938 219.906C599.056 219.684 599.114 219.438 599.114 219.168C599.114 218.84 599.059 218.556 598.947 218.315C598.842 218.075 598.672 217.891 598.438 217.762C598.203 217.627 597.89 217.56 597.497 217.56H594.904L594.922 215.538H598.024L598.745 216.347C599.601 216.312 600.277 216.432 600.775 216.707C601.279 216.982 601.64 217.346 601.856 217.797C602.073 218.248 602.182 218.72 602.182 219.212C602.182 220.05 602 220.75 601.637 221.312C601.279 221.875 600.743 222.297 600.028 222.578C599.313 222.859 598.429 223 597.374 223Z" fill="white"/>
<rect x="645" y="196" width="112" height="41" rx="3" fill="#424242"/>
<rect x="645" y="196" width="112" height="41" rx="3" stroke="#424242" stroke-width="4"/>
<path d="M674.51 210.203V223H671.425V210.203H674.51ZM678.359 210.203V212.585H667.663V210.203H678.359ZM682.429 209.5V223H679.467V209.5H682.429ZM682.077 217.92L681.383 217.938C681.383 217.27 681.465 216.654 681.629 216.092C681.793 215.529 682.027 215.04 682.332 214.624C682.637 214.208 683.003 213.886 683.431 213.657C683.858 213.429 684.333 213.314 684.854 213.314C685.323 213.314 685.751 213.382 686.138 213.517C686.53 213.651 686.867 213.868 687.148 214.167C687.436 214.466 687.655 214.855 687.808 215.336C687.966 215.816 688.045 216.402 688.045 217.094V223H685.065V217.076C685.065 216.689 685.01 216.391 684.898 216.18C684.793 215.963 684.641 215.813 684.441 215.731C684.242 215.644 683.999 215.6 683.712 215.6C683.366 215.6 683.085 215.658 682.868 215.775C682.651 215.893 682.484 216.057 682.367 216.268C682.256 216.473 682.18 216.716 682.139 216.997C682.098 217.278 682.077 217.586 682.077 217.92ZM692.677 215.846V223H689.715V213.49H692.483L692.677 215.846ZM695.489 213.42L695.437 216.171C695.319 216.159 695.161 216.145 694.962 216.127C694.763 216.109 694.596 216.101 694.461 216.101C694.115 216.101 693.816 216.142 693.564 216.224C693.318 216.3 693.113 216.417 692.949 216.575C692.791 216.728 692.674 216.921 692.598 217.155C692.527 217.39 692.495 217.662 692.501 217.973L691.965 217.621C691.965 216.982 692.026 216.402 692.149 215.881C692.278 215.354 692.46 214.899 692.694 214.519C692.929 214.132 693.213 213.836 693.547 213.631C693.881 213.42 694.256 213.314 694.672 213.314C694.818 213.314 694.962 213.323 695.103 213.341C695.249 213.358 695.378 213.385 695.489 213.42ZM700.938 223.176C700.165 223.176 699.474 223.056 698.864 222.815C698.255 222.569 697.739 222.232 697.317 221.805C696.901 221.377 696.582 220.885 696.359 220.328C696.143 219.771 696.034 219.183 696.034 218.562V218.228C696.034 217.53 696.131 216.886 696.324 216.294C696.518 215.696 696.805 215.175 697.186 214.729C697.566 214.284 698.044 213.938 698.618 213.692C699.192 213.44 699.86 213.314 700.622 213.314C701.296 213.314 701.899 213.423 702.433 213.64C702.966 213.856 703.417 214.167 703.786 214.571C704.161 214.976 704.445 215.465 704.639 216.039C704.838 216.613 704.938 217.258 704.938 217.973V219.177H697.168V217.322H702.046V217.094C702.052 216.777 701.996 216.508 701.879 216.285C701.768 216.062 701.604 215.893 701.387 215.775C701.17 215.658 700.906 215.6 700.596 215.6C700.273 215.6 700.007 215.67 699.796 215.811C699.591 215.951 699.43 216.145 699.312 216.391C699.201 216.631 699.122 216.909 699.075 217.226C699.028 217.542 699.005 217.876 699.005 218.228V218.562C699.005 218.913 699.052 219.232 699.146 219.52C699.245 219.807 699.386 220.053 699.567 220.258C699.755 220.457 699.978 220.612 700.235 220.724C700.499 220.835 700.798 220.891 701.132 220.891C701.536 220.891 701.935 220.814 702.327 220.662C702.72 220.51 703.057 220.258 703.338 219.906L704.683 221.506C704.489 221.781 704.214 222.048 703.856 222.306C703.505 222.563 703.083 222.774 702.591 222.938C702.099 223.097 701.548 223.176 700.938 223.176ZM710.747 223.176C709.974 223.176 709.282 223.056 708.673 222.815C708.063 222.569 707.548 222.232 707.126 221.805C706.71 221.377 706.391 220.885 706.168 220.328C705.951 219.771 705.843 219.183 705.843 218.562V218.228C705.843 217.53 705.939 216.886 706.133 216.294C706.326 215.696 706.613 215.175 706.994 214.729C707.375 214.284 707.853 213.938 708.427 213.692C709.001 213.44 709.669 213.314 710.431 213.314C711.104 213.314 711.708 213.423 712.241 213.64C712.774 213.856 713.226 214.167 713.595 214.571C713.97 214.976 714.254 215.465 714.447 216.039C714.646 216.613 714.746 217.258 714.746 217.973V219.177H706.977V217.322H711.854V217.094C711.86 216.777 711.805 216.508 711.688 216.285C711.576 216.062 711.412 215.893 711.195 215.775C710.979 215.658 710.715 215.6 710.404 215.6C710.082 215.6 709.815 215.67 709.604 215.811C709.399 215.951 709.238 216.145 709.121 216.391C709.01 216.631 708.931 216.909 708.884 217.226C708.837 217.542 708.813 217.876 708.813 218.228V218.562C708.813 218.913 708.86 219.232 708.954 219.52C709.054 219.807 709.194 220.053 709.376 220.258C709.563 220.457 709.786 220.612 710.044 220.724C710.308 220.835 710.606 220.891 710.94 220.891C711.345 220.891 711.743 220.814 712.136 220.662C712.528 220.51 712.865 220.258 713.146 219.906L714.491 221.506C714.298 221.781 714.022 222.048 713.665 222.306C713.313 222.563 712.892 222.774 712.399 222.938C711.907 223.097 711.356 223.176 710.747 223.176ZM716.144 221.611C716.144 221.189 716.296 220.838 716.601 220.557C716.905 220.27 717.298 220.126 717.778 220.126C718.265 220.126 718.657 220.27 718.956 220.557C719.261 220.838 719.413 221.189 719.413 221.611C719.413 222.033 719.261 222.388 718.956 222.675C718.657 222.956 718.265 223.097 717.778 223.097C717.298 223.097 716.905 222.956 716.601 222.675C716.296 222.388 716.144 222.033 716.144 221.611ZM721.619 213.49H724.59V223.308C724.59 224.069 724.443 224.711 724.15 225.232C723.857 225.76 723.438 226.158 722.894 226.428C722.349 226.703 721.698 226.841 720.942 226.841C720.69 226.841 720.459 226.829 720.248 226.806C720.031 226.788 719.794 226.75 719.536 226.691V224.45C719.688 224.474 719.829 224.491 719.958 224.503C720.087 224.521 720.228 224.529 720.38 224.529C720.649 224.529 720.875 224.485 721.057 224.397C721.238 224.31 721.376 224.175 721.47 223.993C721.569 223.812 721.619 223.583 721.619 223.308V213.49ZM721.399 211.038C721.399 210.616 721.552 210.271 721.856 210.001C722.161 209.731 722.557 209.597 723.043 209.597C723.529 209.597 723.925 209.731 724.229 210.001C724.534 210.271 724.687 210.616 724.687 211.038C724.687 211.46 724.534 211.806 724.229 212.075C723.925 212.345 723.529 212.479 723.043 212.479C722.557 212.479 722.161 212.345 721.856 212.075C721.552 211.806 721.399 211.46 721.399 211.038ZM731.252 220.328C731.252 220.164 731.196 220.023 731.085 219.906C730.979 219.783 730.792 219.672 730.522 219.572C730.253 219.467 729.875 219.361 729.389 219.256C728.926 219.156 728.489 219.024 728.079 218.86C727.675 218.696 727.32 218.497 727.016 218.263C726.711 218.028 726.471 217.75 726.295 217.428C726.125 217.105 726.04 216.736 726.04 216.32C726.04 215.916 726.125 215.535 726.295 215.178C726.471 214.814 726.726 214.495 727.06 214.22C727.399 213.938 727.812 213.719 728.299 213.561C728.785 213.396 729.339 213.314 729.96 213.314C730.815 213.314 731.554 213.446 732.175 213.71C732.796 213.968 733.273 214.331 733.607 214.8C733.947 215.263 734.117 215.799 734.117 216.408H731.155C731.155 216.168 731.114 215.963 731.032 215.793C730.956 215.623 730.83 215.494 730.654 215.406C730.479 215.312 730.244 215.266 729.951 215.266C729.746 215.266 729.559 215.304 729.389 215.38C729.225 215.456 729.093 215.562 728.993 215.696C728.894 215.831 728.844 215.989 728.844 216.171C728.844 216.3 728.873 216.417 728.932 216.522C728.996 216.622 729.093 216.716 729.222 216.804C729.351 216.886 729.515 216.962 729.714 217.032C729.913 217.097 730.153 217.155 730.435 217.208C731.073 217.325 731.671 217.492 732.228 217.709C732.784 217.926 733.235 218.233 733.581 218.632C733.933 219.03 734.108 219.566 734.108 220.24C734.108 220.662 734.012 221.052 733.818 221.409C733.625 221.761 733.347 222.071 732.983 222.341C732.62 222.604 732.184 222.81 731.674 222.956C731.164 223.103 730.59 223.176 729.951 223.176C729.043 223.176 728.275 223.015 727.648 222.692C727.021 222.364 726.547 221.954 726.225 221.462C725.908 220.964 725.75 220.46 725.75 219.95H728.51C728.521 220.243 728.592 220.483 728.721 220.671C728.855 220.858 729.034 220.996 729.257 221.084C729.479 221.172 729.737 221.216 730.03 221.216C730.3 221.216 730.522 221.178 730.698 221.102C730.88 221.025 731.018 220.923 731.111 220.794C731.205 220.659 731.252 220.504 731.252 220.328Z" fill="white"/>
<path d="M1066 0H1348C1356.28 0 1363 6.71573 1363 15V282C1363 290.284 1356.28 297 1348 297H1066V0Z" fill="white"/>
</svg>
