<svg width="1363" height="163" viewBox="0 0 1363 163" fill="none" xmlns="http://www.w3.org/2000/svg">
<path d="M0 15C0 6.71573 6.71573 0 15 0H37V163H15C6.71573 163 0 156.284 0 148V15Z" fill="#424242"/>
<rect width="1097" height="163" transform="translate(37)" fill="#F0F0F0"/>
<path d="M101.906 53.9219L94.3945 51.2383V48.0859L104.602 52.375V54.6367L101.906 53.9219ZM94.3945 56.1719L101.918 53.4297L104.602 52.7852V55.0352L94.3945 59.3242V56.1719ZM121.781 56.5352C121.781 56.2305 121.734 55.957 121.641 55.7148C121.555 55.4648 121.391 55.2383 121.148 55.0352C120.906 54.8242 120.566 54.6172 120.129 54.4141C119.691 54.2109 119.125 54 118.43 53.7812C117.656 53.5312 116.922 53.25 116.227 52.9375C115.539 52.625 114.93 52.2617 114.398 51.8477C113.875 51.4258 113.461 50.9375 113.156 50.3828C112.859 49.8281 112.711 49.1836 112.711 48.4492C112.711 47.7383 112.867 47.0938 113.18 46.5156C113.492 45.9297 113.93 45.4297 114.492 45.0156C115.055 44.5938 115.719 44.2695 116.484 44.043C117.258 43.8164 118.105 43.7031 119.027 43.7031C120.285 43.7031 121.383 43.9297 122.32 44.3828C123.258 44.8359 123.984 45.457 124.5 46.2461C125.023 47.0352 125.285 47.9375 125.285 48.9531H121.793C121.793 48.4531 121.688 48.0156 121.477 47.6406C121.273 47.2578 120.961 46.957 120.539 46.7383C120.125 46.5195 119.602 46.4102 118.969 46.4102C118.359 46.4102 117.852 46.5039 117.445 46.6914C117.039 46.8711 116.734 47.1172 116.531 47.4297C116.328 47.7344 116.227 48.0781 116.227 48.4609C116.227 48.75 116.297 49.0117 116.438 49.2461C116.586 49.4805 116.805 49.6992 117.094 49.9023C117.383 50.1055 117.738 50.2969 118.16 50.4766C118.582 50.6562 119.07 50.832 119.625 51.0039C120.555 51.2852 121.371 51.6016 122.074 51.9531C122.785 52.3047 123.379 52.6992 123.855 53.1367C124.332 53.5742 124.691 54.0703 124.934 54.625C125.176 55.1797 125.297 55.8086 125.297 56.5117C125.297 57.2539 125.152 57.918 124.863 58.5039C124.574 59.0898 124.156 59.5859 123.609 59.9922C123.062 60.3984 122.41 60.707 121.652 60.918C120.895 61.1289 120.047 61.2344 119.109 61.2344C118.266 61.2344 117.434 61.125 116.613 60.9062C115.793 60.6797 115.047 60.3398 114.375 59.8867C113.711 59.4336 113.18 58.8555 112.781 58.1523C112.383 57.4492 112.184 56.6172 112.184 55.6562H115.711C115.711 56.1875 115.793 56.6367 115.957 57.0039C116.121 57.3711 116.352 57.668 116.648 57.8945C116.953 58.1211 117.312 58.2852 117.727 58.3867C118.148 58.4883 118.609 58.5391 119.109 58.5391C119.719 58.5391 120.219 58.4531 120.609 58.2812C121.008 58.1094 121.301 57.8711 121.488 57.5664C121.684 57.2617 121.781 56.918 121.781 56.5352ZM130.77 43V61H127.395V43H130.77ZM130.289 54.2148H129.363C129.371 53.332 129.488 52.5195 129.715 51.7773C129.941 51.0273 130.266 50.3789 130.688 49.832C131.109 49.2773 131.613 48.8477 132.199 48.543C132.793 48.2383 133.449 48.0859 134.168 48.0859C134.793 48.0859 135.359 48.1758 135.867 48.3555C136.383 48.5273 136.824 48.8086 137.191 49.1992C137.566 49.582 137.855 50.0859 138.059 50.7109C138.262 51.3359 138.363 52.0938 138.363 52.9844V61H134.965V52.9609C134.965 52.3984 134.883 51.957 134.719 51.6367C134.562 51.3086 134.332 51.0781 134.027 50.9453C133.73 50.8047 133.363 50.7344 132.926 50.7344C132.441 50.7344 132.027 50.8242 131.684 51.0039C131.348 51.1836 131.078 51.4336 130.875 51.7539C130.672 52.0664 130.523 52.4336 130.43 52.8555C130.336 53.2773 130.289 53.7305 130.289 54.2148ZM146.766 61.2344C145.781 61.2344 144.898 61.0781 144.117 60.7656C143.336 60.4453 142.672 60.0039 142.125 59.4414C141.586 58.8789 141.172 58.2266 140.883 57.4844C140.594 56.7344 140.449 55.9375 140.449 55.0938V54.625C140.449 53.6641 140.586 52.7852 140.859 51.9883C141.133 51.1914 141.523 50.5 142.031 49.9141C142.547 49.3281 143.172 48.8789 143.906 48.5664C144.641 48.2461 145.469 48.0859 146.391 48.0859C147.289 48.0859 148.086 48.2344 148.781 48.5312C149.477 48.8281 150.059 49.25 150.527 49.7969C151.004 50.3438 151.363 51 151.605 51.7656C151.848 52.5234 151.969 53.3672 151.969 54.2969V55.7031H141.891V53.4531H148.652V53.1953C148.652 52.7266 148.566 52.3086 148.395 51.9414C148.23 51.5664 147.98 51.2695 147.645 51.0508C147.309 50.832 146.879 50.7227 146.355 50.7227C145.91 50.7227 145.527 50.8203 145.207 51.0156C144.887 51.2109 144.625 51.4844 144.422 51.8359C144.227 52.1875 144.078 52.6016 143.977 53.0781C143.883 53.5469 143.836 54.0625 143.836 54.625V55.0938C143.836 55.6016 143.906 56.0703 144.047 56.5C144.195 56.9297 144.402 57.3008 144.668 57.6133C144.941 57.9258 145.27 58.168 145.652 58.3398C146.043 58.5117 146.484 58.5977 146.977 58.5977C147.586 58.5977 148.152 58.4805 148.676 58.2461C149.207 58.0039 149.664 57.6406 150.047 57.1562L151.688 58.9375C151.422 59.3203 151.059 59.6875 150.598 60.0391C150.145 60.3906 149.598 60.6797 148.957 60.9062C148.316 61.125 147.586 61.2344 146.766 61.2344ZM157.453 43V61H154.066V43H157.453ZM164.543 61H161.145V47.1953C161.145 46.2344 161.332 45.4258 161.707 44.7695C162.09 44.1055 162.625 43.6055 163.312 43.2695C164.008 42.9258 164.832 42.7539 165.785 42.7539C166.098 42.7539 166.398 42.7773 166.688 42.8242C166.977 42.8633 167.258 42.9141 167.531 42.9766L167.496 45.5195C167.348 45.4805 167.191 45.4531 167.027 45.4375C166.863 45.4219 166.672 45.4141 166.453 45.4141C166.047 45.4141 165.699 45.4844 165.41 45.625C165.129 45.7578 164.914 45.957 164.766 46.2227C164.617 46.4883 164.543 46.8125 164.543 47.1953V61ZM167.074 48.3203V50.7109H159.258V48.3203H167.074ZM176.637 43.9375H179.613L183.996 56.4648L188.379 43.9375H191.355L185.191 61H182.801L176.637 43.9375ZM175.031 43.9375H177.996L178.535 56.1484V61H175.031V43.9375ZM189.996 43.9375H192.973V61H189.457V56.1484L189.996 43.9375ZM202.688 58.1406V52.4922C202.688 52.0859 202.621 51.7383 202.488 51.4492C202.355 51.1523 202.148 50.9219 201.867 50.7578C201.594 50.5938 201.238 50.5117 200.801 50.5117C200.426 50.5117 200.102 50.5781 199.828 50.7109C199.555 50.8359 199.344 51.0195 199.195 51.2617C199.047 51.4961 198.973 51.7734 198.973 52.0938H195.598C195.598 51.5547 195.723 51.043 195.973 50.5586C196.223 50.0742 196.586 49.6484 197.062 49.2812C197.539 48.9062 198.105 48.6133 198.762 48.4023C199.426 48.1914 200.168 48.0859 200.988 48.0859C201.973 48.0859 202.848 48.25 203.613 48.5781C204.379 48.9062 204.98 49.3984 205.418 50.0547C205.863 50.7109 206.086 51.5312 206.086 52.5156V57.9414C206.086 58.6367 206.129 59.207 206.215 59.6523C206.301 60.0898 206.426 60.4727 206.59 60.8008V61H203.18C203.016 60.6562 202.891 60.2266 202.805 59.7109C202.727 59.1875 202.688 58.6641 202.688 58.1406ZM203.133 53.2773L203.156 55.1875H201.27C200.824 55.1875 200.438 55.2383 200.109 55.3398C199.781 55.4414 199.512 55.5859 199.301 55.7734C199.09 55.9531 198.934 56.1641 198.832 56.4062C198.738 56.6484 198.691 56.9141 198.691 57.2031C198.691 57.4922 198.758 57.7539 198.891 57.9883C199.023 58.2148 199.215 58.3945 199.465 58.5273C199.715 58.6523 200.008 58.7148 200.344 58.7148C200.852 58.7148 201.293 58.6133 201.668 58.4102C202.043 58.207 202.332 57.957 202.535 57.6602C202.746 57.3633 202.855 57.082 202.863 56.8164L203.754 58.2461C203.629 58.5664 203.457 58.8984 203.238 59.2422C203.027 59.5859 202.758 59.9102 202.43 60.2148C202.102 60.5117 201.707 60.7578 201.246 60.9531C200.785 61.1406 200.238 61.2344 199.605 61.2344C198.801 61.2344 198.07 61.0742 197.414 60.7539C196.766 60.4258 196.25 59.9766 195.867 59.4062C195.492 58.8281 195.305 58.1719 195.305 57.4375C195.305 56.7734 195.43 56.1836 195.68 55.668C195.93 55.1523 196.297 54.7188 196.781 54.3672C197.273 54.0078 197.887 53.7383 198.621 53.5586C199.355 53.3711 200.207 53.2773 201.176 53.2773H203.133ZM215.543 57.4961C215.543 57.2539 215.473 57.0352 215.332 56.8398C215.191 56.6445 214.93 56.4648 214.547 56.3008C214.172 56.1289 213.629 55.9727 212.918 55.832C212.277 55.6914 211.68 55.5156 211.125 55.3047C210.578 55.0859 210.102 54.8242 209.695 54.5195C209.297 54.2148 208.984 53.8555 208.758 53.4414C208.531 53.0195 208.418 52.5391 208.418 52C208.418 51.4688 208.531 50.9688 208.758 50.5C208.992 50.0312 209.324 49.6172 209.754 49.2578C210.191 48.8906 210.723 48.6055 211.348 48.4023C211.98 48.1914 212.691 48.0859 213.48 48.0859C214.582 48.0859 215.527 48.2617 216.316 48.6133C217.113 48.9648 217.723 49.4492 218.145 50.0664C218.574 50.6758 218.789 51.3711 218.789 52.1523H215.414C215.414 51.8242 215.344 51.5312 215.203 51.2734C215.07 51.0078 214.859 50.8008 214.57 50.6523C214.289 50.4961 213.922 50.418 213.469 50.418C213.094 50.418 212.77 50.4844 212.496 50.6172C212.223 50.7422 212.012 50.9141 211.863 51.1328C211.723 51.3438 211.652 51.5781 211.652 51.8359C211.652 52.0312 211.691 52.207 211.77 52.3633C211.855 52.5117 211.992 52.6484 212.18 52.7734C212.367 52.8984 212.609 53.0156 212.906 53.125C213.211 53.2266 213.586 53.3203 214.031 53.4062C214.945 53.5938 215.762 53.8398 216.48 54.1445C217.199 54.4414 217.77 54.8477 218.191 55.3633C218.613 55.8711 218.824 56.5391 218.824 57.3672C218.824 57.9297 218.699 58.4453 218.449 58.9141C218.199 59.3828 217.84 59.793 217.371 60.1445C216.902 60.4883 216.34 60.7578 215.684 60.9531C215.035 61.1406 214.305 61.2344 213.492 61.2344C212.312 61.2344 211.312 61.0234 210.492 60.6016C209.68 60.1797 209.062 59.6445 208.641 58.9961C208.227 58.3398 208.02 57.668 208.02 56.9805H211.219C211.234 57.4414 211.352 57.8125 211.57 58.0938C211.797 58.375 212.082 58.5781 212.426 58.7031C212.777 58.8281 213.156 58.8906 213.562 58.8906C214 58.8906 214.363 58.832 214.652 58.7148C214.941 58.5898 215.16 58.4258 215.309 58.2227C215.465 58.0117 215.543 57.7695 215.543 57.4961ZM227.227 48.3203V50.7109H219.844V48.3203H227.227ZM221.672 45.1914H225.047V57.1797C225.047 57.5469 225.094 57.8281 225.188 58.0234C225.289 58.2188 225.438 58.3555 225.633 58.4336C225.828 58.5039 226.074 58.5391 226.371 58.5391C226.582 58.5391 226.77 58.5312 226.934 58.5156C227.105 58.4922 227.25 58.4688 227.367 58.4453L227.379 60.9297C227.09 61.0234 226.777 61.0977 226.441 61.1523C226.105 61.207 225.734 61.2344 225.328 61.2344C224.586 61.2344 223.938 61.1133 223.383 60.8711C222.836 60.6211 222.414 60.2227 222.117 59.6758C221.82 59.1289 221.672 58.4102 221.672 57.5195V45.1914ZM234.984 61.2344C234 61.2344 233.117 61.0781 232.336 60.7656C231.555 60.4453 230.891 60.0039 230.344 59.4414C229.805 58.8789 229.391 58.2266 229.102 57.4844C228.812 56.7344 228.668 55.9375 228.668 55.0938V54.625C228.668 53.6641 228.805 52.7852 229.078 51.9883C229.352 51.1914 229.742 50.5 230.25 49.9141C230.766 49.3281 231.391 48.8789 232.125 48.5664C232.859 48.2461 233.688 48.0859 234.609 48.0859C235.508 48.0859 236.305 48.2344 237 48.5312C237.695 48.8281 238.277 49.25 238.746 49.7969C239.223 50.3438 239.582 51 239.824 51.7656C240.066 52.5234 240.188 53.3672 240.188 54.2969V55.7031H230.109V53.4531H236.871V53.1953C236.871 52.7266 236.785 52.3086 236.613 51.9414C236.449 51.5664 236.199 51.2695 235.863 51.0508C235.527 50.832 235.098 50.7227 234.574 50.7227C234.129 50.7227 233.746 50.8203 233.426 51.0156C233.105 51.2109 232.844 51.4844 232.641 51.8359C232.445 52.1875 232.297 52.6016 232.195 53.0781C232.102 53.5469 232.055 54.0625 232.055 54.625V55.0938C232.055 55.6016 232.125 56.0703 232.266 56.5C232.414 56.9297 232.621 57.3008 232.887 57.6133C233.16 57.9258 233.488 58.168 233.871 58.3398C234.262 58.5117 234.703 58.5977 235.195 58.5977C235.805 58.5977 236.371 58.4805 236.895 58.2461C237.426 58.0039 237.883 57.6406 238.266 57.1562L239.906 58.9375C239.641 59.3203 239.277 59.6875 238.816 60.0391C238.363 60.3906 237.816 60.6797 237.176 60.9062C236.535 61.125 235.805 61.2344 234.984 61.2344ZM245.484 51.0859V61H242.109V48.3203H245.285L245.484 51.0859ZM249.305 48.2383L249.246 51.3672C249.082 51.3438 248.883 51.3242 248.648 51.3086C248.422 51.2852 248.215 51.2734 248.027 51.2734C247.551 51.2734 247.137 51.3359 246.785 51.4609C246.441 51.5781 246.152 51.7539 245.918 51.9883C245.691 52.2227 245.52 52.5078 245.402 52.8438C245.293 53.1797 245.23 53.5625 245.215 53.9922L244.535 53.7812C244.535 52.9609 244.617 52.207 244.781 51.5195C244.945 50.8242 245.184 50.2188 245.496 49.7031C245.816 49.1875 246.207 48.7891 246.668 48.5078C247.129 48.2266 247.656 48.0859 248.25 48.0859C248.438 48.0859 248.629 48.1016 248.824 48.1328C249.02 48.1562 249.18 48.1914 249.305 48.2383Z" fill="#888888"/>
<path d="M110.062 92.0469L101.742 119H92.9062L105.445 84.875H111.047L110.062 92.0469ZM116.953 119L108.609 92.0469L107.531 84.875H113.203L125.812 119H116.953ZM116.625 106.273V112.625H99.1172V106.273H116.625ZM135.258 115.906L142.055 84.875H146.109L148.312 87.5234L141.07 119H136.594L135.258 115.906ZM133.453 84.875L139.195 116.141L137.719 119H132.539L125.297 84.875H133.453ZM152.039 115.977L157.734 84.875H165.867L158.625 119H153.469L152.039 115.977ZM149.039 84.875L156 116.094L154.594 119H150.117L142.711 87.4766L145.008 84.875H149.039ZM186.68 109.93C186.68 109.398 186.602 108.922 186.445 108.5C186.289 108.062 186 107.656 185.578 107.281C185.156 106.906 184.547 106.531 183.75 106.156C182.969 105.766 181.938 105.359 180.656 104.938C179.156 104.438 177.711 103.875 176.32 103.25C174.93 102.609 173.688 101.867 172.594 101.023C171.5 100.164 170.633 99.1641 169.992 98.0234C169.352 96.8672 169.031 95.5234 169.031 93.9922C169.031 92.5234 169.359 91.2031 170.016 90.0312C170.672 88.8438 171.586 87.8359 172.758 87.0078C173.945 86.1641 175.336 85.5234 176.93 85.0859C178.523 84.6328 180.266 84.4062 182.156 84.4062C184.656 84.4062 186.859 84.8438 188.766 85.7188C190.688 86.5781 192.188 87.8047 193.266 89.3984C194.359 90.9766 194.906 92.8438 194.906 95H186.727C186.727 94.1406 186.547 93.3828 186.188 92.7266C185.844 92.0703 185.32 91.5547 184.617 91.1797C183.914 90.8047 183.031 90.6172 181.969 90.6172C180.938 90.6172 180.07 90.7734 179.367 91.0859C178.664 91.3984 178.133 91.8203 177.773 92.3516C177.414 92.8672 177.234 93.4375 177.234 94.0625C177.234 94.5781 177.375 95.0469 177.656 95.4688C177.953 95.875 178.367 96.2578 178.898 96.6172C179.445 96.9766 180.102 97.3203 180.867 97.6484C181.648 97.9766 182.523 98.2969 183.492 98.6094C185.305 99.1875 186.914 99.8359 188.32 100.555C189.742 101.258 190.938 102.062 191.906 102.969C192.891 103.859 193.633 104.875 194.133 106.016C194.648 107.156 194.906 108.445 194.906 109.883C194.906 111.414 194.609 112.773 194.016 113.961C193.422 115.148 192.57 116.156 191.461 116.984C190.352 117.797 189.023 118.414 187.477 118.836C185.93 119.258 184.203 119.469 182.297 119.469C180.547 119.469 178.82 119.25 177.117 118.812C175.43 118.359 173.898 117.672 172.523 116.75C171.148 115.812 170.047 114.617 169.219 113.164C168.406 111.695 168 109.953 168 107.938H176.25C176.25 108.938 176.383 109.781 176.648 110.469C176.914 111.156 177.305 111.711 177.82 112.133C178.336 112.539 178.969 112.836 179.719 113.023C180.469 113.195 181.328 113.281 182.297 113.281C183.344 113.281 184.188 113.133 184.828 112.836C185.469 112.523 185.938 112.117 186.234 111.617C186.531 111.102 186.68 110.539 186.68 109.93ZM222.188 119H214.617L214.664 112.672H222.188C223.75 112.672 225.07 112.297 226.148 111.547C227.242 110.797 228.07 109.68 228.633 108.195C229.211 106.695 229.5 104.852 229.5 102.664V101.188C229.5 99.5469 229.336 98.1094 229.008 96.875C228.695 95.625 228.227 94.5859 227.602 93.7578C226.977 92.9141 226.195 92.2812 225.258 91.8594C224.336 91.4375 223.273 91.2266 222.07 91.2266H214.477V84.875H222.07C224.383 84.875 226.5 85.2734 228.422 86.0703C230.359 86.8516 232.031 87.9766 233.438 89.4453C234.859 90.8984 235.953 92.625 236.719 94.625C237.5 96.6094 237.891 98.8125 237.891 101.234V102.664C237.891 105.07 237.5 107.273 236.719 109.273C235.953 111.273 234.867 113 233.461 114.453C232.055 115.906 230.391 117.031 228.469 117.828C226.562 118.609 224.469 119 222.188 119ZM219.328 84.875V119H211.102V84.875H219.328ZM254.086 119.469C252.023 119.469 250.18 119.148 248.555 118.508C246.93 117.852 245.555 116.953 244.43 115.812C243.32 114.672 242.469 113.359 241.875 111.875C241.297 110.391 241.008 108.82 241.008 107.164V106.273C241.008 104.414 241.266 102.695 241.781 101.117C242.297 99.5234 243.062 98.1328 244.078 96.9453C245.094 95.7578 246.367 94.8359 247.898 94.1797C249.43 93.5078 251.211 93.1719 253.242 93.1719C255.039 93.1719 256.648 93.4609 258.07 94.0391C259.492 94.6172 260.695 95.4453 261.68 96.5234C262.68 97.6016 263.438 98.9062 263.953 100.438C264.484 101.969 264.75 103.688 264.75 105.594V108.805H244.031V103.859H257.039V103.25C257.055 102.406 256.906 101.688 256.594 101.094C256.297 100.5 255.859 100.047 255.281 99.7344C254.703 99.4219 254 99.2656 253.172 99.2656C252.312 99.2656 251.602 99.4531 251.039 99.8281C250.492 100.203 250.062 100.719 249.75 101.375C249.453 102.016 249.242 102.758 249.117 103.602C248.992 104.445 248.93 105.336 248.93 106.273V107.164C248.93 108.102 249.055 108.953 249.305 109.719C249.57 110.484 249.945 111.141 250.43 111.688C250.93 112.219 251.523 112.633 252.211 112.93C252.914 113.227 253.711 113.375 254.602 113.375C255.68 113.375 256.742 113.172 257.789 112.766C258.836 112.359 259.734 111.688 260.484 110.75L264.07 115.016C263.555 115.75 262.82 116.461 261.867 117.148C260.93 117.836 259.805 118.398 258.492 118.836C257.18 119.258 255.711 119.469 254.086 119.469ZM275.93 98.5156V128.75H268.031V93.6406H275.391L275.93 98.5156ZM291.492 106.016V106.508C291.492 108.352 291.281 110.062 290.859 111.641C290.438 113.219 289.812 114.594 288.984 115.766C288.156 116.938 287.125 117.852 285.891 118.508C284.672 119.148 283.258 119.469 281.648 119.469C280.133 119.469 278.828 119.133 277.734 118.461C276.641 117.789 275.727 116.859 274.992 115.672C274.258 114.484 273.664 113.125 273.211 111.594C272.758 110.062 272.398 108.445 272.133 106.742V106.109C272.398 104.281 272.758 102.586 273.211 101.023C273.664 99.4453 274.258 98.0703 274.992 96.8984C275.727 95.7266 276.633 94.8125 277.711 94.1562C278.805 93.5 280.109 93.1719 281.625 93.1719C283.234 93.1719 284.648 93.4766 285.867 94.0859C287.102 94.6953 288.133 95.5703 288.961 96.7109C289.805 97.8359 290.438 99.1875 290.859 100.766C291.281 102.344 291.492 104.094 291.492 106.016ZM283.594 106.508V106.016C283.594 105.031 283.523 104.133 283.383 103.32C283.242 102.492 283.016 101.773 282.703 101.164C282.406 100.555 282.008 100.086 281.508 99.7578C281.008 99.4297 280.391 99.2656 279.656 99.2656C278.812 99.2656 278.102 99.3984 277.523 99.6641C276.961 99.9141 276.508 100.305 276.164 100.836C275.836 101.352 275.602 102 275.461 102.781C275.336 103.547 275.281 104.445 275.297 105.477V107.398C275.266 108.586 275.383 109.633 275.648 110.539C275.914 111.43 276.375 112.125 277.031 112.625C277.688 113.125 278.578 113.375 279.703 113.375C280.453 113.375 281.078 113.203 281.578 112.859C282.078 112.5 282.477 112.008 282.773 111.383C283.07 110.742 283.281 110.008 283.406 109.18C283.531 108.352 283.594 107.461 283.594 106.508ZM303.352 83V119H295.43V83H303.352ZM307.242 106.578V106.086C307.242 104.227 307.508 102.516 308.039 100.953C308.57 99.375 309.352 98.0078 310.383 96.8516C311.414 95.6953 312.688 94.7969 314.203 94.1562C315.719 93.5 317.469 93.1719 319.453 93.1719C321.453 93.1719 323.211 93.5 324.727 94.1562C326.258 94.7969 327.539 95.6953 328.57 96.8516C329.602 98.0078 330.383 99.375 330.914 100.953C331.445 102.516 331.711 104.227 331.711 106.086V106.578C331.711 108.422 331.445 110.133 330.914 111.711C330.383 113.273 329.602 114.641 328.57 115.812C327.539 116.969 326.266 117.867 324.75 118.508C323.234 119.148 321.484 119.469 319.5 119.469C317.516 119.469 315.758 119.148 314.227 118.508C312.695 117.867 311.414 116.969 310.383 115.812C309.352 114.641 308.57 113.273 308.039 111.711C307.508 110.133 307.242 108.422 307.242 106.578ZM315.141 106.086V106.578C315.141 107.531 315.211 108.422 315.352 109.25C315.492 110.078 315.727 110.805 316.055 111.43C316.383 112.039 316.828 112.516 317.391 112.859C317.953 113.203 318.656 113.375 319.5 113.375C320.328 113.375 321.016 113.203 321.562 112.859C322.125 112.516 322.57 112.039 322.898 111.43C323.227 110.805 323.461 110.078 323.602 109.25C323.742 108.422 323.812 107.531 323.812 106.578V106.086C323.812 105.164 323.742 104.297 323.602 103.484C323.461 102.656 323.227 101.93 322.898 101.305C322.57 100.664 322.125 100.164 321.562 99.8047C321 99.4453 320.297 99.2656 319.453 99.2656C318.625 99.2656 317.93 99.4453 317.367 99.8047C316.82 100.164 316.383 100.664 316.055 101.305C315.727 101.93 315.492 102.656 315.352 103.484C315.211 104.297 315.141 105.164 315.141 106.086ZM342.633 116.023L349.195 93.6406H357.68L347.484 122.773C347.266 123.414 346.977 124.102 346.617 124.836C346.258 125.586 345.766 126.297 345.141 126.969C344.516 127.641 343.711 128.188 342.727 128.609C341.758 129.031 340.555 129.242 339.117 129.242C338.352 129.242 337.789 129.203 337.43 129.125C337.086 129.062 336.555 128.945 335.836 128.773V123.125C336.039 123.125 336.211 123.125 336.352 123.125C336.508 123.125 336.68 123.125 336.867 123.125C337.711 123.125 338.383 123.039 338.883 122.867C339.398 122.695 339.789 122.445 340.055 122.117C340.336 121.789 340.555 121.391 340.711 120.922L342.633 116.023ZM340.969 93.6406L345.961 111.383L346.828 119.75H341.531L332.508 93.6406H340.969ZM367.711 99.0078V119H359.812V93.6406H367.219L367.711 99.0078ZM366.75 105.453L364.945 105.5C364.945 103.719 365.156 102.078 365.578 100.578C366 99.0781 366.625 97.7734 367.453 96.6641C368.281 95.5547 369.297 94.6953 370.5 94.0859C371.719 93.4766 373.125 93.1719 374.719 93.1719C375.828 93.1719 376.836 93.3438 377.742 93.6875C378.648 94.0156 379.43 94.5391 380.086 95.2578C380.742 95.9609 381.242 96.8828 381.586 98.0234C381.945 99.1484 382.125 100.5 382.125 102.078V119H374.227V103.086C374.227 102.008 374.102 101.195 373.852 100.648C373.617 100.102 373.273 99.7344 372.82 99.5469C372.367 99.3594 371.812 99.2656 371.156 99.2656C370.469 99.2656 369.852 99.4219 369.305 99.7344C368.758 100.047 368.289 100.484 367.898 101.047C367.523 101.594 367.234 102.242 367.031 102.992C366.844 103.742 366.75 104.562 366.75 105.453ZM381.234 105.453L379.031 105.5C379.031 103.719 379.227 102.078 379.617 100.578C380.023 99.0781 380.625 97.7734 381.422 96.6641C382.234 95.5547 383.242 94.6953 384.445 94.0859C385.648 93.4766 387.047 93.1719 388.641 93.1719C389.797 93.1719 390.859 93.3438 391.828 93.6875C392.797 94.0312 393.633 94.5859 394.336 95.3516C395.039 96.1172 395.586 97.1328 395.977 98.3984C396.367 99.6484 396.562 101.195 396.562 103.039V119H388.641V103.039C388.641 101.992 388.516 101.203 388.266 100.672C388.031 100.125 387.688 99.7578 387.234 99.5703C386.781 99.3672 386.242 99.2656 385.617 99.2656C384.867 99.2656 384.219 99.4219 383.672 99.7344C383.125 100.047 382.664 100.484 382.289 101.047C381.93 101.594 381.664 102.242 381.492 102.992C381.32 103.742 381.234 104.562 381.234 105.453ZM413.367 119.469C411.305 119.469 409.461 119.148 407.836 118.508C406.211 117.852 404.836 116.953 403.711 115.812C402.602 114.672 401.75 113.359 401.156 111.875C400.578 110.391 400.289 108.82 400.289 107.164V106.273C400.289 104.414 400.547 102.695 401.062 101.117C401.578 99.5234 402.344 98.1328 403.359 96.9453C404.375 95.7578 405.648 94.8359 407.18 94.1797C408.711 93.5078 410.492 93.1719 412.523 93.1719C414.32 93.1719 415.93 93.4609 417.352 94.0391C418.773 94.6172 419.977 95.4453 420.961 96.5234C421.961 97.6016 422.719 98.9062 423.234 100.438C423.766 101.969 424.031 103.688 424.031 105.594V108.805H403.312V103.859H416.32V103.25C416.336 102.406 416.188 101.688 415.875 101.094C415.578 100.5 415.141 100.047 414.562 99.7344C413.984 99.4219 413.281 99.2656 412.453 99.2656C411.594 99.2656 410.883 99.4531 410.32 99.8281C409.773 100.203 409.344 100.719 409.031 101.375C408.734 102.016 408.523 102.758 408.398 103.602C408.273 104.445 408.211 105.336 408.211 106.273V107.164C408.211 108.102 408.336 108.953 408.586 109.719C408.852 110.484 409.227 111.141 409.711 111.688C410.211 112.219 410.805 112.633 411.492 112.93C412.195 113.227 412.992 113.375 413.883 113.375C414.961 113.375 416.023 113.172 417.07 112.766C418.117 112.359 419.016 111.688 419.766 110.75L423.352 115.016C422.836 115.75 422.102 116.461 421.148 117.148C420.211 117.836 419.086 118.398 417.773 118.836C416.461 119.258 414.992 119.469 413.367 119.469ZM435 99.0547V119H427.102V93.6406H434.508L435 99.0547ZM434.062 105.453L432.211 105.5C432.211 103.562 432.445 101.836 432.914 100.32C433.383 98.7891 434.047 97.4922 434.906 96.4297C435.766 95.3672 436.789 94.5625 437.977 94.0156C439.18 93.4531 440.516 93.1719 441.984 93.1719C443.156 93.1719 444.227 93.3438 445.195 93.6875C446.18 94.0312 447.023 94.5859 447.727 95.3516C448.445 96.1172 448.992 97.1328 449.367 98.3984C449.758 99.6484 449.953 101.195 449.953 103.039V119H442.008V103.016C442.008 102 441.867 101.227 441.586 100.695C441.305 100.148 440.898 99.7734 440.367 99.5703C439.836 99.3672 439.188 99.2656 438.422 99.2656C437.609 99.2656 436.922 99.4219 436.359 99.7344C435.797 100.047 435.344 100.484 435 101.047C434.672 101.594 434.43 102.242 434.273 102.992C434.133 103.742 434.062 104.562 434.062 105.453ZM467.695 93.6406V99.125H452.414V93.6406H467.695ZM455.625 87.3359H463.523V110.727C463.523 111.398 463.602 111.922 463.758 112.297C463.914 112.656 464.18 112.914 464.555 113.07C464.945 113.211 465.461 113.281 466.102 113.281C466.555 113.281 466.93 113.273 467.227 113.258C467.523 113.227 467.805 113.188 468.07 113.141V118.789C467.398 119.008 466.695 119.172 465.961 119.281C465.227 119.406 464.445 119.469 463.617 119.469C461.93 119.469 460.484 119.203 459.281 118.672C458.094 118.141 457.188 117.305 456.562 116.164C455.938 115.023 455.625 113.539 455.625 111.711V87.3359Z" fill="black"/>
<path d="M1134 0H1348C1356.28 0 1363 6.71573 1363 15V148C1363 156.284 1356.28 163 1348 163H1134V0Z" fill="#59656F"/>
<path d="M1212.5 117.5L1212.5 45.5L1284.5 45.5L1284.5 117.5L1212.5 117.5Z" fill="white" fill-opacity="0.01"/>
<path d="M1221.5 81.5125L1221.5 108.5L1275.5 108.5L1275.5 81.5" stroke="white" stroke-width="7.24" stroke-linecap="round" stroke-linejoin="round"/>
<path d="M1262 68L1248.5 54.5L1235 68" stroke="white" stroke-width="7.24" stroke-linecap="round" stroke-linejoin="round"/>
<path d="M1248.49 93.5L1248.49 54.5" stroke="white" stroke-width="7.24" stroke-linecap="round" stroke-linejoin="round"/>
</svg>
